<svg width="504" height="184" viewBox="0 0 504 184" fill="none" xmlns="http://www.w3.org/2000/svg">
<path fill-rule="evenodd" clip-rule="evenodd" d="M101.698 79.8684C101.698 79.8684 107.831 77.1398 111.02 69.8548C114.209 62.5715 114.7 52.4664 116.171 52.7198C117.643 52.9715 117.397 69.5605 113.228 76.803C109.058 84.0438 106.851 84.8302 106.851 84.8302L101.698 79.8684Z" fill="black"/>
<path fill-rule="evenodd" clip-rule="evenodd" d="M21.41 87.6146C21.41 87.6146 14.2047 84.2748 9.65207 75.6741C5.10107 67.0718 5.98639 61.7282 3.96209 61.8952C1.93943 62.0622 3.0784 72.1658 9.77807 82.5206C16.4794 92.8755 21.41 95.8813 21.41 95.5052C21.41 95.1307 21.41 87.6146 21.41 87.6146Z" fill="black"/>
<path fill-rule="evenodd" clip-rule="evenodd" d="M130.49 126.122C130.49 126.122 133.813 126.794 133.813 130.491C133.813 134.189 122.844 166.459 82.6237 176.879C42.4037 187.3 1.51735 165.114 0.852636 162.761C0.187922 160.409 3.51149 158.392 3.51149 158.392L130.49 126.122Z" fill="#629741"/>
<path fill-rule="evenodd" clip-rule="evenodd" d="M7.47947 144.095L3.82327 158.54C3.82327 158.54 28.4554 176.409 70.9443 170.969C120.786 164.586 130.755 126.293 130.755 126.293L124.774 119.239L7.47947 144.095Z" fill="#CCE1B1"/>
<path fill-rule="evenodd" clip-rule="evenodd" d="M47.8427 2.54569C57.9155 -4.49192 68.9954 9.92005 78.3968 26.6779C87.7965 43.4373 125.402 119.855 125.402 119.855C125.402 119.855 114.322 144.323 72.3525 153.373C30.3845 162.423 6.88187 144.658 6.88187 144.658C6.88187 144.658 37.77 9.58492 47.8427 2.54569Z" fill="#D62930"/>
<path fill-rule="evenodd" clip-rule="evenodd" d="M40.2515 114.652C40.2515 114.652 31.67 124.795 36.8192 126.707C41.9685 128.618 40.2515 114.652 40.2515 114.652Z" fill="black"/>
<path fill-rule="evenodd" clip-rule="evenodd" d="M68.0538 123.827C68.0538 123.827 62.8916 138.852 68.0538 139.117C73.2144 139.379 68.0538 123.827 68.0538 123.827Z" fill="black"/>
<path fill-rule="evenodd" clip-rule="evenodd" d="M86.5415 108.535C86.5415 108.535 85.3107 122.467 90.237 120.597C95.1633 118.726 86.5415 108.535 86.5415 108.535Z" fill="black"/>
<path fill-rule="evenodd" clip-rule="evenodd" d="M52.7606 69.1547C52.7606 73.1667 49.5076 76.4197 45.4956 76.4197C41.4853 76.4197 38.2323 73.1667 38.2323 69.1547C38.2323 65.1427 41.4853 61.8914 45.4956 61.8914C49.5076 61.8914 52.7606 65.1427 52.7606 69.1547Z" fill="black"/>
<path fill-rule="evenodd" clip-rule="evenodd" d="M44.3494 66.8625C44.3494 67.9178 43.4935 68.7734 42.4378 68.7734C41.3821 68.7734 40.5262 67.9178 40.5262 66.8625C40.5262 65.8058 41.3821 64.9502 42.4378 64.9502C43.4935 64.9502 44.3494 65.8058 44.3494 66.8625Z" fill="#FFFFFE"/>
<path fill-rule="evenodd" clip-rule="evenodd" d="M80.2878 67.6253C80.2878 71.6378 77.0361 74.8895 73.0236 74.8895C69.0112 74.8895 65.7595 71.6378 65.7595 67.6253C65.7595 63.6129 69.0112 60.3612 73.0236 60.3612C77.0361 60.3612 80.2878 63.6129 80.2878 67.6253Z" fill="black"/>
<path fill-rule="evenodd" clip-rule="evenodd" d="M71.8766 65.3331C71.8766 66.3885 71.021 67.2441 69.9643 67.2441C68.909 67.2441 68.0534 66.3885 68.0534 65.3331C68.0534 64.2764 68.909 63.4208 69.9643 63.4208C71.021 63.4208 71.8766 64.2764 71.8766 65.3331Z" fill="#FFFFFE"/>
<path fill-rule="evenodd" clip-rule="evenodd" d="M68 92C68 96.9698 65.539 101 62.5 101C59.4633 101 57 96.9698 57 92C57 87.0302 59.4633 83 62.5 83C65.539 83 68 87.0302 68 92Z" fill="white"/>
<path fill-rule="evenodd" clip-rule="evenodd" d="M60.2672 179.646C67.5503 179.646 75.0757 178.857 82.5817 176.936C75.0724 178.857 67.5519 179.646 60.2672 179.646ZM1.52942 160.3C2.3435 159.16 3.60984 158.392 3.60984 158.392L7.26997 143.939C7.26997 143.939 9.76713 132.893 13.5678 116.946C9.76713 132.895 7.27158 143.939 7.27158 143.939L3.60984 158.393C3.60984 158.393 2.3435 159.16 1.52942 160.3Z" fill="#E4E4DF"/>
<path fill-rule="evenodd" clip-rule="evenodd" d="M59.4986 179.647C27.743 179.646 0.628585 164.561 0.0882698 162.638C-0.167328 161.73 0.164302 160.872 0.670645 160.158C1.48597 159.01 2.75425 158.237 2.75425 158.237C2.75425 158.237 13.8162 167.551 35.5 171C42.736 174.721 52.447 175.258 60.2784 175.258C61.6324 175.258 62.9622 175.225 64.2466 175.166C79.0745 174.489 100.938 168.178 113.168 161.011C105.772 167.312 95.9618 173.079 83.0929 176.589L83.0848 176.591C83.0412 176.602 82.9975 176.614 82.9554 176.627C82.9473 176.628 82.9376 176.63 82.9312 176.632C82.9101 176.638 82.8907 176.643 82.8697 176.648C82.8551 176.653 82.8422 176.656 82.826 176.661C82.8017 176.668 82.7775 176.675 82.7516 176.681C82.7306 176.686 82.7095 176.693 82.6869 176.698C82.6723 176.702 82.6594 176.706 82.6448 176.709C82.6205 176.716 82.5963 176.722 82.572 176.729C82.5591 176.732 82.5478 176.735 82.5348 176.739C82.5057 176.747 82.4782 176.753 82.4475 176.762C82.4378 176.765 82.428 176.767 82.4167 176.77C82.3844 176.778 82.3536 176.786 82.3213 176.794C82.318 176.796 82.3148 176.796 82.3116 176.798C82.2776 176.808 82.2436 176.816 82.2097 176.824C82.2016 176.827 82.1919 176.829 82.1838 176.831C82.1498 176.84 82.1126 176.85 82.0786 176.859C82.0026 176.878 81.9233 176.9 81.8473 176.918C74.3298 178.852 66.7929 179.647 59.4986 179.647Z" fill="#59883E"/>
<path fill-rule="evenodd" clip-rule="evenodd" d="M35.9383 171.236C14.2768 167.785 2.29385 159.04 2.29385 159.04L5.95743 144.474C5.95743 144.474 11.4132 148.678 21.7591 151.981C21.9757 153.516 22.2553 154.827 22.6043 155.877C25.0769 163.331 29.9848 168.17 35.9383 171.236Z" fill="#CCE1B1"/>
<path fill-rule="evenodd" clip-rule="evenodd" d="M22.7407 151.355C12.3574 148.086 6.88187 143.925 6.88187 143.925C6.88187 143.925 9.38768 132.909 13.204 117C18.1702 96.2917 25.7416 67.2986 32.5 43.5403V43.5C32.5 43.5 19.2163 126.736 22.7407 151.355Z" fill="#A8161C"/>
<path d="M310.669 90.648C310.669 135.938 279.378 171.821 241.727 171.821C204.075 171.821 172.784 135.938 172.784 90.648C172.784 45.3584 204.075 9.47522 241.727 9.47522C279.378 9.47522 310.669 45.3584 310.669 90.648Z" fill="#D62930" stroke="#CCE1B1" stroke-width="6"/>
<path d="M316 90.9999C316 138.9 282.269 177 241.5 177C200.731 177 167 138.9 167 90.9999C167 43.1002 200.731 4.99994 241.5 4.99994C282.269 4.99994 316 43.1002 316 90.9999Z" stroke="#59883E" stroke-width="6"/>
<path fill-rule="evenodd" clip-rule="evenodd" d="M187.898 90.6479C187.898 90.6479 186.74 103.756 191.375 101.996C196.01 100.236 187.898 90.6479 187.898 90.6479Z" fill="black"/>
<path fill-rule="evenodd" clip-rule="evenodd" d="M213.177 34.0034C213.177 34.0034 200.026 33.533 202.026 38.0695C204.026 42.606 213.177 34.0034 213.177 34.0034Z" fill="black"/>
<path fill-rule="evenodd" clip-rule="evenodd" d="M266.346 144.972C266.346 144.972 258.056 155.192 262.883 156.324C267.709 157.457 266.346 144.972 266.346 144.972Z" fill="black"/>
<path fill-rule="evenodd" clip-rule="evenodd" d="M292.347 89.505C292.347 89.505 287.836 101.867 292.769 101.366C297.701 100.866 292.347 89.505 292.347 89.505Z" fill="black"/>
<path fill-rule="evenodd" clip-rule="evenodd" d="M299.939 73.7289C299.939 73.7289 296.081 86.3101 300.981 85.552C305.881 84.794 299.939 73.7289 299.939 73.7289Z" fill="black"/>
<ellipse cx="241.727" cy="90.6481" rx="43.1655" ry="53.9569" fill="white"/>
<path d="M494.68 132.802L493.441 136.605L494.074 136.811L494.739 136.801L494.68 132.802ZM494.788 132.8L494.846 136.8L494.859 136.8L494.871 136.799L494.788 132.8ZM493.998 132.579L493.869 128.581L492.759 136.383L493.998 132.579ZM488.681 131.868L488.245 135.844H488.245L488.681 131.868ZM483.676 131.317L484.118 127.341L484.104 127.34L484.091 127.338L483.676 131.317ZM456.963 129.088L457.23 125.097L452.839 124.804L452.965 129.202L456.963 129.088ZM457.458 146.423L453.46 146.538L453.462 146.623L453.468 146.708L457.458 146.423ZM461.663 163.264L465.199 161.394L465.192 161.382L465.186 161.369L461.663 163.264ZM460.179 177.628L462.052 181.162L462.966 180.678L463.53 179.811L460.179 177.628ZM444.844 177.628L447.123 174.341L446.095 173.628H444.844V177.628ZM435.79 145.774L431.796 145.55L431.796 145.552L435.79 145.774ZM435.816 145.309L431.822 145.083L431.822 145.085L435.816 145.309ZM436.929 130.326H440.929V126.227L436.831 126.327L436.929 130.326ZM405.641 133.422L405.107 129.457H405.107L405.641 133.422ZM354.318 129.831L356.39 126.409L356.389 126.408L354.318 129.831ZM357.781 91.6919L355.264 88.583L355.152 88.6738L355.046 88.7726L357.781 91.6919ZM380.783 72.6226L378.262 69.5171L378.228 69.5448L378.195 69.5732L380.783 72.6226ZM433.714 26.3112L436.403 29.2721L436.593 29.0991L436.76 28.9032L433.714 26.3112ZM445.091 12.9379L442.162 10.2141L442.102 10.2787L442.044 10.3459L445.091 12.9379ZM470.443 9.71839L473.062 6.69459L473.062 6.69459L470.443 9.71839ZM473.04 27.7971L469.326 26.3132L469.276 26.4387L469.234 26.5673L473.04 27.7971ZM470.32 36.2174L466.513 34.9875L466.472 35.1167L466.439 35.2484L470.32 36.2174ZM463.394 77.0803L467.342 77.7248L467.343 77.7156L463.394 77.0803ZM459.189 109.771H455.189V114.979L460.221 113.635L459.189 109.771ZM499.753 118.439L503.751 118.331L503.717 117.068L502.964 116.054L499.753 118.439ZM500 127.602H504V127.548L503.999 127.494L500 127.602ZM498.258 131.822L500.624 135.047L500.624 135.047L498.258 131.822ZM372.568 115.109V119.109H372.894L373.217 119.056L372.568 115.109ZM374.069 114.862L373.76 110.874L373.59 110.887L373.421 110.915L374.069 114.862ZM437.629 109.929L437.939 113.917L441.283 113.657L441.61 110.319L437.629 109.929ZM443.885 46.0441L447.866 46.4339L448.685 38.0706L441.677 42.7085L443.885 46.0441ZM401.595 78.1099L399.047 75.0265L399.047 75.0266L401.595 78.1099ZM494.739 136.801L494.846 136.8L494.729 128.801L494.622 128.802L494.739 136.801ZM492.759 136.383L493.441 136.605L495.919 128.999L495.237 128.776L492.759 136.383ZM488.245 135.844C490.608 136.103 492.114 136.268 492.925 136.372C493.124 136.398 493.25 136.416 493.322 136.427C493.483 136.453 493.294 136.432 493.025 136.349C492.948 136.325 492.714 136.251 492.43 136.108C492.288 136.036 492.024 135.893 491.731 135.656C491.476 135.451 490.904 134.942 490.544 134.064C490.104 132.991 490.144 131.752 490.707 130.685C491.168 129.81 491.822 129.351 492.113 129.168C492.689 128.806 493.216 128.689 493.295 128.67C493.727 128.568 494.077 128.575 493.869 128.581L494.127 136.577C494.146 136.577 494.646 136.572 495.149 136.453C495.246 136.429 495.786 136.308 496.37 135.941C496.664 135.756 497.321 135.294 497.783 134.417C498.347 133.347 498.388 132.106 497.947 131.03C497.585 130.148 497.011 129.637 496.753 129.429C496.456 129.189 496.187 129.043 496.039 128.968C495.742 128.818 495.491 128.738 495.392 128.707C495.032 128.596 494.671 128.541 494.574 128.526C494.388 128.496 494.173 128.467 493.943 128.437C493.038 128.321 491.431 128.145 489.116 127.892L488.245 135.844ZM483.233 135.292C485.193 135.51 486.858 135.692 488.245 135.844L489.116 127.892C487.729 127.74 486.07 127.558 484.118 127.341L483.233 135.292ZM456.697 133.079C466.552 133.737 475.406 134.476 483.261 135.295L484.091 127.338C476.116 126.506 467.161 125.76 457.23 125.097L456.697 133.079ZM461.456 146.309L460.962 128.974L452.965 129.202L453.46 146.538L461.456 146.309ZM465.186 161.369C463.233 157.739 461.918 152.732 461.448 146.139L453.468 146.708C453.987 153.983 455.475 160.203 458.14 165.158L465.186 161.369ZM467.889 168.96C467.889 167.674 467.459 166.365 467.058 165.337C466.61 164.191 465.977 162.867 465.199 161.394L458.127 165.134C458.832 166.468 459.312 167.496 459.607 168.249C459.753 168.624 459.834 168.882 459.875 169.042C459.922 169.224 459.889 169.171 459.889 168.96H467.889ZM463.53 179.811C464.843 177.796 465.899 175.914 466.639 174.187C467.359 172.504 467.889 170.716 467.889 168.96H459.889C459.889 169.185 459.8 169.833 459.284 171.039C458.786 172.201 457.988 173.663 456.827 175.445L463.53 179.811ZM452.017 183.857C455.428 183.857 458.788 182.892 462.052 181.162L458.305 174.094C455.963 175.335 453.882 175.857 452.017 175.857V183.857ZM442.565 180.915C445.386 182.871 448.574 183.857 452.017 183.857V175.857C450.183 175.857 448.589 175.357 447.123 174.341L442.565 180.915ZM431.445 155.091C431.445 162.761 432.227 169.036 434.103 173.533C435.057 175.822 436.382 177.863 438.234 179.344C440.149 180.875 442.41 181.628 444.844 181.628V173.628C444.144 173.628 443.664 173.442 443.229 173.095C442.732 172.697 442.098 171.922 441.486 170.454C440.229 167.44 439.445 162.446 439.445 155.091H431.445ZM431.796 145.552C431.565 149.71 431.445 152.907 431.445 155.091H439.445C439.445 153.137 439.555 150.121 439.784 145.995L431.796 145.552ZM431.822 145.085L431.796 145.55L439.784 145.997L439.81 145.533L431.822 145.085ZM432.187 135.527C432.187 137.555 432.069 140.723 431.822 145.083L439.81 145.535C440.058 141.145 440.187 137.791 440.187 135.527H432.187ZM432.646 131.965C432.379 133.217 432.187 134.447 432.187 135.527H440.187C440.187 135.285 440.243 134.699 440.469 133.64L432.646 131.965ZM432.929 130.326C432.929 130.287 432.93 130.394 432.88 130.724C432.835 131.029 432.759 131.438 432.646 131.965L440.469 133.64C440.717 132.482 440.929 131.287 440.929 130.326H432.929ZM406.175 137.386C420.25 135.49 430.497 134.484 437.027 134.325L436.831 126.327C429.839 126.498 419.228 127.556 405.107 129.457L406.175 137.386ZM373.363 140.27C381.057 140.27 392.029 139.291 406.175 137.386L405.107 129.457C391.056 131.35 380.51 132.27 373.363 132.27V140.27ZM352.247 133.252C359.682 137.754 366.757 140.27 373.363 140.27V132.27C368.756 132.27 363.135 130.492 356.39 126.409L352.247 133.252ZM338.446 114.971C338.446 122.329 344.093 128.32 352.248 133.253L356.389 126.408C348.713 121.765 346.446 117.85 346.446 114.971H338.446ZM355.046 88.7726C349.809 93.6787 345.732 98.2543 342.939 102.493C340.177 106.687 338.446 110.892 338.446 114.971H346.446C346.446 113.108 347.271 110.46 349.62 106.894C351.939 103.373 355.53 99.2811 360.515 94.6113L355.046 88.7726ZM378.195 69.5732C370.633 75.992 362.99 82.3286 355.264 88.583L360.298 94.8009C368.072 88.5074 375.763 82.1311 383.372 75.6719L378.195 69.5732ZM431.024 23.3503C407.952 44.3069 390.375 59.6832 378.262 69.5171L383.304 75.728C395.595 65.7495 413.305 50.2517 436.403 29.2721L431.024 23.3503ZM442.044 10.3459L430.667 23.7193L436.76 28.9032L448.138 15.5298L442.044 10.3459ZM460.179 1.75592C453.274 1.75592 447.233 4.76002 442.162 10.2141L448.02 15.6617C451.853 11.5398 455.871 9.75592 460.179 9.75592V1.75592ZM473.062 6.69459C469.335 3.46706 464.998 1.75592 460.179 1.75592V9.75592C462.945 9.75592 465.451 10.6864 467.825 12.7422L473.062 6.69459ZM479.019 19.1292C479.019 14.1993 476.88 10.0014 473.062 6.69459L467.825 12.7422C470.107 14.7186 471.019 16.7947 471.019 19.1292H479.019ZM476.755 29.2811C478.187 25.696 479.019 22.2842 479.019 19.1292H471.019C471.019 20.9274 470.532 23.2942 469.326 26.3132L476.755 29.2811ZM474.126 37.4472L476.846 29.027L469.234 26.5673L466.513 34.9875L474.126 37.4472ZM467.343 77.7156C471.323 52.9749 473.595 39.6118 474.2 37.1864L466.439 35.2484C465.725 38.1063 463.38 51.9851 459.445 76.445L467.343 77.7156ZM463.189 109.771C463.189 105.542 464.521 95.0025 467.342 77.7248L459.446 76.4358C456.661 93.4995 455.189 104.753 455.189 109.771H463.189ZM471.062 104.78C465.571 104.78 461.169 105.102 458.157 105.906L460.221 113.635C462.157 113.118 465.669 112.78 471.062 112.78V104.78ZM502.964 116.054C496.997 108.019 485.714 104.78 471.062 104.78V112.78C485.1 112.78 492.945 115.981 496.541 120.823L502.964 116.054ZM503.999 127.494L503.751 118.331L495.754 118.547L496.001 127.71L503.999 127.494ZM500.624 135.047C503.157 133.189 504 130.339 504 127.602H496C496 128.204 495.909 128.5 495.867 128.602C495.848 128.648 495.84 128.653 495.853 128.636C495.867 128.618 495.883 128.603 495.892 128.597L500.624 135.047ZM494.871 136.799C496.844 136.758 498.898 136.314 500.624 135.047L495.892 128.597C495.923 128.574 495.663 128.781 494.705 128.801L494.871 136.799ZM372.568 111.109C372.183 111.109 371.961 111.077 371.862 111.057C371.76 111.035 371.872 111.042 372.082 111.175C372.319 111.325 372.612 111.594 372.824 111.998C373.03 112.39 373.065 112.727 373.065 112.889H365.065C365.065 114.883 365.964 116.769 367.8 117.933C369.327 118.901 371.107 119.109 372.568 119.109V111.109ZM373.421 110.915L371.92 111.162L373.217 119.056L374.718 118.809L373.421 110.915ZM437.32 105.941L373.76 110.874L374.379 118.85L437.939 113.917L437.32 105.941ZM439.904 45.6543L433.648 109.539L441.61 110.319L447.866 46.4339L439.904 45.6543ZM404.143 81.1933C420.6 67.593 434.577 57.0011 446.093 49.3797L441.677 42.7085C429.838 50.5445 415.621 61.3297 399.047 75.0265L404.143 81.1933ZM373.065 112.889C373.065 112.893 373.07 112.652 373.292 112.092C373.508 111.546 373.878 110.827 374.462 109.92C375.635 108.097 377.489 105.792 380.119 102.98C385.368 97.3684 393.348 90.1156 404.144 81.1931L399.047 75.0266C388.156 84.0282 379.871 91.5339 374.276 97.5152C371.484 100.5 369.272 103.2 367.734 105.591C366.28 107.851 365.065 110.378 365.065 112.889H373.065Z" fill="#629741"/>
<path fill-rule="evenodd" clip-rule="evenodd" d="M490.797 132.862C492.724 132.531 495.536 131.28 496.403 126.883L496.166 118.099C491.581 111.926 482.41 108.839 468.654 108.839C463.436 108.839 459.641 109.156 457.27 109.789C457.27 105.357 458.614 94.9105 461.302 78.4493C465.096 54.8655 467.31 41.8074 467.942 39.2749L470.551 31.2026C471.816 28.037 472.449 25.2671 472.449 22.8929C472.449 19.4107 470.986 16.4034 468.061 13.8709C465.136 11.3384 461.855 10.0722 458.218 10.0722C452.842 10.0722 448.02 12.3673 443.751 16.9574L432.841 29.7781C410.705 49.8797 393.786 64.6789 382.086 74.1757C374.812 80.3487 367.46 86.4425 360.028 92.4571C350.225 101.637 345.324 109.077 345.324 114.775C345.324 119.681 349.119 124.43 356.708 129.02C363.507 133.135 369.594 135.193 374.97 135.193C382.086 135.193 392.403 134.283 405.922 132.462C419.44 130.642 429.441 129.653 435.924 129.495C435.924 129.97 435.805 130.761 435.568 131.869C435.331 132.977 435.212 133.847 435.212 134.481C435.212 136.538 435.094 139.664 434.857 143.859L434.832 144.304C434.611 148.275 434.501 151.253 434.501 153.237C434.501 167.64 437.505 174.842 443.514 174.842C445.569 176.267 447.862 176.979 450.392 176.979C452.921 176.979 455.53 176.267 458.218 174.842C460.59 171.202 461.776 168.432 461.776 166.532C461.776 165.583 461.064 163.762 459.641 161.072C457.428 156.956 456.084 151.575 455.609 144.927L455.135 128.308C460.693 128.678 466.011 129.565 470.988 130.396C474.508 130.983 477.857 131.541 481 131.869C484.293 132.212 486.867 132.555 488.85 132.874L488.906 132.942C488.895 132.94 488.889 132.94 488.889 132.94C488.889 132.94 488.895 132.941 488.907 132.943L488.906 132.942C488.963 132.948 489.154 132.968 489.441 132.971C490.607 133.167 491.548 133.354 492.295 133.524L494.5 134.5C495.115 134.48 494.763 134.088 492.295 133.524L490.797 132.862ZM371.224 112.98C371.224 114.398 372.336 115.107 374.559 115.107L375.988 114.871L436.492 110.143L442.447 48.9203C431.331 56.3269 417.912 66.5702 402.191 79.65C381.546 96.8271 371.224 107.937 371.224 112.98Z" fill="#D62930"/>
<path d="M490.797 132.862L490.375 130.398L482.211 131.797L489.786 135.148L490.797 132.862ZM496.403 126.883L498.856 127.367L498.91 127.094L498.902 126.816L496.403 126.883ZM496.166 118.099L498.665 118.031L498.644 117.242L498.173 116.608L496.166 118.099ZM457.27 109.789H454.77V113.044L457.914 112.204L457.27 109.789ZM461.302 78.4493L463.769 78.8522L463.77 78.8465L461.302 78.4493ZM467.942 39.2749L465.564 38.5061L465.537 38.5868L465.517 38.6692L467.942 39.2749ZM470.551 31.2026L468.23 30.275L468.198 30.3534L468.172 30.4338L470.551 31.2026ZM468.061 13.8709L466.425 15.761L468.061 13.8709ZM443.751 16.9574L441.92 15.2548L441.882 15.2952L441.847 15.3372L443.751 16.9574ZM432.841 29.7781L434.521 31.6289L434.64 31.5208L434.745 31.3983L432.841 29.7781ZM382.086 74.1757L380.51 72.2347L380.489 72.2519L380.468 72.2697L382.086 74.1757ZM360.028 92.4571L358.456 90.5138L358.386 90.5706L358.32 90.6323L360.028 92.4571ZM356.708 129.02L358.003 126.881L358.002 126.881L356.708 129.02ZM405.922 132.462L406.255 134.94L405.922 132.462ZM435.924 129.495H438.424V126.933L435.863 126.995L435.924 129.495ZM434.857 143.859L432.361 143.717L432.361 143.719L434.857 143.859ZM434.832 144.304L432.336 144.164L432.336 144.165L434.832 144.304ZM443.514 174.842L444.938 172.787L444.295 172.342H443.514V174.842ZM458.218 174.842L459.389 177.051L459.96 176.748L460.313 176.207L458.218 174.842ZM459.641 161.072L461.851 159.903L461.847 159.895L461.843 159.887L459.641 161.072ZM455.609 144.927L453.11 144.998L453.112 145.052L453.116 145.105L455.609 144.927ZM455.135 128.308L455.301 125.813L452.558 125.63L452.636 128.379L455.135 128.308ZM470.988 130.396L470.577 132.862V132.862L470.988 130.396ZM481 131.869L480.741 134.355L481 131.869ZM488.85 132.874L490.781 131.285L490.18 130.556L489.247 130.406L488.85 132.874ZM488.889 132.94L491.348 133.387L491.389 133.165V132.94H488.889ZM488.907 132.943L488.507 135.411L495.016 136.466L490.842 131.36L488.907 132.943ZM489.441 132.971L489.856 130.506L489.663 130.473L489.468 130.471L489.441 132.971ZM494.5 134.5L493.488 136.786L494.01 137.017L494.581 136.999L494.5 134.5ZM374.559 115.107V117.607H374.764L374.967 117.574L374.559 115.107ZM375.988 114.871L375.793 112.379L375.686 112.387L375.58 112.404L375.988 114.871ZM436.492 110.143L436.687 112.636L438.777 112.472L438.98 110.385L436.492 110.143ZM442.447 48.9203L444.935 49.1623L445.445 43.9184L441.061 46.8398L442.447 48.9203ZM402.191 79.65L400.592 77.7282L400.592 77.7282L402.191 79.65ZM491.22 135.326C492.489 135.108 494.137 134.573 495.627 133.294C497.148 131.987 498.326 130.056 498.856 127.367L493.95 126.399C493.614 128.107 492.953 128.999 492.369 129.501C491.754 130.029 491.033 130.285 490.375 130.398L491.22 135.326ZM498.902 126.816L498.665 118.031L493.667 118.166L493.904 126.951L498.902 126.816ZM498.173 116.608C492.847 109.437 482.601 106.339 468.654 106.339V111.339C482.218 111.339 490.315 114.414 494.159 119.589L498.173 116.608ZM468.654 106.339C463.406 106.339 459.333 106.651 456.625 107.373L457.914 112.204C459.95 111.661 463.467 111.339 468.654 111.339V106.339ZM459.77 109.789C459.77 105.604 461.07 95.3803 463.769 78.8522L458.834 78.0464C456.157 94.4407 454.77 105.11 454.77 109.789H459.77ZM463.77 78.8465C467.579 55.1749 469.769 42.278 470.368 39.8807L465.517 38.6692C464.851 41.3368 462.614 54.5562 458.833 78.0522L463.77 78.8465ZM470.321 40.0438L472.93 31.9715L468.172 30.4338L465.564 38.5061L470.321 40.0438ZM472.873 32.1303C474.208 28.7877 474.949 25.6912 474.949 22.8929H469.949C469.949 24.843 469.424 27.2863 468.23 30.275L472.873 32.1303ZM474.949 22.8929C474.949 18.5995 473.103 14.929 469.697 11.9809L466.425 15.761C468.87 17.8778 469.949 20.222 469.949 22.8929H474.949ZM469.697 11.9809C466.349 9.08227 462.496 7.5722 458.218 7.5722V12.5722C461.213 12.5722 463.922 13.5946 466.425 15.761L469.697 11.9809ZM458.218 7.5722C452.031 7.5722 446.576 10.2484 441.92 15.2548L445.581 18.66C449.463 14.4861 453.653 12.5722 458.218 12.5722V7.5722ZM441.847 15.3372L430.937 28.1579L434.745 31.3983L445.655 18.5776L441.847 15.3372ZM431.16 27.9273C409.032 48.0218 392.155 62.783 380.51 72.2347L383.661 76.1168C395.417 66.5748 412.377 51.7377 434.521 31.6289L431.16 27.9273ZM380.468 72.2697C373.209 78.43 365.872 84.5114 358.456 90.5138L361.601 94.4004C369.048 88.3735 376.415 82.2673 383.703 76.0818L380.468 72.2697ZM358.32 90.6323C353.339 95.2963 349.511 99.6021 346.912 103.546C344.332 107.462 342.824 111.233 342.824 114.775H347.824C347.824 112.618 348.766 109.821 351.088 106.297C353.39 102.802 356.915 98.7982 361.737 94.2819L358.32 90.6323ZM342.824 114.775C342.824 121.081 347.675 126.479 355.414 131.159L358.002 126.881C350.562 122.381 347.824 118.281 347.824 114.775H342.824ZM355.414 131.159C362.428 135.405 368.97 137.693 374.97 137.693V132.693C370.219 132.693 364.586 130.866 358.003 126.881L355.414 131.159ZM374.97 137.693C382.256 137.693 392.706 136.764 406.255 134.94L405.588 129.985C392.099 131.801 381.915 132.693 374.97 132.693V137.693ZM406.255 134.94C419.759 133.122 429.647 132.149 435.985 131.994L435.863 126.995C429.236 127.157 419.121 128.163 405.588 129.985L406.255 134.94ZM433.424 129.495C433.424 129.678 433.361 130.239 433.124 131.346L438.013 132.392C438.25 131.283 438.424 130.261 438.424 129.495H433.424ZM433.124 131.346C432.874 132.514 432.712 133.585 432.712 134.481H437.712C437.712 134.109 437.788 133.44 438.013 132.392L433.124 131.346ZM432.712 134.481C432.712 136.464 432.597 139.532 432.361 143.717L437.353 144C437.59 139.796 437.712 136.612 437.712 134.481H432.712ZM432.361 143.719L432.336 144.164L437.328 144.444L437.353 143.999L432.361 143.719ZM432.336 144.165C432.114 148.146 432.001 151.181 432.001 153.237H437.001C437.001 151.325 437.108 148.404 437.328 144.443L432.336 144.165ZM432.001 153.237C432.001 160.537 432.751 166.339 434.447 170.403C435.305 172.46 436.46 174.206 438.01 175.445C439.599 176.715 441.47 177.342 443.514 177.342V172.342C442.553 172.342 441.795 172.069 441.131 171.539C440.428 170.977 439.705 170.022 439.061 168.478C437.753 165.341 437.001 160.34 437.001 153.237H432.001ZM442.089 176.897C444.568 178.615 447.359 179.479 450.392 179.479V174.479C448.364 174.479 446.57 173.918 444.938 172.787L442.089 176.897ZM450.392 179.479C453.404 179.479 456.413 178.628 459.389 177.051L457.048 172.633C454.648 173.905 452.438 174.479 450.392 174.479V179.479ZM460.313 176.207C461.546 174.314 462.516 172.58 463.185 171.018C463.842 169.484 464.276 167.96 464.276 166.532H459.276C459.276 167.004 459.117 167.815 458.588 169.05C458.071 170.259 457.262 171.73 456.124 173.477L460.313 176.207ZM464.276 166.532C464.276 165.563 463.946 164.504 463.571 163.545C463.167 162.512 462.586 161.291 461.851 159.903L457.431 162.24C458.12 163.543 458.606 164.578 458.914 165.365C459.25 166.226 459.276 166.551 459.276 166.532H464.276ZM461.843 159.887C459.852 156.186 458.562 151.184 458.103 144.749L453.116 145.105C453.605 151.966 455.003 157.727 457.44 162.256L461.843 159.887ZM458.108 144.856L457.634 128.236L452.636 128.379L453.11 144.998L458.108 144.856ZM454.969 130.802C460.384 131.163 465.584 132.029 470.577 132.862L471.4 127.93C466.437 127.102 461.001 126.194 455.301 125.813L454.969 130.802ZM470.577 132.862C474.079 133.446 477.507 134.018 480.741 134.355L481.259 129.382C478.207 129.064 474.936 128.52 471.4 127.93L470.577 132.862ZM480.741 134.355C483.999 134.695 486.525 135.032 488.453 135.342L489.247 130.406C487.208 130.078 484.588 129.729 481.259 129.382L480.741 134.355ZM486.92 134.462L486.976 134.53L490.836 131.353L490.781 131.285L486.92 134.462ZM491.389 132.94C491.389 133.992 490.77 134.647 490.411 134.923C490.076 135.18 489.759 135.287 489.641 135.324C489.377 135.407 489.159 135.426 489.111 135.43C488.966 135.443 488.852 135.44 488.831 135.439C488.759 135.437 488.702 135.433 488.693 135.432C488.659 135.429 488.632 135.427 488.629 135.426C488.621 135.425 488.615 135.425 488.613 135.424C488.61 135.424 488.609 135.424 488.609 135.424C488.606 135.424 488.617 135.425 488.626 135.426L489.186 130.457C489.183 130.457 489.186 130.457 489.178 130.456C489.176 130.456 489.173 130.456 489.169 130.456C489.166 130.455 489.159 130.454 489.15 130.453C489.147 130.453 489.119 130.45 489.085 130.447C489.076 130.447 489.019 130.442 488.947 130.44C488.926 130.44 488.811 130.437 488.666 130.45C488.618 130.454 488.401 130.472 488.137 130.556C488.018 130.593 487.701 130.7 487.366 130.957C487.008 131.232 486.389 131.887 486.389 132.94H491.389ZM489.307 130.475C489.299 130.474 489.287 130.472 489.29 130.472C489.29 130.472 489.291 130.472 489.294 130.473C489.296 130.473 489.302 130.474 489.31 130.476C489.313 130.476 489.34 130.481 489.373 130.487C489.382 130.489 489.438 130.5 489.508 130.518C489.528 130.523 489.637 130.55 489.771 130.601C489.817 130.618 490.011 130.69 490.232 130.831C490.334 130.896 490.588 131.066 490.831 131.366C491.073 131.665 491.53 132.39 491.348 133.387L486.429 132.493C486.248 133.49 486.704 134.215 486.946 134.514C487.189 134.814 487.444 134.983 487.545 135.048C487.767 135.189 487.96 135.262 488.007 135.279C488.14 135.329 488.249 135.357 488.27 135.362C488.34 135.38 488.395 135.391 488.405 135.392C488.439 135.399 488.466 135.404 488.469 135.404C488.478 135.406 488.486 135.407 488.489 135.408C488.492 135.408 488.495 135.409 488.497 135.409C488.505 135.41 488.503 135.41 488.507 135.411L489.307 130.475ZM486.971 134.524L486.971 134.525L490.842 131.36L490.842 131.359L486.971 134.524ZM488.627 135.426C488.745 135.439 489.023 135.467 489.414 135.471L489.468 130.471C489.376 130.47 489.304 130.467 489.256 130.463C489.232 130.462 489.214 130.46 489.203 130.459C489.192 130.458 489.187 130.457 489.186 130.457L488.627 135.426ZM489.026 135.436C490.156 135.627 491.048 135.804 491.738 135.961L492.851 131.087C492.048 130.903 491.059 130.708 489.856 130.506L489.026 135.436ZM495.512 132.214L493.306 131.238L491.283 135.81L493.488 136.786L495.512 132.214ZM491.738 135.961C492.966 136.242 493.378 136.422 493.375 136.42C493.372 136.419 493.179 136.322 492.959 136.102C492.858 136.001 491.942 135.076 492.374 133.68C492.762 132.423 493.872 132.109 493.945 132.087C494.206 132.006 494.397 132.002 494.419 132.001L494.581 136.999C494.757 136.993 495.071 136.972 495.421 136.864C495.583 136.814 496.747 136.462 497.151 135.157C497.597 133.712 496.657 132.729 496.488 132.56C496.2 132.273 495.895 132.098 495.733 132.012C495.09 131.668 494.092 131.37 492.851 131.087L491.738 135.961ZM493.306 131.238L491.809 130.575L489.786 135.148L491.283 135.81L493.306 131.238ZM374.559 112.607C374.128 112.607 373.823 112.572 373.62 112.529C373.414 112.485 373.366 112.445 373.402 112.468C373.455 112.502 373.565 112.594 373.648 112.753C373.727 112.904 373.724 113.004 373.724 112.98H368.724C368.724 114.466 369.375 115.829 370.713 116.683C371.86 117.415 373.262 117.607 374.559 117.607V112.607ZM375.58 112.404L374.151 112.641L374.967 117.574L376.396 117.337L375.58 112.404ZM436.297 107.651L375.793 112.379L376.183 117.363L436.687 112.636L436.297 107.651ZM439.959 48.6783L434.004 109.901L438.98 110.385L444.935 49.1623L439.959 48.6783ZM403.789 81.5718C419.475 68.5223 432.818 58.3399 443.833 51.0008L441.061 46.8398C429.843 54.314 416.35 64.618 400.592 77.7282L403.789 81.5718ZM373.724 112.98C373.724 112.461 374.037 111.329 375.266 109.406C376.443 107.565 378.267 105.29 380.797 102.567C385.851 97.1278 393.497 90.1354 403.79 81.5718L400.592 77.7282C390.239 86.3417 382.403 93.4928 377.134 99.1637C374.503 101.996 372.456 104.518 371.053 106.714C369.701 108.83 368.724 110.977 368.724 112.98H373.724Z" fill="#CCE1B1"/>
<path fill-rule="evenodd" clip-rule="evenodd" d="M451.277 157.929C451.277 157.929 444.499 166.203 448.592 167.239C452.685 168.275 451.277 157.929 451.277 157.929Z" fill="black"/>
<path fill-rule="evenodd" clip-rule="evenodd" d="M461.349 42.0993C461.349 42.0993 454.571 50.374 458.664 51.4099C462.757 52.4458 461.349 42.0993 461.349 42.0993Z" fill="black"/>
<path fill-rule="evenodd" clip-rule="evenodd" d="M489.224 123.403C489.224 123.403 480.718 116.918 479.826 121.045C478.933 125.172 489.224 123.403 489.224 123.403Z" fill="black"/>
<path fill-rule="evenodd" clip-rule="evenodd" d="M448.231 28.0945C448.231 28.0945 447.424 38.7608 451.372 37.2615C455.319 35.7622 448.231 28.0945 448.231 28.0945Z" fill="black"/>
</svg>
