<svg height="37" viewBox="0 0 103 37" width="103" xmlns="http://www.w3.org/2000/svg"><g fill="#ed1c24" fill-rule="evenodd"><path d="m45.0882827 6.24027466h2.1664218c.7894085 0 1.1870805.39001722 1.1870805 1.27051065v3.12013779h4.2438125s0 0 0-3.12013779c0-.88049343.3917366-1.27051065 1.2820469-1.27051065h2.0714554v2.0505451s0 0-.884375 0c0 0-.1009018.10045899-.1009018.10045899v8.78129695s0 0-2.3682255 0c0 0 0 0 0-4.3906485 0 0 0 0-4.2438125 0v4.3906485s0 0-2.3682255 0c0 0 0 0 0-8.78129695 0 0 0-.10045899-.1009018-.10045899 0 0 0 0-.884375 0 0 0 0 0 0-2.0505451z"/><path d="m62.2534659 6.04526604.0534186.00590936v2.25146307l-.0534186-.01181871c-1.7746853 0-3.157634 1.46551927-3.157634 3.32105574 0 1.9500862 1.3829487 3.5101551 3.157634 3.5101551l.0534186-.0118187v2.251463l-.0534186.0059094c-3.157634 0-5.7217277-2.535112-5.7217277-5.7557088 0-3.12604712 2.5640937-5.56660946 5.7217277-5.56660946z"/><path d="m62.3068845 6.0511754 1.0980494.10636833c2.6056416.50820426 4.5702597 2.71830187 4.5702597 5.45433177 0 2.8128515-1.9646181 5.1115894-4.5702597 5.6375217l-1.0980494.1122777v-2.251463l1.2048866-.2600115c1.1633389-.5318417 2.0002306-1.778715 2.0002306-3.2383249 0-1.394607-.8368917-2.56465869-2.0002306-3.06104425l-1.2048866-.24819278z"/><path d="m71.773851 6.24027466h1.578817v2.0505451h-.1483851c-.1958683 0-.5935402 0-1.3829487 0v2.24555374h.6707004.8606334v1.9500861h-.5045092c-.2492869 0-.5816694 0-1.0268246 0v2.4405623c0 .100459 0 .100459.1009018.100459h.7063129.7241191v2.1450948h-.2077391c-.3561241 0-1.0743078 0-2.5047397 0-.7894085 0-1.1811451-.3900173-1.1811451-1.2705107v-7.61124524s0 0-.9912121 0c0 0 0 0 0-2.0505451z"/><path d="m73.352668 6.24027466h.0474832c2.1723572 0 3.4544041 1.17005167 3.4544041 2.93103854 0 1.0695927-.4926384 1.7550775-.9852768 2.2455537.8903103.3900172 1.4779151 1.3650603 1.4779151 2.434653 0 2.0505451-1.5788169 3.3210558-3.8461406 3.3210558 0 0 0 0-.0415478 0h-.1068372v-2.1450948h.2433515c.7894084 0 1.2879822-.4904762 1.2879822-1.2705106 0-.7800345-.4985738-1.2705107-1.2879822-1.2705107 0 0 0 0-.2196099 0h-.0237416v-1.9500861h.0474832c.694442 0 1.0861786-.4904762 1.0861786-1.17005169 0-.68548482-.3917366-1.07550205-1.0861786-1.07550205 0 0 0 0-.0237416 0h-.0237416z"/><path d="m81.8877763 6.24027466h.9971476.1839974v3.12604715c-.0949664.19500861-.1958682.48456685-.1958682.78003449 0 0 0 0-.7894085 2.2455537h.8368917.148385v2.0446357h-.5341862c-.3027055 0-.6469588 0-1.0386953 0 0 0 0 0-.6944421 1.7609869-.1958683.6795755-.5876048.9750431-1.3770133.9750431 0 0 0 0-1.4838505 0 0 0 0 0 0-2.1450948h.4926383c.2018037 0 .2018037 0 .2967701-.100459 0 0 0 0 3.157634-8.68674724z"/><path d="m83.0689213 6.24027466h1.1870805s0 0 3.157632 8.68674724c.0949665.100459.0949665.100459.2908348.100459h.3976719v2.1450948s0 0-1.3829487 0c-.7894085 0-1.181145-.2954676-1.3829468-1.0755021 0 0 0 0-.6885067-1.6605279 0 0 0 0-1.3295301 0h-.2492869v-2.0446357h.9852768s0 0-.7834731-2.2455537c0-.29546764-.1009018-.58502588-.2018037-.78003449z"/><path d="m45.0882827 20.2927135h8.5825916c.7894085 0 1.2820469.3900172 1.2820469 1.2705106v7.4162367c0 .0945496 0 .0945496.1009018.0945496h.7894085v2.1510041s0 0-2.0714554 0c-.8903103 0-1.2820468-.3900173-1.2820468-1.2705107 0 0 0 0 0-7.5107862 0 0 0-.100459-.1009019-.100459 0 0 0 0-3.9470424 0v8.8817559s0 0-2.3682255 0c0 0 0 0 0-8.8817559 0 0 0 0-.9852768 0 0 0 0 0 0-2.0505451z"/><path d="m62.0575976 20.0977049.0474832.0059093v2.2514631l-.0474832-.0118187c-1.7806207 0-3.157634 1.4655192-3.157634 3.3210557 0 1.9500862 1.3770133 3.5101551 3.157634 3.5101551l.0474832-.0118187v2.251463l-.0474832.0059094c-3.157634 0-5.6267613-2.5410213-5.6267613-5.7557088 0-3.1260471 2.4691273-5.5666094 5.6267613-5.5666094z"/><path d="m62.1050808 20.1036142 1.1336618.1063683c2.6531248.5082043 4.5405827 2.7183019 4.5405827 5.4543318 0 2.8128515-1.8874579 5.1115894-4.5405827 5.6375217l-1.1336618.1122777v-2.251463l1.2523699-.2600115c1.181145-.5318417 1.9586827-1.7787149 1.9586827-3.2383249 0-1.394607-.7775377-2.5646587-1.9586827-3.0610442l-1.2523699-.2481928z"/><path d="m68.2719637 20.2927135h2.1723572c.7894085 0 1.181145.3900172 1.181145 1.2705106v7.4162367c0 .0945496 0 .0945496.1009019.0945496h2.8608638s0 0 0-8.7812969h2.3682255v8.7812969h2.8608638c.1009019 0 .1009019 0 .1009019-.0945496 0 0 0 0 0-7.4162367 0-.8804934.3917365-1.2705106 1.181145-1.2705106h2.1723572v2.0505451s0 0-.8903103 0c-.1009018 0-.1009018.100459-.1009018.100459v7.5107862c0 .8804934-.3917366 1.2705107-1.1811451 1.2705107 0 0 0 0-10.5590805 0-.8843749 0-1.2820468-.3900173-1.2820468-1.2705107 0 0 0 0 0-7.5107862 0 0 0-.100459-.0949665-.100459 0 0 0 0-.8903103 0 0 0 0 0 0-2.0505451z"/><path d="m85.1403767 20.2927135h7.4014446c.8903104 0 1.1870805.3900172 1.1870805 1.1700516v1.8555365h-2.1723572s0 0 0-.874584c0-.100459 0-.100459-.1009019-.100459 0 0 0 0-1.3770133 0v8.8817559s0 0-2.3741608 0c0 0 0 0 0-8.8817559 0 0 0 0-1.3770134 0-.1009018 0-.1009018 0-.1009018.100459v.874584s0 0-2.1723553 0c0 0 0 0 0-1.8555365 0-.7800344.2967701-1.1700516 1.0861786-1.1700516z"/><path d="m96.7856339 20.2927135h.9971476.1839974v3.1260471c-.1009018.1950086-.1958682.4845669-.1958682.7800345 0 0 0 0-.7894085 2.2455537h.8309563.1543204v2.0446357h-.5341862c-.3027055 0-.6469588 0-1.0446307 0 0 0 0 0-.6885067 1.6605279-.1958683.7800345-.5935402 1.0755021-1.3829487 1.0755021 0 0 0 0-1.4779151 0 0 0 0 0 0-2.1510041h.4926383c.2018037 0 .2018037 0 .2967701-.0945496 0 0 0 0 3.157634-8.6867473z"/><path d="m97.9667789 20.2927135h1.1811451s0 0 3.163569 8.6867473c.094967.0945496.094967.0945496.29677.0945496h.391737v2.1510041s0 0-1.382949 0c-.789408 0-1.181145-.2954676-1.382948-1.0755021 0 0 0 0-.6885071-1.6605279 0 0 0 0-1.3295301 0h-.2492869v-2.0446357h.9852768s0 0-.7894085-2.2455537c0-.2954676-.0949664-.5850259-.1958683-.7800345z"/><path d="m29.8817823 10.8909346c.1127727-.0354561.2611577.0354561.4095428.2304647 0 0 0 0 6.7070043 6.5357432.3917365.3900172.3917365.9809524 0 1.2705107 0 0 0 0-6.7070043 6.6362022-.1483851.1950086-.2967701.2422834-.4095428.1831899-.1127726-.0590936-.1839974-.2304648-.1839974-.4786575v-13.9519799c0-.2422834.0712248-.3900172.1839974-.4254733z"/><path d="m18.4086499 0h.4748322l.4570259.18909926s0 0 6.9028728 6.83120985c.2967701.39001722.1958683.68548482-.2967701.68548482 0 0 0 0-2.8608639 0-.4926384 0-.8843749.39001722-.8843749.88049343v5.07022394c0 .4904762-.397672.8804934-.9912122.8804934 0 0 0 0-5.0272856 0-.4926384 0-.8903104-.3900172-.8903104-.8804934 0 0 0 0 0-5.07022394 0-.49047621-.3917365-.88049343-.8903103-.88049343h-3.0567321c-.4926384 0-.5935402-.2954676-.2967701-.68548482 0 0 0 0 6.9088081-6.83120985z"/><path d="m7.5943471 10.7432008c.12464345.0590935.20180368.2304647.20180368.4786575v14.2415381c0 .2481928-.07716023.3959265-.20180368.4432014-.11870804.0472748-.29083471 0-.49263838-.1477338 0 0 0 0-6.80790631-6.8312108-.39173655-.2895583-.39173655-.8804935 0-1.2705107 0 0 0 0 6.80790631-6.7307518.20180367-.1950086.37393034-.2422834.49263838-.1831899z"/><path d="m16.1828741 21.9532413h5.0272856c.5935402 0 .9912122.3900173.9912122.8804935v5.3656915c0 .5850258.3917365.9750431.8843749.9750431h2.6649956c.4926384 0 .6885067.2895582.2967701.5850258 0 0 0 0-6.7070045 6.7307518-.2018036.1950086-.4451551.2954676-.694442.2954676-.2433515 0-.4926384-.100459-.6885067-.2954676 0 0 0 0-6.7070044-6.7307518-.397672-.2954676-.2018037-.5850258.2908347-.5850258h2.8608638c.4985738 0 .8903103-.3900173.8903103-.9750431 0 0 0 0 0-5.3656915 0-.4904762.397672-.8804935.8903104-.8804935z"/></g></svg>