<svg height="40" viewBox="0 0 115 40" width="115" xmlns="http://www.w3.org/2000/svg"><g fill="#ff042f" fill-rule="evenodd" transform="translate(-.005 .0025)"><g transform="translate(49.070985 6.53752)"><path d="m8.21500245 1.68713751v5.25451197c0 .1776515.00662055.37406123.01875823.56826411-.14013503-.23613305-.29461459-.48661062-.44578388-.70729571l-4.440184-6.45834914h-2.29181465v9.57221575c0 .09158431-.01986166.11034251-.11034254.11034251h-.94453218v2.2851941h2.32381399c.92136024 0 1.35059274-.428129 1.35059274-1.3450756v-5.23685716c0-.17544464-.00772398-.36964752-.01875823-.56054012.14013503.23723647.29571802.48440377.44688731.69957173l4.45673537 6.44290115h2.27415989v-9.57442257c0-.09158431.0198616-.11034254.1103425-.11034254h.9445322v-2.2851941h-2.32381401c-.91032599 0-1.35059274.44026675-1.35059274 1.34507562m10.70433025-1.68713751c-3.4791004 0-6.2034579 2.67801356-6.2034579 6.09752902 0 3.50999634 2.7254609 6.25752568 6.2034579 6.25752568 3.4791004 0 6.2034579-2.74863276 6.2034579-6.25752568 0-3.41951546-2.7243575-6.09752902-6.2034579-6.09752902m0 9.89441598c-1.9652007 0-3.5033758-1.66727585-3.5033758-3.79688696 0-2.0380268 1.5392785-3.63468342 3.5033758-3.63468342s3.5033758 1.59776004 3.5033758 3.63468342c0 2.12850768-1.5392785 3.79688696-3.5033758 3.79688696m16.8515134-7.26715999h.5384716v-2.28409068h-1.5933463c-.9158431 0-1.2998352.26923581-1.5790018 1.10342545l-2.2245057 6.39986759c-.0794467.22399536-.155583.49323117-.222892.74812245-.0639986-.251581-.1379281-.50095515-.2217885-.74701903l-2.2079543-6.39876416c-.2802701-.83639649-.6642621-1.10673572-1.5801052-1.10673572h-1.5933464v2.2851941h.5384716c.1776515 0 .2107543.02427536.2725461.1953063l3.5000655 9.48835541h2.6007738l3.5022724-9.49056226c.0573781-.16882409.0904809-.19199603.2703392-.19309945m9.9231051 7.20536816-3.4680662-9.48945884h-2.5687745l-3.4868244 9.49497597c-.0628952.18758232-.0816535.18758232-.2526844.18758232h-.5230237v2.2840907h1.5293477c.9158431 0 1.2998352-.2681324 1.5778984-1.0990118l.6708827-1.84382389h3.5353751l.6697792 1.83830679c.2802701.8363965.6631587 1.1045289 1.5812087 1.1045289h1.5116929v-2.2851941h-.5053689c-.1688241.0011034-.1953063.0011034-.2714426-.19199605m-4.7546603-6.09642559c.0772398.28909747.1666173.59695317.2482707.84301704l.8783267 2.55222306h-2.2344365l.8639821-2.55442991c.0827569-.24496045.1688241-.55281615.243857-.84081019"/><path d="m5.52154093 15.6840893h-5.52154093v2.2851941h1.05487473v9.6836617h2.61842858v-3.9601939h1.84823762c2.30505576 0 3.91385006-1.6562416 3.91385006-4.0275029 0-2.3447791-1.6087943-3.981159-3.91385006-3.981159zm-1.84823762 2.2840907h1.4918312c1.00522059 0 1.6043806.6333662 1.6043806 1.6948615 0 1.0979083-.59584974 1.7268608-1.63637993 1.7268608h-1.45983187zm12.49629319-2.627256c-3.4791004 0-6.20456129 2.6780135-6.20456129 6.097529 0 3.5099963 2.72546089 6.2575257 6.20456129 6.2575257 3.477997 0 6.2034579-2.7486328 6.2034579-6.2575257 0-3.418412-2.7254609-6.097529-6.2034579-6.097529m0 9.894416c-1.9652007 0-3.5055827-1.6672759-3.5055827-3.796887 0-2.0380268 1.5392785-3.6346834 3.5055827-3.6346834 1.9640973 0 3.5033764 1.59776 3.5033764 3.6346834.0011028 2.1296111-1.5392791 3.796887-3.5033764 3.796887m11.6874823-5.0371372c-1.0206685-.4358531-1.901202-.8121211-1.901202-1.4598319 0-.5792983.5925394-.983152 1.4410736-.983152.6819169 0 1.2799735.3012351 1.2799735.6444004v.762467h2.4231223v-1.3119729c0-1.8272725-2.2609187-2.508086-3.6876478-2.508086-2.3326414 0-4.0937084 1.4951415-4.0937084 3.477997 0 2.2211954 1.9199602 3.0962118 3.462549 3.8001973 1.0526679.47999 1.9596836.8937746 1.9596836 1.5668641 0 .8209485-.7503293 1.1122528-1.3936263 1.1122528-1.4874175 0-2.5952567-1.2601118-2.6062909-1.2722495l-.1919961-.2206851-1.5282442 1.8658924.1224802.1544796c.0617918.0761364 1.51721 1.8714096 4.1709482 1.8714096 2.0269925 0 4.0771589-1.2446639 4.0771589-3.6236492.002205-2.3668476-1.958582-3.2043475-3.5342736-3.8763336m12.7092543-3.1701413v3.5210306h-4.5891464v-3.5210306c0-.9048089-.4424736-1.3439722-1.3494893-1.3439722h-2.3249175v2.2851941h.9445322c.0915843 0 .111446.0198617.111446.1103425v9.5733192h2.6184286v-4.8175555h4.5891464v4.8175555h2.6184286v-9.5733192c0-.0915843.0198617-.1103425.1125494-.1103425h.9434287v-2.2851941h-2.3238139c-.8959815 0-1.3505928.4524044-1.3505928 1.3439722m15.0573437 1.9916829v-2.0556816c0-.8959814-.3850955-1.2799735-1.2854907-1.2799735h-8.0527989c-.8882575 0-1.2678358.3828886-1.2678358 1.2799735v2.0556816h2.3591236v-.9401185c0-.0982048.0110342-.1103425.1114459-.1103425h1.5238306v9.6836617h2.6184286v-9.6836617h1.5072791c.1004117 0 .1125494.0110342.1125494.1103425v.9401185zm9.5865602 6.3469032c-.1699275 0-.1964097 0-.2725461-.1942029l-3.4680661-9.4894588h-2.567671l-3.4868245 9.4949759c-.0628952.1875824-.0816534.1875824-.2548912.1875824h-.5208168v2.2851941h1.5282442c.9169465 0 1.3009386-.2681324 1.5778984-1.0990118l.6719861-1.8427205h3.5353751l.6686758 1.8372034c.2802701.8363965.6642622 1.1045289 1.5812087 1.1045289h1.5116929v-2.2851941h-.5042655zm-5.0272063-6.2895251c.0783432.2890975.1666172.5969532.2493741.8430171l.8783267 2.552223h-2.23554l.8650856-2.5544299c.0816535-.2449604.1677207-.5517127.2427536-.8408102z"/></g><path d="m32.2602981 27.8744578c0 .5450921.3199933.6752963.7117094.2902009l7.2737805-7.1623346c.3906126-.3861989.3917161-1.0118411.0011034-1.3980401 0 0-.0011034-.0011034-.0011034-.0011034l-7.2737805-7.163438c-.3906126-.3850955-.7117094-.2548913-.7117094.2902009zm-16.5491749-19.45780435c.5528162 0 1.006324.44468045 1.006324.98977262v5.49505873c0 .5450922.451301.9897726 1.0052206.9897726h5.5127135c.5528162 0 1.0019103-.4424736 1.0052206-.9897726v-5.49505873c0-.54509217.4524045-.98977262 1.006324-.98977262h3.1039358c.5517127 0 .6852272-.31557968.2935112-.70067516l-7.5441198-7.42715668c-.3939229-.38509548-1.0272891-.38509548-1.421212 0l-7.5441198 7.42715668c-.3906126.38509548-.2582015.70067516.2935112.70067516zm-7.25502229 3.82447255c0-.5450921-.32109681-.6752963-.71170941-.2902008l-7.45143204 7.3366757c-.39061261.3873024-.39061261 1.0129446 0 1.4002469l7.45143204 7.3377793c.3906126.383992.71170941.2548912.71170941-.2902009zm16.61538039 19.5173893c-.555023 0-1.0052206-.443577-1.0074275-.9919794v-5.8271898c-.0022068-.547299-.451301-.9897726-1.0041171-.9908761h-5.5116101c-.555023 0-1.0052206.4435771-1.0074274.9919795v5.8271898c-.0022069.547299-.4513011.990876-1.0052206.990876h-3.1061427c-.5517127 0-.6852272.3144763-.2935111.6995718l7.3664683 7.2539189c.3939228.383992 1.0283925.383992 1.4223154 0l7.3675717-7.2539189c.3906126-.3850955.2593049-.6995718-.2935112-.6995718z"/></g></svg>