<svg height="40" viewBox="0 0 151 40" width="151" xmlns="http://www.w3.org/2000/svg"><g fill="none" transform="translate(-.000089)"><path d="m48.2448855 7.99893078c-.3105126 0-.5742479.22542239-.6228073.53237105l-3.5942842 22.79394557c-.0264308.1685029.0221756.3401353.1330354.4697573.1108599.1296221.2728769.2042824.44344.2042824h4.2625325c.3100671 0 .5742479-.2258679.6228073-.5323711l1.0558321-6.6936193c.0481139-.3065031.3122946-.532371.6228073-.532371h3.875394c4.5280497 0 8.3718132-3.3038191 9.0739193-7.7806364.7078976-4.5146847-2.8191163-8.45155755-7.8180582-8.46135852zm4.1435843 5.08848722h3.1006716c2.552708 0 3.3840088 1.5062314 3.1211645 3.1719513-.2628443 1.669284-1.5538998 2.8988607-4.0232996 2.8988607h-3.1559134zm20.3984986 1.5493888c-1.0763251.0040654-2.3148117.2245873-3.7052134.8037358-3.1893259 1.3293684-4.7209507 4.0767594-5.371379 6.079722 0 0-2.0702328 6.1109069 2.607059 9.4681857 0 0 4.3378217 3.2320938 9.2209339-.1991379l-.0841992.535935c-.026407.1683492.0220858.3398307.1327456.4694192s.2724313.2043375.4428388.2046205h4.0464655c.3105127 0 .5742479-.2258679.6228073-.5323711l2.4613808-15.6093866c.0266955-.168488-.0216647-.3402212-.1323581-.4700203-.1106934-.1297992-.2726368-.2046681-.4432263-.2049103h-4.0464655c-.3105127 0-.5746935.2258679-.6228073.532371l-.1323132.8402107s-1.7672937-1.9303462-4.9967144-1.9183737zm.1323131 4.9303911c.4646553 0 .8896611.0641518 1.2710081.186664 1.7459097.5604374 2.7358081 2.2377404 2.4493523 4.0558209-.3532805 2.2386315-2.189181 3.886977-4.5436421 3.886977-.4642098 0-.8892156-.0637063-1.2710081-.1862185-1.7454642-.5604375-2.7415995-2.2377404-2.4551438-4.055821.3532805-2.2386314 2.1949725-3.8878679 4.5494336-3.8878679z" fill="#003087"/><path d="m106.516127 7.99893078c-.310512 0-.574248.22542239-.622807.53237105l-3.594284 22.79394557c-.026431.1685029.022175.3401353.133035.4697573.11086.1296221.272877.2042824.44344.2042824h4.262533c.310067 0 .574248-.2258679.622807-.5323711l1.055832-6.6936193c.048114-.3065031.312295-.532371.622807-.532371h3.875394c4.52805 0 8.371368-3.3038191 9.073029-7.7806364.708343-4.5146847-2.818226-8.45155755-7.817168-8.46135852zm4.143585 5.08848722h3.100671c2.552708 0 3.384009 1.5062314 3.121165 3.1719513-.262845 1.669284-1.553455 2.8988607-4.0233 2.8988607h-3.155913zm20.398053 1.5493888c-1.076325.0040654-2.314812.2245873-3.705214.8037358-3.189326 1.3293684-4.72095 4.0767594-5.371379 6.079722 0 0-2.069342 6.1109069 2.60795 9.4681857 0 0 4.336931 3.2320938 9.220489-.1991379l-.0842.535935c-.02643.1685029.022176.3401353.133036.4697573.11086.1296221.272877.2042595.44344.2042824h4.04602c.310513 0 .574248-.2258679.622807-.5323711l2.462272-15.6093866c.02672-.1686416-.021754-.340526-.132648-.4703588-.110893-.1298328-.273082-.20459-.443827-.2045718h-4.046466c-.310513 0-.574693.2258679-.622807.532371l-.132313.8402107s-1.767294-1.9303462-4.996715-1.9183737zm.132313 4.9303911c.464655 0 .889661.0641518 1.271008.186664 1.74591.5604374 2.735808 2.2377404 2.449352 4.0558209-.35328 2.2386315-2.189181 3.886977-4.543642 3.886977-.46421 0-.889216-.0637063-1.271008-.1862185-1.745464-.5604375-2.7416-2.2377404-2.455144-4.055821.353281-2.2386314 2.194973-3.8878679 4.549434-3.8878679z" fill="#0070e0"/><path d="m85.0805075 15.1825988c-.3207591 0-.5488545.3131856-.4508448.6183523l4.436277 13.7663581-4.0112711 6.4873534c-.194683.3149676.0316304.721708.4018399.721708h4.7409981c.2757469-.0002406.5313368-.1445061.6740397-.3804559l12.3897667-20.4960629c.190228-.3149676-.036976-.7176985-.404958-.7176985h-4.7405529c-.2785273.0002385-.5362678.1473978-.6780491.3871384l-4.8768753 8.2337087-2.4756368-8.1726753c-.0806353-.2659628-.3261051-.4481718-.6036508-.4481718z" fill="#003087"/><path d="m146.030533 7.99893078c-.310067 0-.574247.22586788-.622807.53237105l-3.595175 22.79305457c-.02672.1686417.021754.340526.132648.4703589.110893.1298328.273082.2045718.443827.2045718h4.262533c.310067 0 .574248-.2258679.622807-.5323711l3.594284-22.79394555c.026407-.1683492-.022085-.33983066-.132745-.46941915-.11066-.1295885-.272432-.20433753-.442839-.20462052z" fill="#0070e0"/><path d="m12.709229 7.99893078c-.5672336.00046848-1.0499963.41315885-1.1386949.97341485l-1.89203333 11.99995537c.08820877-.5604374.57112943-.9734148 1.13869493-.9734148h5.5442324c5.5798724 0 10.3146335-4.0705225 11.1797922-9.5866885.0643803-.4118258.1008458-.82753302.1091472-1.2442781-1.4180227-.74353748-3.0837427-1.16898882-4.9089512-1.16898882z" fill="#001c64"/><path d="m27.6503675 9.1683651c-.0083014.41674508-.0447669.8324523-.1091472 1.2442781-.8651587 5.516166-5.6003653 9.5866885-11.1797922 9.5866885h-5.5442324c-.56712 0-1.05048616.4125319-1.13869493.9734148l-1.73967277 11.0269861-1.08969004 6.9177052c-.04303982.2704867.03461166.5462489.21246806.7545338.1778564.2082848.43805243.3280284.71194193.3280284h6.01779765c.5672336-.0004686 1.0499964-.413159 1.1386949-.973415l1.5850847-10.0535712c.0887515-.5605891.5720148-.9733844 1.1395859-.9734148h3.5430519c5.5798723 0 10.3146335-4.0705225 11.1797921-9.5866885.6143429-3.9150434-1.3574348-7.4772517-4.7271876-9.2440999z" fill="#0070e0"/><path d="m5.87260461 0c-.56711996 0-1.05048615.41253188-1.13869491.97252386l-4.72228717 29.94464664c-.08954526.5684565.34971655 1.0825621.92530098 1.0825621h7.00279549l1.73878177-11.0269861 1.89203333-11.99995537c.0886986-.560256.5714613-.97294637 1.1386949-.97341485h10.0321873c1.825654 0 3.4909285.42589684 4.9089512 1.16898882.0971187-5.02210786-4.046911-9.1683651-9.7443951-9.1683651z" fill="#003087"/></g></svg>