<svg height="39" viewBox="0 0 40 39" width="40" xmlns="http://www.w3.org/2000/svg"><g fill="none"><path d="m1.59038064 27.7894737c-.11664668 0-.21605494.08588-.23444259.2025143l-1.35321645 8.6645966c-.01896227.1212765.06320756.2344292.18272732.2535781.01149228.0017408.02240995.0029014.03390224.0029014h1.60432285c.11664668 0 .21605493-.0858801.23444259-.2025144l.39763303-2.5444854c.01838765-.1166343.11779591-.2025143.23444259-.2025143h1.45894546c1.70430572 0 3.15118427-1.255705 3.41550681-2.9576379.26662099-1.7164384-1.06131243-3.2129568-2.94317394-3.2164384zm1.56007756 1.934041h1.16704144c.96075494 0 1.27391968.5727268 1.17508604 1.2058017-.09883364.6348158-.58495726 1.1019334-1.51468304 1.1019334h-1.18772755zm7.6785696.5889524c-.4051031.0017628-.87111517.0853217-1.3945887.3052442-1.20036907.5054154-1.77728173 1.549902-2.02206738 2.3112167 0 0-.77917685 2.3228221.98144106 3.5994168 0 0 1.63305352 1.2284323 3.47124442-.0754351l-.0316038.2036749c-.0189623.1212765.0632075.2344292.1827273.2535781.0109177.0017408.02241.0029014.0339022.0029014h1.5233023c.1166467 0 .2160549-.0858801.2344426-.2025144l.9262781-5.9338444c.0189622-.1212765-.062633-.2344292-.1827273-.2535781-.0114923-.0017408-.02241-.0029014-.0339023-.0029014h-1.5233022c-.1166467 0-.216055.0858801-.2344426.2025144l-.0499915.3191487s-.6654032-.734042-1.8807122-.7294218zm.0494168 1.8742951c.1746827 0 .3350001.0243714.4786536.070793.6573587.2129592 1.0297087.8506763.9222558 1.5417783-.1327359.8512565-.8239968 1.4773682-1.7100519 1.4773682-.1746827 0-.335-.0243713-.4786536-.070793-.65678402-.2129592-1.03200709-.8506763-.92397962-1.5417782.13216126-.8506763.82572061-1.4773683 1.71177572-1.4773683z" fill="#003087"/><path d="m23.4851795 27.7894737c-.1166512 0-.2160634.08588-.2344517.2025143l-1.3532692 8.6645966c-.0189631.1212765.06321.2344292.1827344.2535781.0114927.0017408.0224108.0029014.0339036.0029014h1.6043854c.1166512 0 .2160633-.0858801.2344517-.2025144l.3976485-2.5444854c.0183884-.1166343.1178005-.2025143.2344518-.2025143h1.4590023c1.7043722 0 3.1513072-1.255705 3.41564-2.9576379.2666314-1.7164384-1.0607792-3.2129568-2.9427141-3.2164384zm1.5601384 1.934041h1.1670869c.9607924 0 1.2739694.5727268 1.1751319 1.2058017-.0988375.6348158-.5849801 1.1019334-1.5147421 1.1019334h-1.1877739zm7.6782943.5889524c-.4051188.0017628-.8711491.0853217-1.394643.3052442-1.2004159.5054154-1.777351 1.549902-2.0221462 2.3112167 0 0-.7792073 2.3228221.9814793 3.5994168 0 0 1.6325426 1.2284323 3.4708051-.0754351l-.031605.2036749c-.018963.1212765.06321.2344292.1827344.2535781.0114928.0017408.0224108.0029014.0339036.0029014h1.5233616c.1166513 0 .2160634-.0858801.2344518-.2025144l.9268888-5.9338444c.018963-.1212765-.0626354-.2344292-.1827344-.2535781-.0114928-.0017408-.0229855-.0029014-.0344782-.0029014h-1.5233617c-.1166512 0-.2160633.0858801-.2344517.2025144l-.0499934.3191487c.0011493 0-.6642799-.734042-1.880211-.7294218zm.0499934 1.8742951c.1746895 0 .3350132.0243714.4786723.070793.6573843.2129592 1.0297488.8506763.9222918 1.5417783-.1327411.8512565-.8240289 1.4773682-1.7101186 1.4773682-.1746895 0-.3350131-.0243713-.4786723-.070793-.6568096-.2129592-1.0320473-.8506763-.9240156-1.5417782.1321664-.8506763.8257528-1.4773683 1.7118424-1.4773683z" fill="#0070e0"/><path d="m15.3389922 30.7368421c-.1225512 0-.2100878.1159338-.1721553.22904l1.6958762 5.0999576-1.5336417 2.4035063c-.0746979.1164994.0122552.2674961.1534809.2674961h1.8125917c.1056275 0 .2030849-.0537254.2579412-.1408172l4.7363149-7.5933833c.0729472-.1164993-.0140059-.2657995-.1546481-.2657995h-1.812008c-.1062111 0-.2048357.0548565-.2591084.1436449l-1.8645301 3.0504736-.9465627-3.0278524c-.0309296-.0984024-.1248856-.1662661-.2305131-.1662661z" fill="#003087"/><path d="m38.2004456 27.7894737c-.1150677 0-.2131303.0832304-.231269.1962663l-1.3348985 8.3972725c-.0187055.1175348.0617852.2271965.1802538.2457546.0113368.0016871.0226735.0028118.0340102.0028118h1.5826057c.1150677 0 .2131303-.0832304.231269-.1962662l1.3348984-8.3972726c.0187056-.1175348-.0623519-.2271964-.1802538-.2457546-.0107698-.0016871-.0221066-.0028118-.0334433-.0028118z" fill="#0070e0"/><path d="m17.9171787 4.63157895c-.3590702.00056822-.6639302.25456353-.7204721.60004261l-1.1967066 7.39995734c.055959-.345479.3614019-.6000426.7204722-.6000426h3.507347c3.5294975 0 6.5250528-2.50983732 7.0718189-5.91178348.0408035-.25399531.0635368-.51026351.068783-.76709993-.8970928-.4585553-1.9509873-.72107394-3.1051418-.72107394z" fill="#001c64"/><path d="m27.2982254 5.05263158c-.0051728.26164937-.028163.52271987-.0678211.78147489-.5396957 3.46511756-3.4933653 6.02256653-6.9729364 6.02256653h-3.4588799c-.3534747 0-.6552215.2593339-.710398.611287l-1.0851388 6.9273408-.679936 4.3455792c-.0505786.3206942.1661044.6217067.484519.6726473.0304621.004631.0609241.0075253.0919609.0075253h3.7537296c.3540495 0 .6546468-.2593339.7103981-.611287l.9885798-6.3154749c.0551766-.3519531.3569233-.611287.7109728-.611287h2.2099358c3.4801458 0 6.4338154-2.5568701 6.9729363-6.0225665.3833621-2.45961986-.8460404-4.6975324-2.9479221-5.80780562z" fill="#0070e0"/><path d="m13.7718357.00056986c-.353796 0-.6558171.25529658-.7110438.60120064l-2.9483006 18.5181195c-.055802.3516027.2186057.6695837.5775793.6695837h4.3721141l1.0855499-6.8194958 1.1810461-7.42126637c.0552267-.34647393.3566725-.6017705.7110438-.6017705h6.2630536c1.139626 0 2.1791537.26327459 3.0645068.72315034.0604042-3.10572844-2.5266217-5.67009137-6.0835667-5.67009137z" fill="#003087"/></g></svg>