<svg height="41" viewBox="0 0 153 41" width="153" xmlns="http://www.w3.org/2000/svg"><g fill="none" fill-rule="evenodd"><path d="m20.36124.62619897c-10.52985047.075155-19.02670257 8.63181561-19.027998 19.16193423l19.1653614.001683v-1.1989692l19.125-.0016524c-.0142424-.4040569-.0730445-.8053069-.175338-1.19646h-18.949662v-1.197225h18.8259156c-.0761328-.4047768-.165546-.8045046-.266679-1.196613h-18.5592366v-1.1980206h18.2078874c-.133569-.4056948-.2792556-.806157-.4381308-1.197531h-17.7697566v-1.1989692h21.1118274v-1.1973474h-4.5131022c-.2361708-.40800003-.4873152-.80682003-.7534332-1.19646003h5.2665354v-1.199826h-6.1518852c-.3320406-.411417-.6800238-.8135622-1.044684-1.19646h7.1965692v-1.198143h-8.4365118c-.4791552-.4224228-.9798528-.8215284-1.5020928-1.1973168h9.9386046v-1.19646h-11.826747c-.8358836-.46437027-1.7053773-.86547522-2.6011836-1.1999484h14.4279306v-1.1964906h-21.1118274z" fill="#0061af"/><path d="m1.3664124 20.9821146c.0264996.4004622.0625158.8028216.1121184 1.19493l19.0200726.0066708v1.1973168h-18.8263746c.0771936.4047768.1664742.804117.2678418 1.1980206h18.5585328v1.1989692h-18.2084382c.1326204.40392.2800206.8037702.439569 1.19493h17.7688692v1.1989998h-17.2360008l-3.2626026.146421v1.19646l3.8993886-.1454724c.237303.408816.4879782.8094924.7534332 1.1982348l-4.6528218.1461456v1.19646l5.538906-.14382c.3315204.4104684.6804828.8109 1.0444086 1.19646l-6.5833146.1454724v1.198143l7.8227982-.146421c.48042.423351.981954.824517 1.502154 1.1989692l-9.3249522.1449216v1.1982348l11.2151142-.146421c.8356128.4642841 1.7049629.8650607 2.600694 1.1989386l-13.8158082.1464822v1.1956338l20.4986034-.1457172c5.0834958.0039662 9.9599169-2.013724 13.5544435-5.6083483 3.5945267-3.5946242 5.6120845-8.4711001 5.6079865-13.5545957l-19.16243.001683v1.1956644z" fill="#0061af"/><path d="m147.797663.29455616v10.33056004h-10.40657v-10.33056004h-5.20402v24.78502084l-9.843438-24.78502084h-5.935115l-9.21366 23.11218004-.199573-2.6322426c-1.679347.7627433-3.504479 1.1511581-5.34888 1.13832-4.6168058 0-8.7944402-2.5277436-8.7944402-8.7212754 0-5.24028063 3.407616-8.86821663 9.1611202-8.86821663 1.742849-.00851056 3.47137.31502563 5.093155.9533124l.219617-4.39722c-1.832618-.60012346-3.750949-.89690269-5.679238-.8786178-7.215174 0-12.9591 3.5539146-14.0864652 10.63197003-1.0144206-7.50602703-6.6666996-10.63197003-12.407535-10.63197003-4.9929408 0-9.9151344 2.36538-11.7824076 7.9159446-.107253-2.0691414-1.1818332-7.62218461-9.8468658-7.62218461h-7.5843018v25.64922604h5.2032852v-9.6373476h3.3336252c4.5138978 0 7.0323084-2.1867066 8.16408-4.6489356-.0355878.472311-.0572832.9573822-.0572832 1.4617008 0 9.3058578 6.2297928 13.1167818 12.5695926 13.1167818 5.70078 0 11.3113206-3.0853674 12.3831162-10.47591 1.1294766 7.5006414 7.384239 10.47591 13.1577554 10.47591 1.92663-.0057441 3.843245-.2774148 5.695578-.8073198l-.205357.5151204h5.571067l2.161339-5.7904992h10.58913l2.163236 5.7904992h10.722883v-11.1029958h10.40657v11.1029958h5.202337v-25.64922604zm-94.2743156 11.98152184h-2.3810166v-7.95278703h2.3810166c3.0056544 0 4.3601328 1.7222904 4.3601328 3.8476134 0 1.94291643-1.2082716 4.10517363-4.3601328 4.10517363zm21.6290898 10.2964104c-1.9419372 0-7.0727004-.769896-7.0727004-9.4532886 0-8.68571823 5.1307632-9.45561423 7.072884-9.45561423 1.9410192 0 7.07166.769896 7.07166 9.45561423.0003978 8.6833926-5.1306408 9.4532886-7.0718436 9.4532886zm40.4128078-6.631938 3.553272-10.48050003h.073195l3.775337 10.48050003z" fill="#0061af"/><g fill="#000" fill-rule="nonzero"><path d="m96.7927266 32.3141208h-3.7080774v1.7794818c0 1.6602948.02754 2.7817236-.90882 4.1827446h-.5466384v1.9385712h.610776v-1.4093748h4.6924182v1.4093748h.6124896v-1.9385712h-.7520256zm-.6110208 5.9622264h-3.3107058c.871488-1.4925762.8252208-2.7001746.8252208-4.1078664v-1.3267548h2.485485z"/><path d="m48.5199108 38.2746948c-.7299759.0093884-1.4325742-.2775573-1.9472747-.7952796s-.7975284-1.2219882-.7838671-1.9518966c-.01835-.7208433.2580503-1.4179974.765358-1.9304334.5073076-.512436 1.2016464-.7958342 1.9226378-.7847352.8808035-.021165 1.707961.4219741 2.1782916 1.1669922h.760563c-.5498698-1.114597-1.7062343-1.7991467-2.9479122-1.745118-1.6194898.0189364-2.9874758 1.2068918-3.2332401 2.8077371s.7028681 3.1444516 2.2420961 3.6483194c1.5392281.5038677 3.2170185-.1799766 3.965464-1.6162687h-.7615728c-.4644952.7464943-1.281334 1.2004375-2.1605436 1.2006828z"/><path d="m52.452072 38.7416202h.639846v-5.816754h3.319182v5.816754h.63954v-6.3954h-4.598568z"/><path d="m58.347162 32.346067h1v6.395584h-1z"/><path d="m62.37504 32.3462202-2.653938 6.3954h.700128l2.255832-5.59215 2.239002 5.59215h.700128l-2.63619-6.3954z"/><path d="m68.4424998 34.9906416h-1.4691978v-2.6445744h-.63954v6.3955836h2.10834c1.2099852 0 2.0314116-.7598592 2.0311669-1.8753822.0001223-1.1410128-.7342165-1.875627-2.0307691-1.875627zm.0083232 3.1728528h-1.477521v-2.5939926h1.477521c1.1147886 0 1.38312.804474 1.38312 1.2967668 0 .492966-.2683314 1.2972258-1.38312 1.2972258z"/><path d="m75.330774 35.1641742h-3.345192v-2.817954h-.63954v6.3954h.63954v-2.9988h3.345192v2.9988h.639846v-6.3954h-.639846z"/><path d="m77.249394 38.7416202h3.509514v-.578034h-2.869974v-2.351916h2.774808v-.578646h-2.774808v-2.308158h2.869974v-.578646h-3.509514z"/><path d="m84.517506 38.7416202h.638316v-5.816754h3.319488v5.816754h.639234v-6.3954h-4.597038z"/><path d="m90.412168 32.346067h1v6.395584h-1z"/><path d="m98.468658 38.7416202h.638622v-5.816754h3.319488v5.816754h.63954v-6.3954h-4.59765z"/><path d="m106.367895 32.3460672h-2.022079v6.3955836h.63954v-2.567034h1.382172c1.616322 0 2.204516-.95931 2.204516-1.9092564.000122-.7269642-.328797-1.9192932-2.204149-1.9192932zm.00918 3.24972h-1.391535v-2.6708292h1.391474c1.141043 0 1.555796.6573186 1.555796 1.34028-.000062.6657642-.414814 1.3305186-1.555857 1.3305186z"/><path d="m110.10186 37.8346362v-5.488416h-.639234v6.3954h.673812l3.802968-5.487498v5.487498h.63954v-6.3954h-.673812z"/><path d="m118.952512 38.2746948c-1.412602.0231181-2.600388-1.0546739-2.71422-2.4628716h3.906702v-.5788602h-3.906702c.119097-1.3819467 1.28442-2.4378122 2.67138-2.42046.883416-.0328479 1.715892.4132407 2.177802 1.1669922h.760594c-.547868-1.1162299-1.705299-1.8015178-2.947453-1.745118-1.619609.0185009-2.987976 1.2062489-3.234043 2.8071629-.246068 1.6009141.702438 3.1447757 2.24173 3.6488137 1.539293.504038 3.217252-.179793 3.965745-1.6161888h-.760532c-.467503.7435361-1.282716 1.1964217-2.161003 1.2005298z"/><path d="m126.221634 37.7908782-2.350998-5.444658h-.985014v6.3954h.639234v-5.67783l2.428416 5.67783h.535806l2.429334-5.67783v5.67783h.639234v-6.3954h-.98532z"/><path d="m133.922002 38.2746948c-.729997.0094394-1.432631-.2774879-1.947353-.7952196-.514721-.5177318-.797547-1.2220273-.78385-1.9519566-.018213-.7208516.25827-1.4179676.765607-1.9303811.507338-.5124134 1.201667-.7958228 1.922664-.7847875.880819-.0209895 1.707959.4220969 2.178506 1.1669922h.759645c-.549467-1.1147646-1.705846-1.7994222-2.947484-1.745118-1.61949.0189364-2.987476 1.2068918-3.23324 2.8077371-.245765 1.6008453.702868 3.1444516 2.242096 3.6483194 1.539228.5038677 3.217018-.1799766 3.965464-1.6162687h-.761573c-.464488.7464714-1.281296 1.2004105-2.160482 1.2006828z"/><path d="m137.275884 32.9248662h1.460538v5.816754h.63954v-5.816754h1.460844v-.578646h-3.560922z"/><path d="m144.48402 35.3111766c.471101-.2539002.766056-.7446889.769162-1.279845 0-1.6077546-1.451297-1.6852644-2.117704-1.6852644h-1.598942v6.3955836h1.754451c2.091694 0 2.308005-1.30509 2.308005-1.8057366.043855-.7328932-.415353-1.4020515-1.114972-1.6247376zm-2.307821-2.3862492h.959065c.467017 0 1.4785.0262548 1.4785 1.0804248 0 .98532-.94248 1.0804554-1.478286 1.0804554h-.959279zm1.114788 5.238567h-1.114788v-2.4988266h1.114788c.631064 0 1.659316.1127916 1.659316 1.2788964.000061 1.1147886-1.062738 1.2199302-1.659255 1.2199302z"/><path d="m149.609122 32.2342242c-.896174-.027189-1.7646.3126843-2.404253.9409451s-.995075 1.4904399-.983993 2.3869579c0 1.9182834 1.503562 3.2923764 3.388246 3.2923764.898022.022907 1.766669-.3207758 2.405919-.9519085.639249-.6311328.994003-1.4953176.982572-2.3935589-.000245-1.9017594-1.478653-3.274812-3.388491-3.274812zm.008354 6.04044c-1.502629-.0053395-2.718708-1.2234883-2.721498-2.7261238-.00278-1.5026355 1.208776-2.7252837 2.711374-2.736193 1.502599-.0109094 2.73178 1.1940182 2.750813 2.6965358.029993.7379265-.248256 1.4550876-.768091 1.9796884-.519836.5246008-1.234429.8093814-1.972598.7861232z"/></g></g></svg>