<svg height="45" viewBox="0 0 181 45" width="181" xmlns="http://www.w3.org/2000/svg" xmlns:xlink="http://www.w3.org/1999/xlink"><linearGradient id="a" x1="49.994499%" x2="49.994499%" y1="-.020128%" y2="99.970723%"><stop offset="0" stop-color="#fff21f"/><stop offset="1" stop-color="#f9c606"/></linearGradient><mask id="b" fill="#fff"><path d="m0 0h181v44.4176267h-181z" fill="#fff" fill-rule="evenodd"/></mask><mask id="c" fill="#fff"><path d="m3.21570613 0c-1.7758923 0-3.21570613 1.43859468-3.21570613 3.21529975v37.98174425c0 1.776705 1.44022021 3.2165189 3.21570613 3.2165189h149.27654887c6.177017 0 8.444632-1.8726114 11.236481-4.4181925l16.582039-16.1496476c.441209-.4292432.688821-1.0189109.688821-1.6344712 0-.6181037-.247728-1.2104114-.688821-1.6434115l-16.582445-16.13826891c-2.791036-2.55817896-5.058652-4.42957119-11.235668-4.42957119h-149.27654949z" fill="#fff" fill-rule="evenodd"/></mask><mask id="d" fill="#fff"><path d="m0 0h181v44.4176267h-181z" fill="#fff" fill-rule="evenodd"/></mask><mask id="e" fill="#fff"><path d="m0-0h141.784884v26.7623312h-141.784884z" fill="#fff" fill-rule="evenodd"/></mask><mask id="f" fill="#fff"><path d="m0 0h181v44.4176267h-181z" fill="#fff" fill-rule="evenodd"/></mask><g fill="none" fill-rule="evenodd"><g mask="url(#b)"><path d="m0 0h181v44.4176267h-181z" fill="url(#a)" fill-rule="nonzero" mask="url(#c)"/></g><g mask="url(#d)"><path d="m8.69049356 9.15255067c0-.28446788-.23854663-.52016983-.52829748-.52016983h-2.88531701l.44376988-3.19538699.00731489-.08940419c.00000825-.14002679-.05600365-.27423718-.15555048-.37271526-.09954683-.09847807-.23435398-.15303807-.37437253-.15154931h-2.90075955c-.25845939 0-.48115709.19346907-.51732515.45355398l-1.73931786 12.31136323c-.08127654.7058867-.04714039 1.3065203.1219148 1.7953987.16824243.4998507.43157841.8964802.82089301 1.2020799.37102739.3088509.84283767.5364252 1.38454578.6717506.54252088.1438595 1.15819064.2141637 1.82343908.2141637.45433583 0 .93264824-.0284468 1.41339895-.0784319.36745125-.0377373.73065833-.1091544 1.08504175-.2133509.20123479-.0554396.34867455-.2274794.37265292-.4348295l.28649978-2.0859623c.02282426-.1669682-.03475524-.3348833-.15523818-.4527103-.09875099-.093468-.23001259-.1503615-.36574441-.1503615-.02966593 0-.05933187.0052829-.08330845.0081276l-.08127653.0142234-.82983343.0678659c-.42670181 0-.75058881-.0601446-.99157373-.1763701-.24139131-.1137871-.40638268-.277153-.50188261-.4929422-.09346802-.2031913-.14467223-.4592124-.14467223-.7489632 0-.2897509.02438296-.6128251.07518079-.9590632l.00406383-.003251.55755703-3.9671077h3.03080201c.26008492 0 .48237624-.1930318.51691877-.4490529l.30072318-2.10709416c.0024383-.03169785.01015957-.05567443.01015957-.08940419m10.32333915 2.76218305c.0325106.0073149.0739617.0121915.1097233.0121915.1032212 0 .2088807-.0296659.3031615-.093468.1170382-.0812766.197502-.2137573.2170084-.3604615l.3494891-2.53338957c.0203191-.13898288-.0178809-.28609341-.1089106-.39744226-.0861531-.10972332-.216602-.18287221-.3535529-.19506369l-.0950936-.00812765-.6928824-.02925955c-.8749419 0-1.6389414.20115942-2.2745239.59331871-.6331442.39703587-1.2171161.99563756-1.7474455 1.78645821h-.0536425l.2084743-1.44794144.0024383-.08940419c0-.28446788-.2308254-.52016983-.5282975-.52016983h-2.8922255c-.2621168 0-.4823762.18856156-.5226081.44905286l-1.6499137 11.7911934c-.0208815.1500464.02416737.30179.12354034.4161359.10159567.1145999.24586152.1828722.39703587.1828722h2.90563619c.2625232 0 .4827826-.1966893.519357-.4535231l.6778463-4.9143857c.0861532-.6290804.2031914-1.2191481.353553-1.7393179.1491424-.5282975.3677763-.985478.6502122-1.3605692.2734956-.3819997.663623-.6778463 1.1394971-.8859142.4685592-.2129446 1.0911375-.3251062 1.8449773-.3251062.2954402 0 .5803145.0215383.8464951.0690851l.2710573.0487659m12.6283417-1.8843965c-.375904-.56893572-.9062334-.98750988-1.6267499-1.28295009-.7087313-.29015723-1.6580413-.43726776-2.8178574-.43726776-1.0646459.00185922-2.1219977.17572874-3.1311786.51488685-.8452759.28243596-1.63122.68800588-2.3468599 1.205331-.1158191.0788383-.1901871.2153828-.208068.3543657-.0215688.1448966.0215108.2919614.117851.4023189l1.1021098 1.3321224c.099281.1215619.2478054.1922452.4047572.1926254.1230154-.0007823.2418377-.0448012.3356721-.1243531.373872-.3108828.7843185-.5673102 1.2057374-.774159.5737308-.2708633 1.2007746-.4099904 1.8352241-.4071955.6855676 0 1.2504395.2105063 1.6913648.6209528.4462081.422638.6209527.9639397.5274847 1.6783604l-2.7573065.0792446c-1.0062035.0528298-1.9888368.2275743-2.9097.512855-.919644.2925955-1.7287519.7457122-2.407411 1.3491905-.6835356.609574-1.0919502 1.4572883-1.2549097 2.5736215v.0040638c-.0812765.6502123-.0377936 1.2280885.1353255 1.7206243.1788083.4965996.4482401.9021695.8371483 1.238248.3718401.3320146.8310526.5843783 1.3516288.7518079.5295166.1682425 1.0996715.2552084 1.6921774.2552084.8148523-.000362 1.6223852-.1537905 2.3805898-.452304.7721271-.2982849 1.4320925-.7916334 1.9620155-1.4792329h.0479532l-.1353254 1.0167694c-.0188557.1503536.0282699.3015111.1292296.4145104.1015957.1137871.2426105.1820594.3917529.1820594h2.5927215c.2641488 0 .4864401-.1962828.5209826-.4527103l.8330845-6.0794848c.159302-1.0667546.2031914-2.019722.1475169-2.8365511-.0556744-.8168292-.2816232-1.5158074-.6453357-2.0725517m-4.2597032 5.8112723h.9773503l-.1056594.845276c-.0528298.4031316-.1881552.7607483-.3941912 1.0586268-.211319.2954403-.471404.5486167-.7830995.7375846-.304787.1930318-.6514314.3413615-1.0265226.4490529-.379155.1085041-.7668441.1576764-1.1492502.1576764-.211319 0-.433204-.0203191-.6502123-.0780254-.2048254-.0461074-.3971611-.1362431-.5636528-.2641488-.1561557-.1143028-.2834794-.2634733-.3718401-.4356422-.0894042-.1633658-.1137872-.3710274-.0792447-.6156698v-.0121914c.0552681-.4388933.2365148-.7749718.568123-1.0240844.3259189-.2462679.7046676-.4323912 1.1350268-.5534932.4319762-.1211733.8754564-.1967665 1.323182-.2255424l1.1203971-.0390127m19.3954261-5.7901404c-.2641488-.55268045-.6770336-.96719078-1.2671012-1.28173098-.5795017-.3072253-1.3817011-.46083795-2.3773387-.46083795-.4738422 0-.9265525.06502123-1.3483777.1828722-.3978475.11331459-.7807831.27361007-1.1407162.47749965-.3213274.18683231-.6211422.40842267-.8940419.66077823-.2641487.24708067-.4770933.49375495-.6331442.73961645h-.0528298l.1495489-1.13055658c.0105659-.02925956.0105659-.05364252.0105659-.0869659-.0022364-.28921033-.2382713-.52197208-.5274847-.52016982h-2.7422703c-.266587 0-.4888784.18856156-.5282975.44905286l-1.6397541 11.79485084c-.0260085.1503616.0203191.3027551.121102.4161359.100783.1133807.2462679.1828722.3974423.1828722h2.8995404c.2641488 0 .4868465-.1934382.5222018-.4531167l.8359291-5.9486297c.0516106-.4161358.1300425-.8278015.2340764-1.208582.112568-.3901274.2690254-.7388038.4770933-1.0500929.2125381-.3039742.4896911-.5526804.8371483-.7343335.3401423-.1861232.7700952-.2795913 1.2825438-.2795913.5022889 0 .8875397.1068787 1.1329949.3251062.2426104.2031913.4157294.4819698.4998507.8127653.0902169.3320147.1162254.7001974.0800573 1.0964205l-.1292297 1.1451864-.791227 5.6974851c-.0186936.1475169.0256021.3007232.1231339.4145104.099701.1149042.2440961.181252.3962231.1820594h2.9031979c.2641487 0 .4892847-.1930318.5282975-.4527103l.914361-6.6321653c.121102-.8534036.1747445-1.666169.1625531-2.4029408-.0203192-.7363654-.159302-1.3845458-.427921-1.9311305m11.1775556-1.37357342c-.8144945-.24432586-1.6602815-.36858908-2.5106322-.36858908-.6672804 0-1.3410629.08249568-2.0042794.24992534-.6528086.15753359-1.2750996.4218562-1.8417263.78228666-.5551187.34542527-1.0293673.8074824-1.4109606 1.3471586-.3815934.5396762-.6311123 1.1972033-.7383974 1.9506368v.0069085c-.1267914.803825-.0568935 1.4564755.2088807 1.9384454.2698381.4892847.6274549.8534036 1.0939822 1.12568.4665273.2600849.9822269.4632763 1.5349074.5916932l1.5625414.3746848c.4844081.1137872.8798185.249519 1.1882629.4214189.3039743.167836.4360486.420606.3787487.7461186v.0081276c-.048766.3507083-.2702445.592506-.653057.7249867-.3872827.1312616-.8127653.2031914-1.2691331.2031914-.5973825 0-1.1114566-.1186638-1.520684-.3576168-.2763402-.1568637-.5282975-.3673699-.7599356-.6205464-.0975318-.1015956-.2291998-.1645849-.373872-.167836h-.0138171c-.1373573 0-.2702444.0503915-.370621.1462978l-1.9803027 1.9018709c-.0995638.1015957-.1605212.2438296-.1605212.3893146.0028447.1462978.0650212.2828423.1727126.3819997.4876592.4397061 1.0578141.7538399 1.7474455.9533738.8777866.2560211 1.7771115.3860635 2.6719662.3860635.6827228 0 1.3947053-.0650212 2.1140026-.2003466.6968186-.1229776 1.3700851-.3543015 1.995339-.6855676.6034783-.3242934 1.1358396-.7599356 1.5710754-1.2996118.4388933-.5282975.7152335-1.219148.8196739-2.045324.1056595-.8066696.0304787-1.45485-.2222913-1.9376326-.2568339-.488472-.6111996-.8720973-1.0728503-1.1488439-.4689577-.2903863-.9824103-.501808-1.5198712-.6258293l-1.5458797-.3677763c-.474655-.1219148-.8716909-.2499254-1.1894821-.3990678-.3177913-.1491424-.4462082-.3795614-.3954104-.6924761v-.0073149c.0568936-.3941912.2438296-.6583399.5799081-.8229249.3344529-.1544254.6697187-.2344828 1.0053907-.2344828.7883824 0 1.3947054.2243232 1.8571689.6965399.099661.100584.2355279.1569512.3771231.1564573.1270482.000168.2500322-.0447629.3470508-.1267914l1.9262539-1.6905519c.1150063-.098751.1788084-.2426105.1788084-.38850184.0040638-.14954882-.0609574-.29665935-.1682424-.39541034-.447021-.41451034-.9753185-.70791863-1.6121201-.89648019m23.5328081 1.47110527c-.4356422-.5884421-1.0171759-1.0504992-1.7157477-1.36382025-.703042-.31291466-1.5214967-.47546773-2.4313875-.47546773-.982227 0-1.9457603.16255307-2.8568703.47546773-.9111099.31291467-1.7368795.77537815-2.452113 1.36382025-.7192974.5835655-1.3349671 1.2975799-1.8124668 2.127007-.4811571.820893-.8030122 1.7555731-.9403695 2.7731553-.1414212 1.0135184-.0845276 1.948605.1723062 2.7735618.2531765.8241441.661591 1.5426287 1.2191481 2.1294453.557557.5868165 1.2597863 1.0435907 2.0774282 1.3613819.8127654.3141338 1.7385051.4754678 2.722764.4754678 1.0350567 0 2.0818984-.2206658 3.1100466-.6599655.8318653-.3563976 1.5848924-.8424313 2.2326664-1.4536308.1088699-.1055729.1691831-.2515016.1666169-.4031317-.0051545-.1495351-.0744511-.2896091-.1901871-.384438l-1.6661689-1.35935c-.0975319-.0804638-.2153829-.1190702-.3364849-.1190702-.1300425 0-.2584594.0499851-.3689955.1487361-.3033763.2986298-.6401913.5612636-1.0037652.782693-.4823762.2844679-1.0590332.4348295-1.7068072.4348295-.7705016 0-1.4008011-.2243232-1.8624518-.6778463-.4632763-.4470209-.7233612-1.0533439-.7770037-1.806371h8.746168c.258053 0 .4823762-.1934382.5177315-.4498656l.1219148-.7924463v-.0040638c.1430467-1.0139248.1247595-1.9486049-.0406383-2.7690915-.1735254-.8302399-.4770932-1.5442542-.9159865-2.1278197m-4.9147921 1.0171758c.7286441 0 1.2768544.2316381 1.6653562.7152335.3901274.4766869.5303294 1.0370886.422638 1.7149349h-5.2285196c.0638021-.3161657.1926254-.6242038.3677764-.9131419.1779956-.2844678.398255-.5465847.6571208-.7639994.2657742-.2214786.5758442-.4039444.9265525-.5457719.3503018-.136951.7477441-.2031914 1.1886693-.2031914m17.5825529-2.77071707c-.0272276-.00325106-.0666467-.00325106-.0922488-.00609574l-.6920697-.03007232c-.8712845 0-1.6377222.20522325-2.2668026.59413147-.6359889.39541035-1.219148.99970139-1.7494774 1.78930296h-.0499851l.2003467-1.44794151c.0060957-.03129146.0060957-.05526804.0060957-.08859142 0-.29177064-.2365268-.52829748-.5282975-.52829748h-2.8934447c-.2641487 0-.4900975.19303177-.5282974.45433583l-1.6499137 11.79403808c-.0223511.1503616.0215383.2990976.1243531.4214188.0999701.1085042.2438296.1771829.3954103.1771829h2.904417c.2630581-.0009246.4846963-.1966615.5181379-.4575869l.680691-4.9070708c.0812766-.6319251.2092871-1.2215864.3519274-1.74582.1552382-.5250465.3677764-.9858844.6514315-1.3593501.2844678-.3807806.6624037-.6758144 1.1358395-.8891653.4730295-.2105062 1.0984524-.3153529 1.8449774-.3153529.2986913 0 .5892549.0227574.8534036.069085.0909583.0116602.1813896.0271162.2710573.0463276.0398255.013817.0739616.0174745.1097233.0174745.1097233 0 .216602-.0406383.2999104-.0975319.1216973-.0844527.202348-.2161184.2222913-.3628997l.353553-2.52688747c.0180562-.14245791-.0204618-.28631673-.1072851-.40069332-.0894041-.10972333-.2194466-.18002753-.3649316-.20034666m26.4433204-5.66416177c-1.013518-.91232911-2.222913-1.58489244-3.601769-1.99127512-1.633659-.48887836-3.495704-.73961647-5.517458-.73961647-1.981928 0-3.88258.31454019-5.648719.93468016-1.763701.61770167-3.355095 1.52556057-4.725418 2.68212567-1.381701 1.15981616-2.5333895 2.58053-3.4554718 4.22922453-.9167993 1.64584984-1.5304371 3.50870805-1.8165305 5.54184055-.2820296 2.0262241-.1999403 3.8890823.2543955 5.5349321.4486465 1.6458498 1.2110204 3.0706275 2.2635515 4.2263798 1.0476546 1.1525013 2.3895303 2.0591411 3.9752353 2.6805002 1.584893.614857 3.399798.9330546 5.374817.9330546 1.87433-.0006018 3.743584-.1947995 5.578009-.5795017 1.713716-.3494891 3.439623-.9241142 5.113513-1.6994923.220666-.104034.365745-.3076317.408415-.5526805l1.703962-12.104108c.031698-.2031914-.034948-.4185742-.17068-.5709677-.13817-.1572701-.333234-.2499253-.542115-.2499253h-8.514936c-.356455.0008819-.659134.2613063-.713202.6136378l-.544552 3.7480674c-.031698.2031914.031291.4128848.169055.5754379.132887.1523935.325106.2413913.538457.2413913h3.73872l-.568935 4.1451033c-.552681.285687-1.300425.5673102-2.228603.8420249-.931835.2763403-2.025818.4145104-3.241715.4145104-1.197609 0-2.2603-.2031914-3.163282-.6071358-.911923-.4145103-1.662918-.9818205-2.250141-1.7120902-.585191-.7286441-1.002953-1.5999286-1.239467-2.5927215-.240985-.985478-.276341-2.0985601-.109724-3.2916997.163366-1.167131.51123-2.2708664 1.029368-3.269755.51001-1.00213966 1.168756-1.88073901 1.957951-2.60897677.789196-.72823776 1.706808-1.30367563 2.734956-1.70924554 1.025303-.40882097 2.148139-.61119955 3.343716-.61119955 1.43128 0 2.617105.20237858 3.524964.61119955.696692.31256824 1.33153.74781537 1.874237 1.28498203.134919.13817011.325106.20928708.502289.20928708.17637 0 .353553-.06624038.487659-.19506369l3.49611-3.30673585c.144672-.13573181.228387-.32510614.224845-.53114216-.002554-.19587645-.093583-.38443801-.238662-.52098259m17.922289 10.62040489c-.306413-.9899482-.800574-1.8498539-1.474356-2.5602109-.685974-.7046675-1.529218-1.25978626-2.514696-1.63447109-.999702-.38525078-2.103437-.56893575-3.283572-.56893575-1.183387 0-2.337514.1877488-3.437185.56893575-1.075339.36661621-2.07764.91990429-2.960904 1.63447109-.862344.7111697-1.598303 1.5743265-2.180243 2.5602109-.581128.9956376-.959063 2.1196921-1.132589 3.3445294-.170681 1.2240247-.097532 2.3472664.203191 3.3445295.308039.9883227.800574 1.8522922 1.465416 2.5602109.664842.7054803 1.506867 1.2597863 2.499254 1.6336583.990354.3819997 2.096122.5750315 3.277476.5750315 1.185825 0 2.339952-.1930318 3.437998-.5750315 1.099265-.3779359 2.094902-.9277716 2.966593-1.6377222.866814-.7071058 1.606837-1.5714818 2.195686-2.5593981.593318-.9976694.975318-2.1213176 1.146812-3.3453422.171493-1.2240246.103221-2.3488919-.208475-3.3445294m-4.565303 3.3445294c-.169055 1.1630672-.646961 2.1131899-1.422339 2.830049-.772127.7225484-1.771016 1.0850417-2.974721 1.0850417-1.203706 0-2.100999-.3624933-2.657743-1.0850417-.560808-.7132016-.755872-1.6669818-.590474-2.8304554.172306-1.1622544.640459-2.1131899 1.401208-2.8333.761154-.7140144 1.759637-1.0785396 2.960497-1.0785396 1.200861 0 2.103437.3645252 2.673998 1.0785396.571374.7205165.770096 1.666169.609574 2.8337064m-63.5371185-15.18083129c-.0812766-.11866374-.2040042-.1970956-.3413615-.22229132-.1889679-.03251062-.3836252-.05282975-.5835655-.07192974-.3948011-.03784231-.7912502-.05588122-1.1878566-.05417562-1.0675673 0-1.9668922.13667131-2.6520533.41260514-.6973527.26821257-1.2597863.64818038-1.6824243 1.12039705-.4246699.47302943-.7371782 1.02814817-.9379313 1.6515392-.2031913.61892082-.3543656 1.28823309-.4600251 1.99127512l-.0040639.00325106-.2105062 1.51377548c-.2031913 1.49711378 1.8880539 2.13188352 1.8880539 2.13188352s-2.2676153.5961634-2.462679 1.970956l-1.2406863 8.9022189c-.0174745.1495489.0243829.3023487.1247595.4161359.1003765.1137871.2409849.1828722.3974422.1828722h2.8966957c.2665871 0 .4929422-.1938445.5291103-.4531167l1.2825437-9.2216357h2.4764961c.2600849 0 .4811571-.1930318.5189506-.4490529l.3060062-2.12416223c.0170022-.15081786-.0301907-.30183485-.1300425-.41613586-.0991573-.1150063-.2454551-.1759637-.398255-.1759637h-2.3269472l.2938147-2.0432921c.1219148-.83836747.3624933-1.40323939.7127952-1.6775477.3507083-.2673998.8513717-.40922735 1.4792329-.40922735.2446424 0 .4612444.02316381.6473677.06705314.0203191.00325106.0381999.01056595.0658339.01788084.0406383.01015956.0812766.01503616.1243531.01503616.1000703-.00067084.1981934-.02772476.2844679-.07843186.1202893-.08005739.2084743-.20481687.2373275-.34664443l.4413316-2.25298556c.027634-.14223394 0-.28568702-.0837148-.40638268" fill="#fff" fill-rule="nonzero" mask="url(#e)" transform="translate(12.461725 9.971818)"/></g><path d="m21.1522184 18.5440544c0-.2844679-.2385467-.5201699-.5282975-.5201699h-2.885317l.4437699-3.1957934.0073149-.0894041c.0000082-.1400268-.0560037-.2742372-.1555505-.3727153-.0995469-.0984781-.234354-.1530381-.3743726-.1515493h-2.9007595c-.2584594 0-.4811571.1930627-.5173252.453554l-1.735254 12.3158334c-.0812765.7058867-.0471404 1.3057075.1219148 1.7945859.1682424.5014762.4315784.8968866.820893 1.2028927.3710274.3076317.8428377.5364252 1.3845458.6729697.5425209.142234 1.1581906.2125382 1.8234391.2125382.4543358 0 .9326482-.0268213 1.4133989-.0780255.3657444-.0382.7314889-.1097233 1.0850418-.2133509.2016114-.0556066.3491419-.228235.3726529-.4360486l.2864998-2.0847431c.0256021-.1674297-.0386064-.3401423-.1552382-.4527103-.098751-.0934681-.2300126-.1503616-.3657444-.1503616-.0296659 0-.0593319.0040638-.0833085.0069085l-.0812765.0150361-.8298334.0678659c-.4267018 0-.7505888-.0597382-.9915738-.1747445-.2409849-.1150063-.4063826-.2783721-.5018826-.4941613-.093468-.2023786-.1446722-.4592125-.1446722-.7489633 0-.287719.024383-.6128251.0751808-.957844l.0040638-.0040638.5575571-3.966295h3.030802c.2600849 0 .4823762-.1926253.5169187-.4490528l.3007232-2.1070942c.0024383-.0316979.0101596-.0568936.0101596-.0894042m10.3233392 2.7625895c.0362385.006355.0729339.0097528.1097233.0101595.1032212 0 .2088807-.0284468.3031615-.0926552.1190476-.0855401.1975542-.2163844.2170083-.3616806l.3494891-2.5333896c.0203191-.1389829-.0178808-.285687-.1089106-.3982551-.0861531-.1097233-.2166019-.1808402-.3535529-.1942509l-.0950935-.0081276-.6928825-.0284468c-.8749419 0-1.6389413.1999403-2.2745238.5933187-.6331443.3958167-1.2171162.9956376-1.7474456 1.7848327h-.0536425l.2084743-1.4467223.0024383-.0894042c0-.2844679-.2308253-.5201698-.5282974-.5201698h-2.8962894c-.2621168 0-.4823762.1885615-.5226081.4494592l-1.6499137 11.790787c-.0211319.1495488.024383.3035679.1235404.4161359.1000617.114987.2446132.1815664.3970358.1828722h2.9056362c.2625232 0 .4827826-.1962828.519357-.4535231l.6778463-4.9147921c.0861532-.628674.2031914-1.2134587.353553-1.7380987.1491424-.5295166.3677763-.9875099.6502123-1.3621947.2734955-.381187.6636229-.67744 1.139497-.8842887.4685592-.2137573 1.0911375-.3251062 1.8449773-.3251062.2954402 0 .5803145.0215383.8464952.0674595l.2710572.0512043m12.6283417-1.8843965c-.375904-.5705613-.9062334-.9895418-1.6267498-1.2841693-.7087314-.2905636-1.6580414-.4368614-2.8178575-.4368614-1.0484673 0-2.1034368.1714935-3.1311786.5152933-.8395049.279148-1.6310544.6858195-2.3468599 1.2057374-.1158191.0812765-.1901871.2137573-.208068.3527401-.0203191.1471106.0211319.2942211.1219148.4043508l1.1021099 1.3309033c.0992809.1215619.2478054.1922452.4047571.1926254.1219148 0 .2365147-.0426702.3356721-.1247595.3696048-.305209.774393-.5651084 1.2057374-.774159.5689358-.2690253 1.1866374-.4076018 1.8352242-.4076018.6855676 0 1.2504395.2100998 1.6913647.6217655.4462082.4226379.6209527.9631269.5274847 1.6775477l-2.7573065.0788382c-1.0062035.0528297-1.9888368.2275743-2.9096999.5140741-.919644.29097-1.7287519.7436803-2.407411 1.3491905-.6835357.6124187-1.0919503 1.45485-1.2549097 2.5724023v.0040638c-.0812766.6502123-.0377936 1.2272757.1353254 1.7202179.1788084.4957869.4482401.9037951.8371483 1.238248.3718402.3332338.8310526.5851911 1.3516288.7530271.5295166.1682425 1.0996715.254802 1.6921775.254802.8149407-.000234 1.6225469-.1539521 2.3805897-.4531167.7721271-.2966594 1.4320926-.7912271 1.9620156-1.479233h.0479531l-.1353254 1.0171759c-.0174745.1536126.0284468.304787.1292297.4145103.1015957.1137872.2426104.1816531.3917529.1816531h2.5927215c.2623808.0008542.4849827-.1924032.5209826-.4523039l.8330845-6.0794849c.159302-1.0671609.2031913-2.0197219.1475169-2.8365511-.0556745-.8168292-.2816232-1.5158074-.6453357-2.0713325m-4.2576713 5.8112723h.9773503l-.1056595.845276c-.0528297.4063826-.1881552.7599356-.3941912 1.0578141-.211319.2958466-.4714039.5486166-.7830994.7396164-.304787.1918127-.6514314.3413615-1.0265227.4482401-.3739385.1054553-.7607278.1583858-1.1492502.1572874-.211319 0-.4332039-.0203364-.6502123-.0780427-.2048253-.0461074-.3971611-.1362432-.5636527-.2641488-.1633659-.121102-.2856871-.2669934-.3718402-.4348294-.0894042-.1641786-.1137871-.3710274-.0792446-.6164826v-.0130042c.055268-.4388933.2365147-.7745654.568123-1.0240844.3259189-.2450487.7046675-.4319847 1.1350268-.5526804.4317699-.1220173.8753547-.1974921 1.323182-.225136l1.120397-.0394191m19.3933942-5.7901404c-.2641487-.5526805-.6770335-.9671908-1.2671012-1.2809182-.5795017-.3088509-1.3817011-.460838-2.3773387-.460838-.4738422 0-.9265525.0642085-1.3483777.1812467-.4242635.1227276-.8005739.2864998-1.1407162.4795316-.3251061.192219-.6298931.4136975-.8940419.6599654-.2641487.2462679-.4770932.4925358-.6331442.7388037h-.0528297l.1495488-1.1305566c.010566-.0284468.010566-.0536425.010566-.0865595-.0022364-.2892103-.2382714-.5219721-.5274848-.5201698h-2.7422703c-.266587 0-.4888783.1881552-.5282974.4490528l-1.6486946 11.7907871c-.0256021.1495488.0203192.3035678.1219148.4161358.0997372.1154194.2444957.1820942.3970359.1828722h2.8995404c.2641488 0 .4868465-.1934381.5222018-.453523l.8359291-5.9470041c.0494747-.4081367.1276945-.8122725.2340764-1.2093949.1121617-.3889082.2682126-.7396165.4766869-1.0504992.215673-.308773.5029068-.56073.8371483-.7343335.3401423-.1861233.7700952-.2787785 1.2825438-.2787785.5018826 0 .8871334.1076914 1.1325885.3251061.2426105.2031913.4157295.4819699.4998507.817642.0902169.3312018.1162254.6997909.0800574 1.0952013l-.1292297 1.1459991-.7912271 5.6966724c-.0190406.1492679.0254902.2996698.1227276.4145103.0991574.1145999.2438296.1820638.3962231.1820638h2.9031978c.2635346.0010558.4875453-.1922662.5250465-.453121l.9135482-6.6321653c.1219148-.8534036.1747446-1.6649498.1625531-2.4009089-.0191-.7367718-.1625531-1.3817011-.4267018-1.9323496m11.1779619-1.375199c-.820893-.2466743-1.6677945-.3673699-2.5106322-.3673699-.6672803 0-1.3410628.0820893-2.0042793.2499253-.6745953.1637722-1.2841693.4275146-1.8417263.7822867-.5551188.3454252-1.0293674.8066696-1.4109607 1.3459394-.3807806.5417081-.6311123 1.1980161-.7383973 1.9522624v.005283c-.1267914.8034185-.0568936 1.4572882.2088807 1.9400709.2698381.4876592.6274548.8558419 1.0939822 1.1240544.4665273.260085.9822269.4632763 1.5349073.5916932l1.5625414.3750912c.4844082.112568.8798185.2487062 1.188263.4218253.3039742.167836.4360486.4193869.3787486.7457122v.0073149c-.0487659.3507082-.2702445.5920995-.6530569.7249867-.3872827.1308552-.8127654.2031913-1.2691331.2031913-.5973826 0-1.1114567-.1219148-1.520684-.356804-.2763402-.1572701-.5282975-.3677763-.7599356-.6205463-.0970288-.1040443-.2316655-.1649234-.3738721-.1690552h-.013817c-.1377415-.0006267-.2704458.0517566-.370621.1462977l-1.9803028 1.901871c-.0995637.1015956-.1605211.2438296-.1605211.3893146.0028446.1462977.0650212.2836551.1727126.3819997.4876592.439706 1.0578141.7542462 1.7474455.9537801.8777866.2560211 1.7771115.3860636 2.6719661.3860636.6827229 0 1.3947054-.0650213 2.1140027-.2003467.6967913-.1232998 1.3700292-.354751 1.9953389-.6859739.6034783-.3251062 1.1358396-.7587165 1.5710755-1.2996119.4388933-.5282974.7152335-1.219148.8196738-2.0457304.1056595-.8066696.0304787-1.4548499-.2222913-1.9384453-.2438783-.4749075-.6154252-.8723501-1.0728503-1.1476247-.4695525-.2892208-.9828085-.5005615-1.5198712-.6258293l-1.5458797-.3677764c-.4746549-.1219148-.8716908-.2503317-1.1894821-.3994741-.3157593-.1462978-.4462082-.3791551-.3954103-.6924761v-.0081277c.0568936-.3933784.2438296-.6554952.5799081-.820893.3344529-.1560509.6697186-.2344828 1.0053907-.2344828.7883824 0 1.3947054.2243233 1.8571688.6908506.0990581.1017201.2351397.1589096.3771232.1584892.1270371-.000296.2499104-.0453303.3470508-.1271978l1.9262539-1.6905519c.1150063-.0995638.1788083-.2438296.1788083-.3901274.0040639-.148736-.0609574-.2958466-.1682424-.3950039-.4470209-.4145104-.9753184-.7071059-1.6121201-.8964802m23.5328081 1.4731372c-.4356422-.5892549-1.0171758-1.051312-1.7157476-1.3642267-.7030421-.3121019-1.5214968-.4746549-2.4313876-.4746549-.9822269 0-1.9457602.162553-2.8568702.4746549s-1.7368796.7745654-2.4521131 1.3642267c-.7192973.585191-1.3349671 1.2996118-1.8124667 2.1266005-.4811571.8225186-.8030122 1.7555732-.9403695 2.7743746-.1414212 1.0127056-.0845276 1.9477922.1723062 2.772749.2531764.8241441.661591 1.5434414 1.219148 2.1306644.5575571.5872229 1.2597863 1.0444035 2.0774283 1.3613819.8127653.3129147 1.7385051.4754678 2.7227639.4754678 1.0350567 0 2.0818985-.221885 3.1100467-.6607783.8318653-.3563976 1.5848924-.8424313 2.2326664-1.4520053.108565-.105947.1688109-.2518596.1666169-.403538-.0052158-.1499777-.0744559-.2905292-.1901871-.3860635l-1.666169-1.3573182c-.0942023-.0790314-.2135265-.1218325-.3364848-.1206956-.1300425 0-.2584594.0507978-.3689955.1491424-.3037804.2984036-.6405358.5612637-1.0037652.7835058-.4823763.2873126-1.0590333.4340167-1.7068073.4340167-.7705015 0-1.4008011-.2235104-1.8624518-.6770335-.4632762-.4462082-.7233611-1.0537503-.7770037-1.8067774h8.746168c.2600737-.0005375.4804347-.1916669.5177316-.4490528l.1219148-.7924463v-.0040638c.1430467-1.0143312.1247595-1.9473858-.0406383-2.7699043-.1735254-.8278015-.4770933-1.5426287-.9159866-2.1274133m-4.9188559 1.0171758c.7286442 0 1.2768544.2316381 1.6653562.7144207.3901274.4774997.5303294 1.0379014.422638 1.7157477h-5.2285195c.0638021-.3161657.1926254-.6246102.3677763-.9127355.1779956-.2893445.398255-.5469911.6571208-.7648122.2657743-.2214785.5758442-.4063827.9265525-.5453655.3503019-.1361382.7477441-.2031914 1.1886693-.2031914m17.5825528-2.7707171c-.027227-.0040638-.066647-.0040638-.092249-.0073149l-.692069-.0284468c-.871285 0-1.637723.2031914-2.266803.5933188-.635989.3954103-1.219148.9997013-1.749477 1.7880837h-.049985l.200346-1.4467223c.006096-.0325106.006096-.0568936.006096-.0894042 0-.1401132-.05566-.2744877-.154735-.3735627s-.233449-.1547348-.373563-.1547348h-2.8934442c-.2641488 0-.4900975.1930318-.5282975.4539295l-1.6499137 11.7940381c-.022351.1503616.0215383.2990976.1243531.4214188.0999702.1097233.2438296.1775892.3954104.1775892h2.904417c.2629219-.0008978.4845099-.1964162.5181379-.4571805l.680691-4.9074772c.081277-.6319251.209287-1.2215863.351927-1.74582.155239-.5250464.367777-.9846652.651432-1.3573181.284468-.3807806.662404-.67744 1.135839-.8911972.47303-.2105063 1.098453-.3137275 1.844978-.3137275.298691 0 .589255.0211319.853403.0670532l.271058.046734c.039825.0146298.073961.0182872.109723.0182872.109723 0 .216602-.0406383.29991-.0975318.122728-.0845276.200753-.2174148.222292-.3633062l.353553-2.5277002c.017837-.1421897-.02067-.2857148-.107285-.3998806-.089405-.1097233-.219447-.1808403-.364932-.2031913m26.443321-5.6657873c-1.013519-.9115163-2.222913-1.5816414-3.60177-1.9912751-1.633658-.48887838-3.495704-.73961649-5.517458-.73961649-1.981928 0-3.88258.31535296-5.648719.93589929-1.763701.6177017-3.355095 1.5239351-4.725418 2.6772491-1.381701 1.1598162-2.533389 2.58053-3.455471 4.2263798-.9168 1.6450371-1.530438 3.5083017-1.816531 5.5406215-.28203 2.0270368-.19994 3.8890822.254396 5.5357448.448646 1.6458499 1.21102 3.0710339 2.263551 4.2288182 1.047655 1.1529076 2.38953 2.0603601 3.975235 2.6809065 1.584893.6152634 3.399798.9330546 5.374818.9330546 1.874318-.0008045 3.743552-.195 5.578008-.5795017 1.713716-.3494891 3.439623-.9233014 5.113514-1.6994923.220665-.1036276.365744-.3064126.408414-.5526805l1.703963-12.104108c.031698-.2031914-.034949-.4185742-.170681-.5705613-.13817-.1625531-.333234-.2511445-.542114-.2511445h-8.514937c-.356455.0008819-.659133.2613064-.713201.6136378l-.544553 3.7476611c-.031698.2080679.031291.4145103.169055.5754378.13558.1553911.33224.2438512.538457.2422041h3.738721l-.568936 4.1451033c-.55268.2852807-1.300425.5677166-2.228603.8412122-.931835.2775594-2.025817.4145103-3.241714.4145103-1.19761 0-2.260301-.2031913-3.163283-.6063229-.911923-.4145104-1.662918-.9806014-2.250141-1.7124966-.585191-.7266123-1.002952-1.5995223-1.239467-2.591096-.240985-.985478-.27634-2.0981538-.109723-3.2925125.163366-1.167131.511229-2.2700536 1.029367-3.2701614.51001-1.0017333 1.168757-1.8799262 1.957952-2.6089768.789195-.7290505 1.706807-1.3036756 2.734955-1.7092455 1.025304-.4084146 2.148139-.6111995 3.343717-.6111995 1.43128 0 2.617104.2031913 3.524963.6107931.696519.3128765 1.331305.7480879 1.874237 1.284982.134919.1381702.325106.2088807.502289.2088807.17637 0 .353553-.0662403.487659-.1950636l3.49611-3.3055167c.146451-.1379482.228029-.3311983.224826-.5323614-.002534-.1962828-.093564-.3840316-.238643-.5213889m17.922289 10.6212176c-.306412-.9891354-.800574-1.8490411-1.474356-2.5622427-.685974-.7058868-1.529218-1.2597863-2.514696-1.6356903-.999701-.3852508-2.103437-.5689358-3.283572-.5689358-1.183386 0-2.337513.1877488-3.437185.5689358-1.098452.3795614-2.092871.9298035-2.960904 1.6356903-.862344.7095441-1.598303 1.5727009-2.180243 2.5622427-.581127.9956376-.959063 2.1196921-1.132589 3.3445295-.17068 1.224431-.097531 2.3488919.203192 3.3445294.308038.9891355.800574 1.8539178 1.465416 2.5602109s1.506867 1.2569416 2.499253 1.6336584c.990355.3828124 2.096122.5754378 3.277476.5754378 1.185825 0 2.339952-.1926254 3.437998-.5754378 1.099265-.3767168 2.094903-.9265526 2.966593-1.6377222.866815-.7058868 1.606838-1.5706691 2.195686-2.5593981.593319-.9964504.975319-2.1213176 1.146812-3.3445295.169055-1.2256501.103221-2.3488919-.208474-3.3453422m-4.565303 3.3445295c-.169056 1.1638799-.646962 2.1131899-1.42234 2.8312681-.772127.7209228-1.771015 1.084229-2.974721 1.084229-1.203705 0-2.100998-.3633062-2.657743-1.0850418-.560808-.7132016-.755871-1.6669817-.590474-2.8304553.172307-1.1634737.640459-2.11319 1.401208-2.8345192.761155-.713608 1.759637-1.0777269 2.960498-1.0777269 1.20086 0 2.103436.3641189 2.673998 1.0777269.571374.7217356.770095 1.6710455.609574 2.8345192m-63.5249277-15.1735165c-.0812766-.1219148-.2040041-.1970956-.3413615-.2218849-.1889679-.0325106-.3836252-.0528298-.5835655-.0715234-.3852508-.0394191-.7863505-.0544552-1.1878566-.0544552-1.0675673 0-1.9668921.1369509-2.6520533.4116656-.6973527.2682126-1.2597863.6493995-1.6824243 1.1216162-.4261577.4779735-.7458643 1.0410615-.9379312 1.6519456-.2031914.6185144-.3543657 1.2890458-.4600252 1.9961517l-.0040639.0024383-.2105062 1.5145882c-.2031913 1.4971138 1.8880539 2.1314772 1.8880539 2.1314772s-2.2676153.595757-2.462679 1.9697368l-1.2443437 8.8997807c-.0174745.1503616.0243829.3035678.1247594.4161358.0994984.1159666.2446413.1828722.3974423.1828722h2.8966957c.2665871 0 .4929422-.1934381.5291103-.4531167l1.2825437-9.2200102h2.476496c.2600849 0 .4811571-.192219.5189507-.4490528l.3060062-2.1241623c.0171198-.1509531-.0300805-.3021415-.1300425-.4165422-.0991574-.1150063-.2454551-.1755573-.398255-.1755573h-2.3269472l.2938147-2.0428857c.1219148-.8379611.3624933-1.4028331.7127952-1.6771414.3507082-.2690253.8513717-.4063826 1.4792329-.4063826.2446424 0 .4612444.0235702.6473676.0666467.0203192.0040638.0382.010566.065834.0182872.0406383.0093468.0812766.0142234.1243531.0142234.1001511-.000082.1984257-.0271777.2844679-.0784318.1217043-.0791976.2070479-.2034135.2373275-.3454253l.4413316-2.2542047c.027634-.1422339 0-.2860934-.0837149-.4063827" fill="#404041" fill-rule="nonzero" mask="url(#f)"/></g></svg>