<svg height="48" viewBox="0 0 280 48" width="280" xmlns="http://www.w3.org/2000/svg"><g fill="none"><path d="m4.63541023 0 6.15670227 10.3095795-10.7921125 10.292926h18.65848l1.7537779-4.1252591h-10.2949505l6.2294286-6.1950259-3.6387016-6.15815081h16.9762362l-14.9029393 35.20387731h5.1063431l16.6638705-39.327947z" fill="#00c6ff"/><g fill="#38517e"><path d="m231.071862 24.1163509h4.255087v22.5200138h-4.255087z"/><path d="m230.87872 16.5034159h4.642564v4.567761h-4.642564z"/><path d="m223.783728 16.5046054-5.289947 23.4073964h-.191949l-5.481898-15.7932718h-3.805614l-6.256851 15.7932718h-.193142l-4.191899-23.4073964h-4.579374l5.738227 30.1317593h4.257471l6.77309-16.6830337h.191948l5.871759 16.6830337h4.255087l7.288133-30.1317593z"/><path d="m164.576139 43.3390121c-4.127518 0-6.965038-3.2366869-6.965038-7.9305371 0-4.3762482 2.450044-8.1208607 6.449992-8.1208607 4.579376 0 5.804993 3.807657 5.933755 6.1557717h-7.916442l-1.481948 3.4258209h13.71905c.063188-.8897619.063188-1.1419403.063188-1.5868213 0-6.4709949-3.288184-11.6085365-10.383176-11.6085365-6.126896 0-10.83384 4.9460288-10.83384 11.7346259 0 6.9789202 4.51261 11.6085364 10.962602 11.6085364 3.871187 0 7.288133-1.3941187 9.353085-3.8683226l-2.579997-2.4753934c-1.676283 1.7140998-3.869996 2.6657167-6.321231 2.6657167"/><path d="m147.742971 23.6726597c0-2.7906167 1.354379-4.3774378 3.934376-4.3774378.968095 0 2.515616.2545575 3.741234.6994385l1.353187-3.1094082c-1.676283-.8243382-3.675661-1.1419403-5.223182-1.1419403-4.321853 0-8.061895 2.1566018-8.061895 7.9293478v.6982489h-2.837519v3.5530995h2.837519v18.7123566h4.25628v-18.7123566h4.32066l1.484333-3.5530995h-5.804993z"/><path d="m109.367306 23.6726597c-2.837519 0-5.417516 1.080085-6.707515 3.2997315h-.191949v-2.8548507h-4.1287107v22.5188242h4.2562797v-12.1771276c0-4.441672 2.258093-7.1073887 5.806185-7.1073887 3.351373 0 5.351943 1.7759551 5.351943 5.8988352v13.3856811h4.25628v-14.1457851c0-5.7085118-3.352565-8.8179199-8.642513-8.8179199"/><path d="m89.1803807 37.946913c0 3.3603971-2.7731388 5.5181883-6.6431341 5.5181883-2.3212818 0-4.3206601-1.0777061-4.3206601-3.7434228 0-2.4718249 2.0637591-4.1216907 5.2243744-4.1216907 2.8375195 0 4.7081365.5067361 5.7394198 1.2680295zm-5.9981348-14.2742533c-2.5144239 0-4.9012788.3794571-6.7063227 1.077706l.70938 3.4281999c2.0637589-.6352044 3.7400415-.8897619 5.4175163-.8897619 3.6112803 0 6.5775612 1.6498659 6.5775612 5.3290546v.6340147c-1.1600447-.4425017-2.9662809-1.0146614-5.6106584-1.0146614-5.8049929 0-9.6094153 2.9178953-9.6094153 7.6759798 0 4.9484077 3.7400416 7.1680541 7.9319404 7.1680541 3.4837111 0 5.8693736-1.3941187 7.0961835-3.0451739h.1919498v2.6026722h4.1287105v-14.08393c0-6.1522032-3.9987568-8.8821541-10.1268453-8.8821541z"/><path d="m36.5515449 16.5046054v4.0610251h9.5450345v26.0707342h4.5161869v-26.0707342h9.5450345v-4.0610251z"/><path d="m74.1534491 24.5612319c-1.3543791-.5709702-2.8375197-.6340147-3.6768532-.6340147-2.3868547 0-4.7069443.9516167-5.9337544 2.6621482h-.1931421v-2.4718249h-4.127518v22.5200136h4.2574718v-12.3067853c0-4.7580845 2.3212818-6.6613182 5.73942-6.6613182 1.161237 0 1.9349976.1272787 2.9674732.3806467z"/><path d="m192.631816 24.6242765c-1.354379-.5697807-2.83752-.6982489-3.676852-.6982489-2.385663 0-4.96566.9516169-6.188893 2.6657169h-.196719v-2.4753936h-4.126326v22.5200138h4.257471v-12.3055959c0-4.7580845 2.578805-6.6601287 5.996943-6.6601287 1.161237 0 1.934998.1248997 2.967474.3794572z"/><path d="m270.197442 43.3390121c-4.12871 0-6.965037-3.2366869-6.965037-7.9305371 0-4.3762482 2.451234-8.1208607 6.4488-8.1208607 4.580568 0 5.804993 3.807657 5.934947 6.1557717h-7.917634l-1.483141 3.4258209h13.721433c.06319-.8897619.06319-1.1419403.06319-1.5868213 0-6.4709949-3.288184-11.6085365-10.383177-11.6085365-6.126895 0-10.835033 4.9460288-10.835033 11.7346259 0 6.9789202 4.513803 11.6085364 10.963796 11.6085364 3.871187 0 7.289326-1.3941187 9.353083-3.8683226l-2.581188-2.4753934c-1.676283 1.7140998-3.868803 2.6657167-6.320039 2.6657167"/><path d="m131.040949 33.634899c-3.289377-.444881-5.224375-1.0800852-5.224375-3.236687 0-1.9662784 1.934998-3.1712633 4.321853-3.1712633 1.933805 0 4.385041.762483 5.93137 1.9044233l2.064951-3.0463636c-1.933805-1.5868212-5.03004-2.4099698-7.933133-2.4099698-4.965659 0-8.642512 2.9821294-8.642512 6.9134968 0 4.5059059 2.903092 5.9642587 7.805563 6.7255523 2.773139.4436914 5.158802.7612936 5.158802 3.1082187 0 1.9662784-1.93619 3.045174-4.513802 3.045174-2.515617 0-4.77371-.6982489-6.967423-2.4111593l-1.869424 3.3615866c1.611902 1.4595425 4.966851 2.6014828 8.706893 2.6014828 5.159994 0 8.900035-2.9809399 8.900035-6.9777308 0-4.8211292-3.868803-5.8988352-7.738798-6.4067607"/><path d="m248.819473 33.642036c-3.289375-.4448809-5.224373-1.0800851-5.224373-3.236687 0-1.9662784 1.934998-3.1712632 4.323045-3.1712632 1.932612 0 4.385041.762483 5.931369 1.9044233l2.064952-3.047553c-1.934998-1.5856317-5.03004-2.4087804-7.933134-2.4087804-4.965658 0-8.641319 2.9809401-8.641319 6.9134969 0 4.5047164 2.901901 5.9630693 7.801987 6.7243627 2.77433.444881 5.161186.7612936 5.161186 3.1082186 0 1.9662784-1.934998 3.0463636-4.514996 3.0463636-2.515615 0-4.772516-.6982488-6.966229-2.4123488l-1.868234 3.3639658c1.610711 1.4583528 4.963276 2.6002931 8.705702 2.6002931 5.158802 0 8.898843-2.9821294 8.898843-6.9777309 0-4.821129-3.868803-5.9000246-7.738799-6.4067607"/></g></g></svg>