<svg height="41" viewBox="0 0 150 41" width="150" xmlns="http://www.w3.org/2000/svg"><g fill="none" transform="matrix(1 -0 -0 -1 0 40.120998)"><path d="m26.3638903 17.0884749c-.0010435.0002609-13.2839491 3.0061337-13.2839491 3.0061337-3.9591564.8959575-6.44276777 4.8319617-5.54707115 8.791379.89621835 3.9594173 4.83222255 6.4425069 8.79137905 5.5468103 3.9594173-.8960227 6.4427678-4.8319617 5.5470059-8.7911181-.4488265-1.9822848-1.6597191-3.5930909-3.25396-4.5965919-.0002608 0-.0041087-.0032609-.0056087-.0040435-.0468913-.0336522-.0772175-.0884349-.0772175-.1500654 0-.0863479.0596088-.1589349.1401524-.1783045.0002608-.0002609 5.9090281-1.3364363 5.9100716-1.3364363.1406088-.0318913.2865655.0223696.3729786.1365002.0004565.0010435.0002609.0002609.0002609.0002609 1.6278278 2.1540023 2.6056332 4.8416791 2.6056332 7.7486822 0 6.8460074-5.3486144 12.4407525-12.0950347 12.8381225-.0601305.0033261-.4257396.0176087-.5492615.0193696-2.987025.0468914-6.01559343-.8096096-8.64923104-2.6540246-6.65090542-4.656918-8.26682195-13.8232975-3.61039302-20.4739785l11.81784096-16.87780429c.0504783-.06878394.1317393-.11336621.2229133-.11336621.0919566 0 .1734785.04534655.2236959.11463991 0 0 11.6048603 16.54972589 11.6059038 16.55122589.0295435.0438261.0471522.0970435.0471522.1541088 0 .1309567-.0909783.240522-.2132611.2685003" fill="#fabc26"/><path d="m37.7339026 32.218926c.142174 0 .2364133-.047087.2835655-.1415871l3.9405042-6.7245725h.1885437l3.350808 6.6305289c.0705652.1653263.2124784.2356307.4012178.2356307h2.40672c.2124784 0 .3301307-.2124133.2356306-.377283l-6.9372465-12.2702741c-.0705653-.1413915-.2119568-.2124785-.4010222-.2124785h-2.3595026c-.2596307 0-.2830437.1653263-.1885436.3541308l1.8637846 3.1856774-5.5684625 9.0135097c-.094761.1651306-.023674.3067177.1413914.3067177z" fill="#2c2e2c"/><path d="m52.684223 32.218926c.2124785 0 .3304569-.1176523.3304569-.3301308v-5.046462l5.3096144 5.1881143c.1413914.1181741.3536091.1884785.6131746.1884785h2.8787639c.2124133 0 .2835003-.1884785.1179132-.3538047l-5.6397452-5.2856796 5.993876-6.8664205c.1650654-.1648697.071087-.3541308-.1413914-.3541308h-2.8316118c-.2595655 0-.4481092.071087-.5902832.2364133l-4.4902875 5.2966361-1.220023-1.1347186v-4.0676783c0-.2124785-.1179784-.3306525-.3304569-.3306525h-2.0762631c-.2124785 0-.3301308.118174-.3301308.3306525v12.1992523c0 .2124785.1176523.3301308.3301308.3301308z" fill="#2c2e2c"/><path d="m70.1126765 25.3762447c1.4393494 0 2.2650025.8964792 2.2650025 2.1470241 0 1.2271969-.8256531 2.1000022-2.2650025 2.1000022h-3.4219602v-4.2470263zm0 6.8429422c2.8545683 0 5.0015272-2.0527849 5.0015272-4.6959181 0-2.7370465-2.1469589-4.7427443-5.0015272-4.7427443h-3.4219602v-3.0909816c0-.2122176-.1180436-.3303916-.3300003-.3303916h-2.0769153c-.2122176 0-.3304569.118174-.3304569.3303916v12.1992523c0 .2124785.1182393.3303917.3304569.3303917z" fill="#2c2e2c"/><path d="m88.012261 32.218926c.2119568 0 .3306525-.1176523.3306525-.3301308v-12.1992523c0-.2124785-.1186957-.3306525-.3306525-.3306525h-2.0771761c-.2113046 0-.3300004.118174-.3300004.3306525v9.9576629h-5.7104409v-9.9576629c0-.2124785-.1180436-.3306525-.3300004-.3306525h-2.0765239c-.212609 0-.3306526.118174-.3306526.3306525v12.1992523c0 .2124785.1180436.3301308.3306526.3301308z" fill="#2c2e2c"/><path d="m93.5400931 25.7774625c0-2.3360894 1.6513061-4.0345478 4.0108738-4.0345478 2.3367417 0 3.9887001 1.6984584 3.9887001 4.0345478 0 2.3832417-1.6519584 4.0584827-3.9887001 4.0584827-2.3595677 0-4.0108738-1.675241-4.0108738-4.0584827m4.0108738 6.6307898c3.7050041 0 6.7493551-2.8552857 6.7493551-6.6307898 0-3.7989171-3.044351-6.6071158-6.7493551-6.6071158-3.7278301 0-6.771529 2.8081987-6.771529 6.6071158 0 3.7755041 3.0436989 6.6307898 6.771529 6.6307898" fill="#2c2e2c"/><path d="m113.462071 21.9308714v9.9581847c0 .2119567.117391.3298699.330653.3298699h2.028915c.212609 0 .330652-.1179132.330652-.3298699v-9.9581847h4.035005v9.9581847c0 .2119567.117391.3298699.33.3298699h2.029567c.212609 0 .330001-.1179132.330001-.3298699v-12.1995132c0-.2124785-.117392-.3306525-.330001-.3306525h-15.479364c-.165 0-.330653.118174-.330653.3306525v12.1995132c0 .2119567.117392.3298699.330653.3298699h2.028915c.212609 0 .330653-.1179132.330653-.3298699v-9.9581847z" fill="#2c2e2c"/><path d="m135.989487 32.218926c.211304 0 .33-.1176523.33-.3301308v-1.9348717c0-.2124784-.118696-.330196-.33-.330196h-4.106092v-9.9341846c0-.2124785-.118696-.3306525-.330652-.3306525h-2.076524c-.211957 0-.330001.118174-.330001.3306525v9.9341846h-4.106091c-.211957 0-.330653.1177176-.330653.330196v1.9348717c0 .2124785.118696.3301308.330653.3301308z" fill="#2c2e2c"/><path d="m140.658405 24.3849393h4.483048l-2.075872 5.2854187h-.259565zm5.427397-2.4774809h-6.418703l-.896088-2.2650025c-.070435-.1890654-.211956-.2833046-.401087-.2833046h-2.33609c-.235435 0-.306522.118174-.235435.3303916l5.568267 12.3406437c.046957.1181741.141522.1890003.307175.1890003h2.689568c.165 0 .259565-.0708262.306522-.1890003l5.309353-12.2932306c.071087-.1893263-.046956-.3778047-.259565-.3778047h-2.241524c-.235435 0-.40174.118174-.495653.3303916z" fill="#2c2e2c"/><g fill="#617171"><path d="m36.7665972 8.33329158v5.50709292h3.623156v-.6343703h-2.8953292v-4.87272262z"/><path d="m42.1742986 11.0945989c0-1.37693627.7507835-2.26630679 1.9198065-2.26630679 1.1535664 0 1.9043498.89752271 1.9043498 2.26630679 0 1.3611536-.7507834 2.2428937-1.9198716 2.2428937-1.3005014 0-1.9042847-1.0671533-1.9042847-2.2428937zm4.5522441.0387392c0-1.61693655-.890414-2.93145971-2.6400681-2.93145971-1.7649149 0-2.639742 1.34582754-2.639742 2.94698141 0 1.7165888 1.0294577 2.8229378 2.6318507 2.8229378 1.7109149 0 2.6479594-1.1986317 2.6479594-2.8384595"/><path d="m52.423614 8.33329158h-.727566v4.87272262h-2.0360239l-.108261-3.1013512c-.0387392-1.10641418-.4415222-1.88752372-1.2773492-1.88752372-.1551523 0-.3871961.05426093-.5265658.10852186v.61878327c.1008914-.06215224.309783-.077674.3946309-.077674.3948265 0 .6817181.21678285.7201964 1.61693649l.1006305 3.3566776h3.4603081z"/><path d="m54.8684862 11.0945989c0-1.37693627.7507834-2.26630679 1.9198716-2.26630679 1.1533056 0 1.9042847.89752271 1.9042847 2.26630679 0 1.3611536-.7509791 2.2428937-1.9198064 2.2428937-1.3005666 0-1.9043499-1.0671533-1.9043499-2.2428937zm4.5517223.0387392c0-1.61693655-.889827-2.93145971-2.6394811-2.93145971-1.765241 0-2.6403289 1.34582754-2.6403289 2.94698141 0 1.7165888 1.0299793 2.8229378 2.6324376 2.8229378 1.7109149 0 2.6473724-1.1986317 2.6473724-2.8384595"/><path d="m61.8452546 8.94444441h1.4556537c.7352617 0 1.4551973.04610874 1.4551973 1.01295761 0 .95915318-.8437836.95152368-1.57898.95152368h-1.331871zm0 2.53689399h1.3083927c.6193702 0 1.3627189.0463697 1.3627189.8737836 0 .8280009-.642979.866414-1.292871.866414h-1.3782406zm1.6413931 2.3590461c.9135662 0 1.7568932-.363783 1.7568932-1.3767407 0-.5413049-.3170221-1.0057184-.8125444-1.1833056.6812616-.1551523 1.0603707-.6651529 1.0603707-1.39252321 0-1.26841441-1.0371533-1.55452341-2.0898283-1.55452341h-2.2683286v5.50709292z"/><path d="m71.5963738 8.33329158h-.7278269v2.57563322h-2.9106553v-2.57563322h-.7278269v5.50709292h.7278269v-2.2968938h2.9106553v2.2968938h.7278269z"/><path d="m75.660726 13.1443837-.952175-2.5450462h1.8893499zm2.5780462-4.81109212h-.8126095l-.6117398 1.68600182h-2.3145677l-.6267398-1.68600182h-.7747835l2.1678284 5.50709292h.8204357z"/><path d="m87.2120428 8.33329158h-.7278269v4.87272262h-2.9106553v-4.87272262h-.7278269v5.50709292h4.3663091z"/><path d="m89.6635671 11.0945989c0-1.37693627.750653-2.26630679 1.9193499-2.26630679 1.1536969 0 1.9043499.89752271 1.9043499 2.26630679 0 1.3611536-.750653 2.2428937-1.9193499 2.2428937-1.3010883 0-1.9043499-1.0671533-1.9043499-2.2428937zm4.5515267.0387392c0-1.61693655-.8902184-2.93145971-2.6393507-2.93145971-1.7654367 0-2.6400028 1.34582754-2.6400028 2.94698141 0 1.7165888 1.0291315 2.8229378 2.6321767 2.8229378 1.710654 0 2.6471768-1.1986317 2.6471768-2.8384595"/><path d="m95.9283565 13.8403845h.7278269v-4.87298354h2.4463069v4.87298354h.7271747v-4.87298354h2.446307v4.87298354h.727827v-5.50709292h-7.0754425z"/><path d="m108.980979 13.2060142h-1.850219v-4.87272262h-.727827v4.87272262h-1.850219v.6343703h4.428265z"/><path d="m111.799026 13.1443837-.951523-2.5450462h1.888698zm2.578698-4.81109212h-.813262l-.611739 1.68600182h-2.314568l-.62674-1.68600182h-.774783l2.167828 5.50709292h.820436z"/><path d="m121.13621 11.6280777 2.415002-3.29478612h-.928696l-1.997611 2.80004652-.913045-.8666749v-1.93337162h-.727827v5.50709292h.727827v-2.7304595l2.794569 2.7304595h.952175z"/><path d="m125.815563 11.2028599h1.400871c.705 0 1.246958.1933698 1.246958 1.0052619 0 .882001-.627392 1.0057837-1.347393 1.0057837h-1.300436zm1.540436 2.6375246c1.053262 0 1.834567-.4407396 1.834567-1.5856322 0-1.2454578-.804783-1.6630452-1.880871-1.6630452h-1.494132v-2.25841552h-.727827v5.50709292z"/><path d="m132.411004 13.1443837-.952174-2.5450462h1.888697zm2.578047-4.81109212h-.81261l-.61174 1.68600182h-2.314567l-.627392-1.68600182h-.774132l2.167177 5.50709292h.821087z"/><path d="m137.950576 14.3121676h-.697175v.7811095h.697175zm-.720001-5.97887602h-.727827v5.50709292h.727827zm-.743479 5.97887602h-.696523v.7811095h.696523z"/><path d="m143.610147 8.33329158h-.727175v2.57563322h-2.910655v-2.57563322h-.727827v5.50709292h.727827v-2.2968938h2.910655v2.2968938h.727175z"/><path d="m145.613627 13.8403845h.727827v-4.66409201h.015l2.70196 4.66409201h.92087v-5.50709292h-.727174v4.67961372h-.015653l-2.709785-4.67961372h-.913045z"/></g></g></svg>