<svg height="41" viewBox="0 0 157 41" width="157" xmlns="http://www.w3.org/2000/svg" xmlns:xlink="http://www.w3.org/1999/xlink"><mask id="a" fill="#fff"><path d="m0 0h156.391545v40h-156.391545z" fill="#fff" fill-rule="evenodd"/></mask><g fill="none" mask="url(#a)" transform="matrix(1 0 0 -1 0 40.025)"><g transform="translate(.000011)"><path d="m26.2924121 17.0421463c-.0012357.0002602-13.2476748 2.9979838-13.2476748 2.9979838-3.94894304.8935284-6.42536581 4.8188618-5.53203247 8.7675447.89326829 3.9486829 4.81860167 6.4253008 8.76754467 5.5317724 3.9484228-.8933334 6.4253009-4.8186017 5.5314472-8.7672846-.4471545-1.9769106-1.6552195-3.5833496-3.2446179-4.5841301 0 0-.0040975-.0029918-.0058536-.0040325-.0465041-.033561-.0770082-.0881951-.0770082-.1496585 0-.0861139.0597073-.1585041.1397724-.1778212 0 0 5.8932683-1.332813 5.8943089-1.332813.1399675-.0318049.2852683.022309.3717073.1361301.0007155.0010406 0 .0002602 0 .0002602 1.623935 2.1481626 2.5988293 4.8285528 2.5988293 7.7279349 0 6.8274472-5.334374 12.4067642-12.0622439 12.8035773-.0597073.0027967-.4248455.0170406-.5480325.0190569-2.9784065.046504-5.99876424-.8076748-8.62577562-2.6470895-6.63236683-4.6442926-8.24440976-13.7858211-3.60009756-20.4184715l11.78580808-16.83204684c.0498212-.06859746.1308618-.11305886.222309-.11305886.0917073 0 .1730081.04522361.2228293.11407545 0 0 11.5733983 16.50511155 11.5746991 16.50660745.0294635.0439675.0467643.0967805.0467643.1536911 0 .1306016-.0909919.2398699-.212683.2677723" fill="#fabc26"/><g fill="#617171"><path d="m37.1427536 13.8035772v-3.4689431c0-1.05873166.4250407-1.54575605 1.483252-1.54575605 1.1127805 0 1.4837724.53352845 1.4837724 1.54575605v3.4689431h.7342439v-3.2761626c0-1.5451707-.5485528-2.34120322-2.2180163-2.34120322-1.5912195 0-2.2172357.74165854-2.2172357 2.26426012v3.3531057z"/><path d="m44.9938756 11.5937561 2.4106016-3.29144716h-.9270894l-1.9934309 2.79674796-.9118049-.8647805v-1.93196746h-.726374v5.50126826h.726374v-2.7276097l2.7893984 2.7276097h.9501788z"/><path d="m49.5889325 11.2614634h1.3681301c.7108943 0 1.444878.0695935 1.444878.9737886 0 .8186017-.6029268.9499838-1.2517724.9499838h-1.5612357zm1.6925528 2.5421138c1.0353171 0 1.8465691-.3404227 1.8465691-1.5223414 0-.641496-.3787967-1.1740488-.9425691-1.3363903.772813-.1623414.8035773-.6874796.8343415-1.35239022.0236097-.44026016.0236097-.99668292.3170731-1.29014634h-.8346016c-.177626.27824391-.1702764.89613008-.1854959 1.21320326-.0465041.9270894-.286309 1.166374-1.2825366 1.166374h-1.4453333v-2.37957726h-.7256586v5.50126826z"/><path d="m57.1214203 13.1079675-.9501789-2.5416586h1.8851382zm2.5726829-4.80565856h-.8109919l-.6107317 1.68448781h-2.3102439l-.6254959-1.68448781h-.7726179l2.1628618 5.50126826h.8193171z"/><path d="m61.1455504 8.30230894h.7258666v5.50126826h-.7258666z"/><path d="m64.6872089 13.8035772 2.9049756-4.46595118v4.46595118h.7030894v-5.50126826h-.8188618l-2.8895609 4.41164226v-4.41164226h-.6956098v5.50126826z"/><path d="m74.1313715 13.1702114h-3.0829268v-1.7227968h2.8819512v-.6107967h-2.8819512v-1.9006179h3.1219512v-.63369106h-3.8478049v5.50126826h3.8087805z"/><path d="m75.9427536 11.5317724-.0773984 2.1480975h.5021139l-.0695935-2.1480975z"/><path d="m81.6806398 12.188748c-.0845529.7960325-.5560976 1.1201951-1.3678049 1.1201951-.7876423 0-1.2429268-.3320325-1.2429268-.9118699 0-.6178862.6406504-.7494634 1.4907317-.9268293.8969106-.1859512 2.0390244-.4634146 2.0390244-1.62269918 0-1.22074797-1.0887805-1.66920326-2.1398374-1.66920326-1.3131708 0-2.2790244.61053659-2.2790244 1.93957724h.702439c.0312195-.99674797.7577236-1.34426016 1.6390244-1.34426016.6413008 0 1.3678049.22406504 1.3678049 1.00455284 0 .71063412-.695935.84956102-1.6 1.05840652-.8884553.2007154-1.9160976.3478374-1.9160976 1.5066016 0 1.1280651 1.0048781 1.5686504 1.993496 1.5686504 1.1668292 0 1.9700813-.5409431 2.0162601-1.7231219z"/><path d="m87.9551113 13.8035772 2.9047155-4.46595118v4.46595118h.7037398v-5.50126826h-.8195122l-2.8897561 4.41164226v-4.41164226h-.6952845v5.50126826z"/><path d="m95.5499081 13.1079675-.9502439-2.5416586h1.8855284zm2.5730081-4.80565856h-.8110569l-.6100813 1.68448781h-2.3108943l-.6256911-1.68448781h-.7726829l2.1639024 5.50126826h.8182114z"/><path d="m102.777876 13.1702114h-1.846505v-4.86790246h-.726504v4.86790246h-1.8465036v.6333658h4.4195126z"/><path d="m104.266006 8.30230894h.726627v5.50126826h-.726627z"/><path d="m107.481615 11.060748c0-1.37554475.749919-2.26400003 1.916748-2.26400003 1.150569 0 1.900488.89606504 1.900488 2.26400003 0 1.3597398-.749919 2.2405853-1.916748 2.2405853-1.297561 0-1.900488-1.0660813-1.900488-2.2405853zm4.54309.0383089c0-1.61482926-.887805-2.92780487-2.634147-2.92780487-1.761951 0-2.634796 1.34426017-2.634796 2.94360977 0 1.7149268 1.027642 2.8200975 2.626341 2.8200975 1.708618 0 2.642602-1.1976585 2.642602-2.8359024"/><path d="m114.563241 13.8035772 2.904716-4.46595118v4.46595118h.70374v-5.50126826h-.818862l-2.890407 4.41164226v-4.41164226h-.695284v5.50126826z"/><path d="m122.158038 13.1079675-.950244-2.5416586h1.885529zm2.573008-4.80565856h-.811057l-.610081 1.68448781h-2.310894l-.625691-1.68448781h-.772683l2.163902 5.50126826h.818862z"/><path d="m129.816575 8.30230894h-3.646179v5.50126826h.725854v-4.8675772h2.920325z"/><path d="m134.909258 11.1692358h1.398374c.702439 0 1.244227.1927805 1.244227 1.0040325 0 .8805854-.626992 1.0045528-1.34504 1.0045528h-1.297561zm1.53691 2.6343414c1.051057 0 1.831545-.4402601 1.831545-1.5843252 0-1.2436422-.803252-1.660813-1.877724-1.660813h-1.490731v-2.25613006h-.726504v5.50126826z"/><path d="m140.4169 11.060748c0-1.37554475.749919-2.26400003 1.916098-2.26400003 1.150569 0 1.900487.89606504 1.900487 2.26400003 0 1.3597398-.749918 2.2405853-1.916097 2.2405853-1.297561 0-1.900488-1.0660813-1.900488-2.2405853zm4.543089.0383089c0-1.61482926-.888455-2.92780487-2.634146-2.92780487-1.761951 0-2.635447 1.34426017-2.635447 2.94360977 0 1.7149268 1.027642 2.8200975 2.626992 2.8200975 1.707967 0 2.642601-1.1976585 2.642601-2.8359024"/><path d="m149.878363 12.188748c-.084552.7960325-.556748 1.1201951-1.367805 1.1201951-.787642 0-1.244227-.3320325-1.244227-.9118699 0-.6178862.641951-.7494634 1.492032-.9268293.89561-.1859512 2.039675-.4634146 2.039675-1.62269918 0-1.22074797-1.089431-1.66920326-2.140488-1.66920326-1.313821 0-2.279024.61053659-2.279024 1.93957724h.703089c.03057-.99674797.757074-1.34426016 1.637724-1.34426016.641301 0 1.367805.22406504 1.367805 1.00455284 0 .71063412-.695935.84956102-1.6 1.05840652-.887805.2007154-1.916098.3478374-1.916098 1.5066016 0 1.1280651 1.004878 1.5686504 1.994147 1.5686504 1.166178 0 1.969431-.5409431 2.01626-1.7231219z"/><path d="m156.309583 13.1702114h-1.847155v-4.86790246h-.726504v4.86790246h-1.846504v.6333658h4.420163z"/></g><path d="m34.9450951 31.8020813c0 .2119024.1173983.3294959.3295609.3294959h2.070374c.2119025 0 .3292358-.1175935.3292358-.3294959v-6.823935c0-1.9062764 1.059187-3.2710894 3.0119675-3.2710894 1.9064715 0 3.0355772 1.294439 3.0355772 3.2710894v6.823935c0 .2119024.1173334.3294959.329496.3294959h2.0708943c.2119024 0 .3294959-.1175935.3294959-.3294959v-6.8478049c0-3.3178536-2.2120976-5.8356423-5.7654634-5.8356423-3.529496 0-5.7411382 2.5177887-5.7411382 5.8356423z" fill="#2c2e2c"/><path d="m51.7659731 32.1315772c.2119025 0 .3293008-.1175935.3293008-.3294959v-5.0827967l5.2952195 5.224065c.1410082.1176585.3523903.1882276.6115122.1882276h2.8706992c.2121626 0 .2822765-.1882276.1173984-.3531057l-5.6232195-5.2708292 5.9763252-6.8476098c.1649431-.1646179.0708943-.3528455-.1410081-.3528455h-2.8234147c-.2591219 0-.4476748.070374-.588878.235252l-4.3061464 5.364813-1.3884878-1.0822764v-4.1885528c0-.2116423-.1173983-.3292358-.3293008-.3292358h-2.070374c-.2116422 0-.3292357.1175935-.3292357.3292358v12.1656585c0 .2119024.1175935.3294959.3292357.3294959z" fill="#2c2e2c"/><path d="m69.2481195 25.3074472c1.4822764 0 2.3063414.9412682 2.3063414 2.1414634 0 1.2-.824065 2.0943089-2.3063414 2.0943089h-3.3886179v-4.2357723zm0 6.82413c2.8474796 0 5.0354471-2.0238699 5.0354471-4.6826666 0-1.694309-.9177236-3.1531708-2.2588618-3.9298862l2.0234147-3.8826016c.0949593-.1643578-.0234147-.3292358-.2113822-.3292358h-2.3063414c-.1886179 0-.3291057.070374-.4227642.235252l-1.5772358 3.2001951c-.1645529-.0236097-.2822764-.0236097-.375935-.0236097h-3.2949593v-3.0826016c0-.2116423-.1170732-.3292358-.3291057-.3292358h-2.0708293c-.2115772 0-.3292358.1175935-.3292358.3292358v12.1656585c0 .2119024.1176586.3294959.3292358.3294959z" fill="#2c2e2c"/><path d="m82.9729975 25.3074472c1.4354472 0 2.2588618.8943089 2.2588618 2.1414634 0 1.2233496-.8234146 2.0943089-2.2588618 2.0943089h-3.4120325v-4.2357723zm0 6.82413c2.8474797 0 4.9886179-2.0472195 4.9886179-4.6826666 0-2.729626-2.1411382-4.7298862-4.9886179-4.7298862h-3.4120325v-3.0826016c0-.2116423-.1177236-.3292358-.3297561-.3292358h-2.0702439c-.2113821 0-.3291057.1175935-.3291057.3292358v12.1656585c0 .2119024.1177236.3294959.3291057.3294959z" fill="#2c2e2c"/><path d="m92.3707211 25.7075772c0-2.3297561 1.6468293-4.0236097 4-4.0236097 2.3297561 0 3.9765849 1.6938536 3.9765849 4.0236097 0 2.3765204-1.6468288 4.0472195-3.9765849 4.0472195-2.3531707 0-4-1.6706991-4-4.0472195zm4 6.6120326c3.6949589 0 6.7304069-2.8472846 6.7304069-6.6120326 0-3.7883577-3.035448-6.5889431-6.7304069-6.5889431-3.7177236 0-6.7531707 2.8005854-6.7531707 6.5889431 0 3.764748 3.0354471 6.6120326 6.7531707 6.6120326" fill="#2c2e2c"/><path d="m115.738526 30.3666341c.164553-.1176585.187967-.2589268.070244-.4232845l-1.176585-1.459122c-.141139-.164878-.305692-.1882276-.494309-.0233496-1.058212.8467643-2.423415 1.3175935-4.04748 1.3175935-1.59935 0-2.470244-.4471544-2.470244-1.1765853 0-.7530407.705691-1.1298212 2.84748-1.3412033 3.294309-.3058862 5.670244-1.4120975 5.670244-4.0942439 0-2.564813-2.39935-4.0478049-5.623415-4.0478049-2.353171 0-4.188618.5650732-5.882927 1.9769106-.164553.1173333-.164553.2822764-.023415.4705041l1.106342 1.4824715c.141138.1882927.305691.2119025.470244.070374 1.294309-1.0114471 2.517723-1.4586016 4.377236-1.4586016 1.975935 0 2.870244.5881626 2.870244 1.4586016 0 .9177236-.894309 1.3181138-3.270895 1.5297561-3.153171.2586016-5.247479 1.199935-5.247479 3.859252 0 2.3292358 2.236097 3.8117074 5.318374 3.8117074 2.070243 0 4-.7057561 5.506341-1.9529757" fill="#2c2e2c"/><path d="m120.930071 32.1315772c.212032 0 .329105-.1175935.329105-.3294959v-4.5413984h5.836098v4.5413984c0 .2119024.117724.3294959.329106.3294959h2.071544c.211382 0 .329106-.1175935.329106-.3294959v-12.1656585c0-.2116423-.117724-.3292358-.329106-.3292358h-2.071544c-.211382 0-.329106.1175935-.329106.3292358v5.0358374h-5.836098v-5.0358374c0-.2116423-.117073-.3292358-.329105-.3292358h-2.070244c-.212033 0-.329106.1175935-.329106.3292358v12.1656585c0 .2119024.117073.3294959.329106.3294959z" fill="#2c2e2c"/><path d="m142.766168 32.1315772c.212033 0 .329756-.1175935.329756-.3294959v-1.9293659c0-.2121626-.117723-.3294959-.329756-.3294959h-4.094959v-9.9067967c0-.2116423-.117073-.3292358-.329106-.3292358h-2.070244c-.212032 0-.329756.1175935-.329756.3292358v9.9067967h-4.094309c-.212032 0-.329756.1173333-.329756.3294959v1.9293659c0 .2119024.117724.3294959.329756.3294959z" fill="#2c2e2c"/><path d="m147.076412 24.3190894h4.470244l-2.070894 5.2708293h-.258212zm5.411382-2.4702439h-6.4l-.894309-2.2593821c-.070244-.1882927-.212032-.2822764-.4-.2822764h-2.329756c-.234797 0-.305691.1175935-.234797.3292358l5.553171 12.3069268c.046829.1176585.141138.1882276.306342.1882276h2.682276c.164553 0 .258211-.0705691.305691-.1882276l5.294309-12.2596423c.070894-.1882927-.046829-.3765203-.258862-.3765203h-2.235447c-.234797 0-.399349.1175935-.494309.3292358z" fill="#2c2e2c"/></g></g></svg>