<svg width="16" height="16" fill="none" xmlns="http://www.w3.org/2000/svg"><path d="M5.333 4a1.333 1.333 0 1 1-2.666 0 1.333 1.333 0 0 1 2.666 0ZM5.333 8a1.333 1.333 0 1 1-2.666 0 1.333 1.333 0 0 1 2.666 0ZM4 13.334a1.333 1.333 0 1 0 0-2.667 1.333 1.333 0 0 0 0 2.667ZM9.333 4a1.333 1.333 0 1 1-2.666 0 1.333 1.333 0 0 1 2.666 0ZM8 9.334a1.333 1.333 0 1 0 0-2.667 1.333 1.333 0 0 0 0 2.667ZM9.333 12a1.333 1.333 0 1 1-2.666 0 1.333 1.333 0 0 1 2.666 0ZM12 5.334a1.333 1.333 0 1 0 0-2.667 1.333 1.333 0 0 0 0 2.667ZM13.333 8a1.333 1.333 0 1 1-2.666 0 1.333 1.333 0 0 1 2.666 0ZM12 13.334a1.333 1.333 0 1 0 0-2.666 1.333 1.333 0 0 0 0 2.666Z" fill="#c0c6d0"/></svg>
