<?xml version="1.0" encoding="UTF-8"?>
<svg width="32px" height="32px" viewBox="0 0 32 32" version="1.1" xmlns="http://www.w3.org/2000/svg" xmlns:xlink="http://www.w3.org/1999/xlink">
    <title>en</title>
    <defs>
        <circle id="path-1" cx="16" cy="16" r="16"></circle>
    </defs>
    <g id="Page-1" stroke="none" stroke-width="1" fill="none" fill-rule="evenodd">
        <g id="en">
            <clipPath id="mask-2" fill="white">
                <use xlink:href="#path-1"></use>
            </clipPath>
            <circle stroke="#CED6E2" cx="16" cy="16" r="15.5"></circle>
            <g id="en-flag" clip-path="url(#mask-2)" fill-rule="nonzero">
                <g transform="translate(-7.000000, 0.000000)" id="Path">
                    <path d="M2.39166667,32 L43.6083333,32 C44.9333333,31.925 46,30.8166667 46,29.475 L46,2.525 C46,1.14166667 44.875,0.00833333333 43.4916667,0 L2.50833333,0 C1.125,0.00833333333 0,1.14166667 0,2.525 L0,29.4666667 C0,30.8166667 1.06666667,31.925 2.39166667,32 L2.39166667,32 Z" fill="#FEFEFE"></path>
                    <polygon fill="#C8102E" points="19.7833333 19.1916667 19.7833333 32 26.1833333 32 26.1833333 19.1916667 46 19.1916667 46 12.7916667 26.1833333 12.7916667 26.1833333 0 19.7833333 0 19.7833333 12.7916667 0 12.7916667 0 19.1916667"></polygon>
                    <path d="M28,10 L28,0 L43.618277,0 C44.697763,0.0160901046 45.6230366,0.651649236 46,1.54465004 L28,10 L28,10 Z" fill="#012169"></path>
                    <path d="M28,22 L28,32 L43.7210852,32 C44.7577344,31.9436846 45.631604,31.3161706 46,30.45535 L28,22 L28,22 Z" fill="#012169"></path>
                    <path d="M17,22 L17,32 L2.15641392,32 C1.17548879,31.9436846 0.340486409,31.3161706 0,30.4392599 L17,22 L17,22 Z" fill="#012169"></path>
                    <path d="M17,10 L17,0 L2.25369576,0 C1.23223653,0.0160901046 0.348593228,0.659694288 0,1.56074014 L17,10 L17,10 Z" fill="#012169"></path>
                    <polygon fill="#C8102E" points="46 3 30 11 33.5779528 11 46 4.80104712"></polygon>
                    <polygon fill="#C8102E" points="15.9664042 22 12.3884514 22 0 28.1951731 0 30 16 22"></polygon>
                    <polygon fill="#C8102E" points="8.54127199 11 12 11 0 5 0 6.73513514"></polygon>
                    <polygon fill="#C8102E" points="36.4470668 22 33 22 45 28 45 26.2718708"></polygon>
                </g>
            </g>
        </g>
    </g>
</svg>
