<svg fill="none" height="32" viewBox="0 0 32 32" width="32" xmlns="http://www.w3.org/2000/svg"><g fill="#1d1d1b"><g clip-rule="evenodd" fill-rule="evenodd"><path d="m11.9796 15.496c.1844-.1821.4829-.1814.6665.0014l3.3508 3.3359 2.2909-2.2954c.183-.1835.4815-.1851.6665-.0036.1851.1815.1867.4774.0036.6608l-2.9588 2.9648-4.0209-4.0031c-.1837-.1829-.1831-.4787.0014-.6608z"/><path d="m7.04004 18.2401c0-.2356.20631-.4266.4608-.4266h2.91836c.2545 0 .4608.191.4608.4266 0 .2357-.2063.4267-.4608.4267h-2.91836c-.25449 0-.4608-.191-.4608-.4267z"/><path d="m20.9072 18.2401c0-.2356.2121-.4266.4736-.4266h2.9995c.2616 0 .4736.191.4736.4266 0 .2357-.212.4267-.4736.4267h-2.9995c-.2615 0-.4736-.191-.4736-.4267z"/><path d="m16.0009 23.2534c.2356 0 .4267.2121.4267.4736v2.9995c0 .2615-.1911.4736-.4267.4736-.2357 0-.4267-.2121-.4267-.4736v-2.9995c0-.2615.191-.4736.4267-.4736z"/><path d="m16.0009 9.49316c.2356 0 .4267.21204.4267.4736v2.99944c0 .2616-.1911.4736-.4267.4736-.2357 0-.4267-.212-.4267-.4736v-2.99944c0-.26156.191-.4736.4267-.4736z"/><path d="m16.0004 8.72455c-5.3141 0-9.62204 4.30795-9.62204 9.62205s4.30794 9.6221 9.62204 9.6221c5.3142 0 9.6221-4.308 9.6221-9.6221s-4.3079-9.62205-9.6221-9.62205zm-10.55997 9.62205c0-5.8321 4.72787-10.55998 10.55997-10.55998 5.8322 0 10.56 4.72788 10.56 10.55998s-4.7278 10.56-10.56 10.56c-5.8321 0-10.55997-4.7279-10.55997-10.56z"/><path d="m23.6104 6.30456c-2.9517-1.93597-6.5284-2.67466-10.0041-2.06613s-6.58993 2.51868-8.71059 5.34272c-.15533.20686-.4487.24845-.65526.09289-.20657-.15555-.24809-.44934-.09276-.6562 2.26352-3.01429 5.58758-5.05313 9.29741-5.70266 3.7099-.64953 7.5276.13893 10.6781 2.20532 3.1505 2.0664 5.3978 5.2559 6.2858 8.921.8879 3.6652.3499 7.5314-1.5048 10.8138-.1272.2253-.4128.3046-.6377.1771-.2249-.1274-.3041-.4134-.1768-.6386 1.7376-3.0753 2.2416-6.6974 1.4097-10.1313-.8318-3.4338-2.9373-6.42197-5.889-8.35794z"/></g><path d="m27.3076 22.2324.5552-.1523.7386 2.7656 2.6766-.9458.1896.5491-3.2601 1.1511z"/><path clip-rule="evenodd" d="m2.90846 12.3017c.24042.0981.35534.3713.25668.6103-1.35108 3.2727-1.40026 6.9334-.13759 10.2408.0922.2415-.03002.5116-.27299.6032-.24298.0917-.51469-.0298-.6069-.2713-1.347377-3.5292-1.294891-7.4356.14683-10.9278.09866-.239.37354-.3532.61397-.2552z" fill-rule="evenodd"/></g></svg>