<svg fill="none" height="32" viewBox="0 0 32 32" width="32" xmlns="http://www.w3.org/2000/svg"><g fill="#000"><path d="m25.1065 12.4158c0-1.8005 0-3.68105 0-5.56265 0-1.17333.4821-1.86133 1.5701-2.3168.1587-.07772.2838-.21037.352-.37333.4267-1.09334 1.4358-1.68107 2.576-1.4784 1.0443.18453 1.807 1.1296 1.8134 2.2624 0 3.79413.017 7.58828-.0171 11.38138-.0114.5958-.1442 1.1831-.3904 1.7258-1.1051 2.4384-2.2624 4.8544-3.4133 7.2747-.511 1.0773-.543 2.1557-.0736 3.2533.2133.4971.048.7669-.496.768-3.3266.0064-6.6535.0064-9.9808 0-.3563 0-.6027-.1291-.5995-.5269.016-2.0565-.0277-4.1163.0736-6.1686.0757-1.5199.784-2.8256 1.8517-3.9072 1.8333-1.8581 3.68-3.7034 5.5403-5.536.3136-.305.7381-.496 1.1936-.7957zm1.3696 15.9904c-.3936-1.3418-.1515-2.5706.4405-3.7856 1.0848-2.224 2.1184-4.4725 3.1798-6.7083.2902-.6061.4387-1.2703.4341-1.9424-.0085-3.5754 0-7.14662 0-10.72742.0055-.14586.002-.29192-.0107-.43733-.0296-.30775-.1596-.59723-.3698-.82388-.2103-.22665-.4892-.37792-.7939-.43052-.2843-.03765-.5732.01723-.8239.1565-.2507.13928-.4499.35555-.5681.61683-.0948.2428-.1401.5021-.1333.76267-.0086 3.15307-.0086 6.30575 0 9.45815.0102.3646-.0563.7274-.1955 1.0646-.1391.3372-.3476.6414-.612.8927-1.1253 1.104-2.2229 2.24-3.3493 3.3366-.4992.4885-.8534 1.0293-.8854 1.745-.0149.3136-.1461.5589-.5013.5237s-.4267-.2976-.4096-.608c.0544-.8533.4149-1.5637 1.0176-2.1632 1.2-1.1936 2.4021-2.385 3.5883-3.5914.5568-.5664.5493-1.3942.0234-1.92-.1255-.1278-.2754-.229-.4409-.2976-.1654-.0687-.3429-.1034-.522-.1021s-.3561.0385-.5205.1096c-.1644.071-.3129.1744-.4366.3039-1.8933 1.8817-3.792 3.76-5.6533 5.6704-.9355.96-1.4805 2.1334-1.5168 3.4891-.048 1.7504-.0299 3.5019-.0363 5.2523.0075.055.0234.1086.047.1589zm.3808-22.94612c-.5589.24534-.8533.66027-.8533 1.1968-.0246 1.95307-.0096 3.90612-.0096 5.85812l.8672.3669z"/><path d="m5.52471 28.4054h9.08909c.0106-.1323.0298-.2443.0288-.3563-.0086-1.6789.0064-3.3578-.0406-5.0346-.0384-1.3675-.5877-2.56-1.536-3.5264-1.8656-1.8987-3.74822-3.7675-5.63089-5.6406-.56533-.561-1.38666-.5632-1.92-.0373-.53333.5259-.5472 1.3707.0288 1.9541 1.17903 1.1933 2.36587 2.3798 3.56054 3.5595.60266.5984.96425 1.3045 1.02935 2.1589.0224.3062-.0427.5803-.39149.623-.384.048-.50453-.2219-.52266-.5483-.03734-.6816-.3616-1.2075-.83734-1.6757-1.13386-1.1158-2.24-2.255-3.38133-3.3675-.26981-.2562-.48238-.5665-.62374-.9107-.14137-.3441-.20835-.7143-.19653-1.0861.00783-3.2.00783-6.39682 0-9.59042 0-.64-.35306-1.10613-.96-1.31413-.25622-.09226-.53586-.09663-.79484-.01242-.25898.0842-.48258.25219-.63556.47749-.1841.27857-.28917.60188-.304.93546-.0192 3.76889-.0192 7.53492 0 11.29812.01719.4506.12037.8938.304 1.3056.39467.9387.8448 1.855 1.2864 2.7734.14294.2986.2016.5749-.13866.7466-.34027.1718-.544-.0522-.68054-.3413-.4416-.9344-.91733-1.856-1.304529-2.8128-.215413-.507-.335466-1.0494-.354133-1.6-.029867-3.8091-.018134-7.61922-.013867-11.42935 0-1.13067.767999-2.07893 1.813329-2.2624 1.14134-.20053 2.1408.38613 2.576 1.48267.07909.174.21854.31345.39254.39253 1.0272.42667 1.52746 1.1392 1.52746 2.256v5.51785c.60267.48 1.14347.8416 1.6 1.2896 1.66829 1.6331 3.30669 3.2971 4.95999 4.944 1.4048 1.3974 2.1088 3.0795 2.1013 5.0635-.0074 1.664 0 3.328 0 4.992 0 .6091-.1141.7307-.704.7307-3.2554 0-6.51053 0-9.76529 0-.68373 0-.82346-.2219-.5664-.8662.20645-.4921.30535-1.0227.29008-1.5562s-.14435-1.0576-.37861-1.5371c-.4192-.8971-.83627-1.7952-1.2672-2.6859-.14933-.3082-.16533-.5845.17707-.7317.31466-.1355.51413.0501.64853.3413.42667.9238.87787 1.84 1.3024 2.7659.48533 1.0507.56 2.1504.23253 3.3152zm.48534-15.8933c0-1.952.016-3.90512-.0096-5.85818-.00747-.53334-.29867-.95147-.85334-1.19574v7.42402z"/><path d="m21.3958 11.093c-.032.1653-.0555.3307-.096.4928-.1781.7136-.5333 1.3355-.976 1.92-.6634.8645-1.4402 1.6359-2.3093 2.2933-.5632.4342-1.1584.8267-1.7366 1.2416-.0769.0615-.1724.095-.2709.095s-.194-.0335-.2709-.095c-1.3238-.8416-2.5526-1.7984-3.5979-2.9749-.5177-.56-.9384-1.2024-1.2448-1.9008-.2125-.4909-.3092-1.0241-.2827-1.5584.0672-1.21493.9334-2.3584 2.0971-2.73067 1.2245-.39146 2.3072-.128 3.2405.7552l.0523.05014.0757-.0704c.896-.8384 1.9435-1.12534 3.1158-.7648 1.1722.36053 1.872 1.17333 2.1429 2.36373.0235.1067.0405.2133.0608.32zm-10.1131-.2784-.0309.0064c.0565.2731.0928.5525.1739.8181.2229.7254.656 1.3291 1.1466 1.8934.975 1.1178 2.1334 2.016 3.3654 2.8298.0181.0155.0412.024.065.024.0239 0 .047-.0085.0651-.024 1.0699-.687 2.062-1.4881 2.9589-2.3893.5216-.5124.9632-1.1003 1.3099-1.744.3008-.5867.4811-1.2032.3371-1.8656-.2187-1.0112-.8363-1.68-1.8432-1.92-1.007-.24-1.8699.10667-2.5099.92693-.2016.25494-.4267.25707-.6293 0-.5995-.76586-1.3867-1.09973-2.3467-.95466-.5739.08771-1.0975.37812-1.4757.81859-.3783.44048-.5862 1.00184-.5862 1.58244z"/></g></svg>