<svg viewBox="0 0 30 31" fill="none" xmlns="http://www.w3.org/2000/svg">
<path d="M10.3361 15.0781L10.901 15.8581C11.1715 16.2364 11.449 16.6072 11.7232 16.9723L11.7888 17.0605C11.824 17.0366 11.8586 17.0127 11.8915 16.9878L13.6638 15.9331L13.1332 14.9731C12.1015 13.1084 11.0711 11.2442 10.0347 9.38328C9.93811 9.20401 9.82023 9.03702 9.68365 8.88594C9.5065 8.6858 9.27565 8.54068 9.01849 8.46781C8.46209 8.31313 7.84896 8.52219 7.41959 9.01391C6.92084 9.58203 6.91099 10.2964 7.39005 10.9728C8.36459 12.3453 9.3513 13.7108 10.3361 15.0781ZM14.4044 13.6906L15.169 15.2778L15.3954 15.1972C15.754 15.0477 16.1083 14.8948 16.4458 14.7458L17.0805 14.5217L16.7833 13.5088C16.466 12.4184 16.1519 11.3422 15.814 10.2744C15.4277 9.03594 15.0082 7.72578 14.4883 6.46578C14.4065 6.25816 14.2772 6.07259 14.1107 5.92395C13.9442 5.77531 13.7453 5.66774 13.5297 5.60985C13.1369 5.50016 12.6911 5.54141 12.2726 5.72703C11.8586 5.91266 11.5694 6.20047 11.4391 6.55203C11.3107 6.90266 11.3472 7.30719 11.5436 7.72063C12.4905 9.71281 13.4477 11.7017 14.4044 13.6906ZM29.7658 14.0666C29.5704 13.7066 29.0969 13.512 28.5307 13.5664C27.2721 13.6883 26.3538 14.3084 25.8058 15.4152C25.6502 15.7236 25.5133 16.0377 25.3746 16.3503C25.1796 16.7923 24.9832 17.233 24.7535 17.6572C24.498 18.1161 24.1366 18.5525 23.7072 18.9233C23.5727 19.0381 23.1691 19.385 22.691 19.2523C22.3408 19.1572 22.1402 18.8553 22.0183 18.6364C21.8927 18.4133 21.7624 18.1677 21.6996 17.885L21.6602 17.7059C21.4643 16.827 21.2693 15.9463 21.0743 15.0659L19.6586 15.5173C16.9324 16.3813 13.7974 17.5452 11.2226 19.6288L9.67005 20.8803C9.78771 21.0116 9.90771 21.1423 10.0272 21.2717C10.2473 21.5246 10.4142 21.8192 10.518 22.138C11.0908 23.7894 11.8146 25.5186 13.1758 26.9366C14.2357 28.04 15.3686 28.5481 16.7243 28.5247C17.7476 28.5064 18.7329 28.1956 20.0196 27.4902C20.1897 27.3969 20.5301 27.2417 20.9083 27.2441C22.1847 27.2441 23.1761 26.7683 23.9374 25.7947C24.7619 24.7292 25.1988 23.5072 25.234 22.1694C25.2766 20.3638 26.1166 18.778 27.7985 17.3192L28.1355 17.0361C28.4772 16.7497 28.8012 16.4788 29.0482 16.1773C29.4208 15.7184 29.6838 15.2642 29.808 14.863C29.9018 14.5625 29.8868 14.2873 29.7663 14.0666H29.7658ZM9.89084 17.5817C9.04615 16.5125 8.19771 15.4377 7.34505 14.368C7.27709 14.2859 7.14959 14.1969 7.06005 14.1359C6.9083 14.0347 6.74224 13.9568 6.5674 13.9048C6.3199 13.8364 6.08787 13.8528 5.83849 13.9569C5.38521 14.1463 5.13584 14.4678 5.05193 14.9722C4.9624 15.5052 5.14709 15.972 5.66927 16.5392L6.5613 17.5039C7.40037 18.4138 8.23896 19.3222 9.07287 20.233L10.4683 18.3134L9.89084 17.5817ZM18.191 12.4555C18.3386 12.9683 18.5482 13.708 18.7066 14.2114H20.8779C20.6824 13.2758 20.4869 12.3814 20.299 11.4748C20.1396 10.7 20.0046 9.90969 19.8686 9.1325C19.7754 8.59531 19.6811 8.05063 19.579 7.51297C19.4693 6.93688 19.1829 6.53235 18.7033 6.28531C18.6104 6.23592 18.5123 6.19693 18.4108 6.16906C18.0349 6.06406 17.6477 6.11891 17.3463 6.32891C17.0679 6.5225 16.9005 6.82391 16.8729 7.175C16.8526 7.44284 16.8754 7.71218 16.9404 7.97281C17.3461 9.47013 17.7629 10.9644 18.191 12.4555Z" fill="#EFB086"/>
<path d="M21.7404 10.4047C22.2386 7.83267 21.6902 5.36658 19.9197 3.39923C19.4899 2.9197 20.1485 2.15001 20.5844 2.6347C22.5991 4.87486 23.3065 7.64283 22.7365 10.5917C22.6122 11.2325 21.618 11.0469 21.7404 10.4047ZM25.5419 11.5527C25.9633 8.05533 24.994 4.80079 22.428 2.32908C21.806 1.72814 22.6151 0.632201 23.2479 1.24064C26.1654 4.05314 27.378 7.69954 26.8971 11.7106C26.7902 12.5853 25.4393 12.426 25.5419 11.5527ZM7.11349 20.511C5.10771 19.2627 3.81349 17.3881 3.60021 15.0111C3.5463 14.4322 2.63458 14.3961 2.68568 14.9811C2.93224 17.6877 4.3263 19.8519 6.62646 21.2825C7.12661 21.5928 7.61318 20.8236 7.11349 20.511ZM5.5399 23.7275C2.96974 21.86 1.41302 19.2233 1.35161 16.0124C1.33802 15.2324 0.116457 15.0955 0.130988 15.8863C0.201301 19.5388 1.86724 22.5777 4.81286 24.7194C5.45693 25.1835 6.17974 24.1949 5.5399 23.7275Z" fill="#11A0A9"/>
</svg>
