<svg width="14" height="23" viewBox="0 0 14 23" fill="none" xmlns="http://www.w3.org/2000/svg">
<path d="M5.436 11.82C6.36 10.152 8.136 9.168 9.168 7.692C10.26 6.144 9.648 3.252 6.552 3.252C4.524 3.252 3.528 4.788 3.108 6.06L0 4.752C0.852 2.196 3.168 0 6.54 0C9.36 0 11.292 1.284 12.276 2.892C13.116 4.272 13.608 6.852 12.312 8.772C10.872 10.896 9.492 11.544 8.748 12.912C8.448 13.464 8.328 13.824 8.328 15.6H4.86C4.848 14.664 4.704 13.14 5.436 11.82ZM8.952 20.4C8.952 21.72 7.872 22.8 6.552 22.8C5.232 22.8 4.152 21.72 4.152 20.4C4.152 19.08 5.232 18 6.552 18C7.872 18 8.952 19.08 8.952 20.4Z" fill="black"/>
</svg>
