<svg viewBox="0 0 38 36" fill="none" xmlns="http://www.w3.org/2000/svg">
<path d="M28.465 25.1763C28.1751 25.1769 27.8941 25.0745 27.6709 24.8868L22.0623 20.1411H19.7792C17.1465 20.1411 14.6216 19.0801 12.76 17.1915C10.8984 15.3029 9.85254 12.7414 9.85254 10.0705C9.85254 7.39968 10.8984 4.83821 12.76 2.94962C14.6216 1.06103 17.1465 3.05176e-05 19.7792 3.05176e-05H27.2242C29.6353 0.00701505 31.9615 0.904037 33.7684 2.5236C35.5753 4.14317 36.7394 6.37455 37.0433 8.80111C37.3472 11.2277 36.7702 13.6835 35.42 15.71C34.0697 17.7366 32.0386 19.1953 29.7058 19.8138V23.9175C29.7064 24.1583 29.6389 24.3942 29.5114 24.5972C29.3838 24.8002 29.2015 24.9619 28.9862 25.063C28.8226 25.1386 28.6448 25.1773 28.465 25.1763ZM19.7792 2.51766C17.8047 2.51766 15.911 3.31341 14.5148 4.72985C13.1186 6.14629 12.3342 8.0674 12.3342 10.0705C12.3342 12.0737 13.1186 13.9948 14.5148 15.4112C15.911 16.8277 17.8047 17.6234 19.7792 17.6234H22.509C22.7989 17.6229 23.0799 17.7253 23.3032 17.913L27.2242 21.2236V18.7815C27.2212 18.4761 27.3278 18.18 27.5242 17.9484C27.7205 17.7168 27.9932 17.5655 28.2913 17.5227C30.125 17.2179 31.78 16.2284 32.9313 14.7487C34.0825 13.2689 34.6467 11.406 34.5129 9.52576C34.3792 7.64556 33.5573 5.88404 32.2086 4.5873C30.8599 3.29056 29.082 2.55233 27.2242 2.51766H19.7792Z" fill="white"/>
<path d="M24.7434 8.81171H22.2617V11.3293H24.7434V8.81171Z" fill="white"/>
<path d="M18.5383 8.81171H16.0566V11.3293H18.5383V8.81171Z" fill="white"/>
<path d="M30.9475 8.81171H28.4658V11.3293H30.9475V8.81171Z" fill="white"/>
<path d="M8.61199 35.2468C8.43224 35.2477 8.25442 35.2091 8.09084 35.1335C7.87546 35.0323 7.69318 34.8707 7.56562 34.6676C7.43806 34.4646 7.37057 34.2287 7.37116 33.9879V29.8842C5.39684 29.3506 3.63292 28.2119 2.32014 26.6236C1.00736 25.0352 0.209674 23.0746 0.0359533 21.0094C-0.137767 18.9441 0.320939 16.8747 1.34947 15.0837C2.378 13.2927 3.92624 11.8672 5.7829 11.002C5.93275 10.9219 6.09719 10.8737 6.26608 10.8605C6.43497 10.8473 6.60474 10.8694 6.76492 10.9252C6.9251 10.9811 7.07231 11.0697 7.19747 11.1855C7.32263 11.3013 7.4231 11.4419 7.49268 11.5985C7.56227 11.7552 7.59949 11.9247 7.60206 12.0965C7.60464 12.2683 7.5725 12.4389 7.50764 12.5976C7.44279 12.7564 7.34657 12.9 7.22494 13.0196C7.1033 13.1392 6.95881 13.2322 6.80038 13.293C5.33611 13.9666 4.12609 15.1029 3.3513 16.532C2.5765 17.9612 2.27855 19.6064 2.50201 21.2216C2.72547 22.8369 3.45833 24.3353 4.59099 25.4929C5.72365 26.6504 7.19525 27.4049 8.78571 27.6435C9.08385 27.6863 9.3565 27.8375 9.55283 28.0691C9.74917 28.3007 9.85579 28.5969 9.85282 28.9023V31.3444L13.7739 28.0337C13.99 27.8278 14.2717 27.7073 14.568 27.6939H17.2978C18.2915 27.6957 19.2753 27.4938 20.1901 27.1C21.1049 26.7063 21.9318 26.129 22.621 25.4028C22.8513 25.1624 23.1664 25.0247 23.4968 25.02C23.6604 25.0177 23.8229 25.0481 23.975 25.1094C24.127 25.1708 24.2656 25.2619 24.383 25.3776C24.5003 25.4934 24.594 25.6314 24.6587 25.7838C24.7235 25.9363 24.758 26.1002 24.7603 26.2662C24.7626 26.4322 24.7326 26.597 24.6722 26.7512C24.6117 26.9055 24.5218 27.0461 24.4078 27.1652C23.4832 28.1288 22.3777 28.8948 21.1566 29.4181C19.9354 29.9413 18.6234 30.211 17.2978 30.2115H15.0147L9.40612 34.9572C9.18288 35.1449 8.90191 35.2473 8.61199 35.2468Z" fill="white"/>
</svg>
