<svg xmlns="http://www.w3.org/2000/svg" width="35" height="35" viewBox="0 0 35 35">
    <g fill="none" fill-rule="evenodd">
        <g fill-rule="nonzero">
            <g>
                <g transform="translate(-846 -634) translate(826 504) translate(20 130)">
                    <circle cx="17.5" cy="17.5" r="17.5" fill="#039BE5"/>
                    <path fill="#FFF" d="M8.008 17.12l16.873-6.505c.783-.283 1.467.191 1.213 1.375l.001-.001-2.872 13.535c-.213.96-.784 1.193-1.581.74l-4.375-3.224-2.11 2.033c-.234.233-.43.43-.883.43l.31-4.452 8.11-7.325c.352-.31-.08-.486-.545-.177l-10.02 6.31-4.32-1.348c-.937-.298-.958-.938.199-1.39z"/>
                </g>
            </g>
        </g>
    </g>
</svg>
