<svg xmlns="http://www.w3.org/2000/svg" width="35" height="35" viewBox="0 0 35 35">
    <g fill="none" fill-rule="evenodd">
        <g fill-rule="nonzero">
            <g>
                <g transform="translate(-846 -689) translate(826 504) translate(20 185)">
                    <circle cx="17.5" cy="17.5" r="17.5" fill="#6F3FAA"/>
                    <g fill="#FFF">
                        <path d="M18.965 4.848l-.006-.023c-.468-1.89-2.576-3.918-4.512-4.34L14.426.48c-3.132-.597-6.307-.597-9.437 0l-.023.005C3.031.907.923 2.935.455 4.825l-.005.023c-.579 2.64-.579 5.317 0 7.957l.005.023c.448 1.81 2.4 3.745 4.263 4.277v2.11c0 .764.93 1.14 1.46.588l2.138-2.222c.463.026.927.04 1.391.04 1.576 0 3.153-.149 4.719-.447l.021-.005c1.936-.422 4.044-2.45 4.512-4.34l.006-.024c.578-2.64.578-5.317 0-7.957zm-1.692 7.574c-.312 1.234-1.913 2.767-3.185 3.05-1.665.317-3.343.452-5.02.406-.033-.001-.065.012-.088.036l-1.56 1.602-1.661 1.704c-.122.127-.335.04-.335-.134V15.59c0-.057-.041-.106-.098-.118-1.272-.283-2.873-1.816-3.185-3.05-.52-2.386-.52-4.805 0-7.19.312-1.234 1.913-2.767 3.184-3.05 2.908-.554 5.856-.554 8.763 0 1.273.283 2.873 1.816 3.185 3.05.52 2.385.52 4.804 0 7.19z" transform="translate(7.793 7.451)"/>
                        <path d="M12.474 14.036c-.196-.06-.382-.1-.555-.17-1.794-.745-3.444-1.705-4.75-3.176-.744-.836-1.326-1.78-1.818-2.78-.233-.474-.43-.967-.63-1.456-.183-.447.087-.908.37-1.244.266-.316.608-.557.978-.735.29-.14.575-.059.786.186.456.53.876 1.087 1.215 1.701.21.378.152.84-.227 1.097-.092.063-.175.136-.261.206-.075.062-.146.125-.198.209-.094.153-.098.334-.038.5.467 1.283 1.254 2.28 2.545 2.817.206.086.414.186.652.159.398-.047.527-.484.807-.713.273-.223.621-.226.915-.04.295.186.58.386.863.588.278.198.555.392.812.618.247.218.332.503.193.798-.255.54-.625.989-1.159 1.276-.15.08-.33.107-.5.159-.196-.06.17-.052 0 0zM9.712 3.857c2.345.066 4.272 1.622 4.684 3.941.07.395.096.8.127 1.2.013.169-.082.33-.264.331-.188.003-.273-.155-.285-.323-.024-.334-.04-.67-.087-1-.243-1.747-1.636-3.193-3.375-3.503-.262-.047-.53-.059-.795-.087-.167-.017-.386-.027-.424-.236-.03-.174.117-.313.283-.322.045-.003.09 0 .136 0 2.345.065-.046 0 0 0z" transform="translate(7.793 7.451)"/>
                        <path d="M13.276 8.478c-.004.03-.006.098-.023.163-.062.235-.42.265-.501.027-.025-.07-.028-.15-.028-.226-.001-.497-.11-.993-.36-1.426-.257-.444-.65-.817-1.112-1.043-.28-.137-.58-.222-.887-.272-.133-.023-.268-.036-.403-.055-.162-.022-.25-.126-.242-.286.008-.15.117-.259.281-.25.538.031 1.058.148 1.537.4.973.516 1.529 1.33 1.691 2.416.007.05.02.098.023.147.01.122.015.244.024.405-.004.03-.01-.161 0 0z" transform="translate(7.793 7.451)"/>
                        <path d="M11.817 8.421c-.196.004-.3-.105-.321-.285-.014-.125-.025-.252-.055-.374-.06-.24-.187-.464-.39-.61-.095-.07-.203-.121-.316-.154-.144-.042-.294-.03-.437-.065-.156-.038-.242-.165-.218-.311.023-.133.152-.237.298-.226.909.065 1.559.535 1.652 1.606.006.075.014.155-.003.228-.029.123-.12.185-.21.191-.196.004.09-.006 0 0z" transform="translate(7.793 7.451)"/>
                    </g>
                    <path fill="#FFF" d="M20.267 21.513c.17-.077-.196-.087 0 0z"/>
                    <g fill="#FFF">
                        <path d="M.097.477L.088.476l.009.001zM.073.475L.08.476C.21.5 2.326.783.073.476z" transform="translate(17.432 11.21)"/>
                    </g>
                    <g fill="#FFF">
                        <path d="M1.604.673c-.014-.785-.006.142 0 0zM.148.396C.152.395.156.387.16.386c-.012 0-.031 0-.05.003.012.001.024.007.037.007z" transform="translate(19.482 15.791)"/>
                        <path d="M.158.396C.145.396.134.39.122.389c-.06.006-.123.017.036.007z" transform="translate(19.482 15.791)"/>
                        <path d="M.153.386C.148.387.144.395.14.396.173.388.17.386.153.386z" transform="translate(19.482 15.791)"/>
                    </g>
                </g>
            </g>
        </g>
    </g>
</svg>
