<svg fill="none" height="32" viewBox="0 0 32 32" width="32" xmlns="http://www.w3.org/2000/svg"><g fill="#000"><path d="m1.98574 12.8416c0-2.134 0-4.26799 0-6.402 0-.68346.1114-.78046.79428-.81279 1.94726-.08808 3.75193-.71022 5.50202-1.51298 1.85256-.85608 3.61136-1.9023 5.24806-3.121841.3665-.272047.6483-.266472 1.017 0 2.4921 1.799521 5.1244 3.344831 8.1088 4.172121.9001.24863 1.8481.33448 2.7783.45712.4879.06467.6684.18286.6684.66897.0045 3.7351.0045 7.4698 0 11.2041 0 .3601-.1114.6455-.5347.6399-.4567-.0055-.5247-.3266-.5247-.6946 0-3.4451 0-6.8899 0-10.33438 0-.2765-.0245-.45935-.3665-.485-1.9395-.14494-3.7608-.7537-5.4664-1.63562-1.6576-.85627-3.2428-1.85526-4.8436-2.81969-.2674-.16167-.4178-.16501-.6684.01003-2.55 1.77165-5.22688 3.29132-8.25918 4.08516-.6482.15794-1.30562.27523-1.96843.3512-.3342.0446-.46787.13937-.46676.50284.01337 3.79636-.01894 7.59166.01894 11.38696.02673 2.6446 1.01039 4.8121 3.31859 6.2894 1.53731.9845 3.02338 2.0492 4.53844 3.0705.9335.63 1.8826 1.2365 2.8117 1.872.2484.1695.4244.1829.6818.0067 1.105-.7582 2.2279-1.4907 3.3419-2.2299.1393-.0925.2741-.1951.42-.2743.2796-.1516.547-.1115.723.1539.043.0549.0736.1185.0897.1863.0162.0679.0175.1385.0038.2069-.0136.0684-.0419.133-.0828.1895-.041.0564-.0936.1034-.1544.1375-1.4538.9745-2.9142 1.9389-4.3735 2.9056-.2975.1973-.5459.0535-.7966-.1115-2.2391-1.5-4.47821-2.9981-6.71734-4.4943-.51801-.3479-1.02376-.7136-1.53509-1.0726-2.10767-1.4862-3.13812-3.5868-3.26289-6.0976-.10583-2.1296-.02228-4.2669-.02228-6.4009z"/><path d="m19.8462 17.5343c-.0111 2.8475-1.9372 5.2346-4.6966 5.791-3.7709.7593-7.25431-2.4417-6.89672-6.2849.29743-3.1932 1.78242-5.7977 3.85112-8.13355.4545-.51065.9669-.96889 1.4482-1.44943.3186-.31776.6282-.30995.9569-.00669 2.5377 2.34138 4.4838 5.03847 5.1667 8.50147.1058.5162.117 1.0569.1704 1.5821zm-5.8295-9.19607c-.7954.9332-1.5596 1.73927-2.228 2.62567-1.4805 1.9913-2.49535 4.1766-2.49312 6.7242 0 1.9378 1.24432 3.6927 3.08802 4.3907.892.3249 1.8607.3756 2.7817.1455.921-.23 1.7523-.7303 2.3872-1.4366 1.2789-1.4372 1.3847-3.1219 1.0282-4.8924-.3921-1.9511-1.31-3.6581-2.5221-5.2079-.6049-.78602-1.3011-1.50962-2.0419-2.34917z"/><path d="m24.2564 29.5857c-.7094.0032-1.4125-.1336-2.0689-.4027-.6565-.2691-1.2534-.6652-1.7568-1.1655-.5033-.5003-.903-1.0951-1.1764-1.7503-.2733-.6551-.4148-1.3578-.4164-2.0678-.0045-2.9535 2.4452-5.4064 5.4162-5.4064.7144-.0102 1.4237.1217 2.0866.3882.663.2665 1.2664.6622 1.7752 1.1642.5088.5019.9128 1.1001 1.1886 1.7597.2757.6597.4178 1.3676.4178 2.0826s-.1421 1.4229-.4178 2.0826c-.2758.6596-.6798 1.2577-1.1886 1.7597s-1.1122.8977-1.7752 1.1642c-.6629.2665-1.3722.3984-2.0866.3881zm0-9.7268c-1.1539.0003-2.2608.4579-3.0785 1.2728-.8177.8148-1.2797 1.9206-1.2851 3.0755 0 2.3581 1.9651 4.3271 4.3324 4.3483 2.3672.0212 4.3847-1.9579 4.3847-4.3405.001-.5717-.1106-1.1379-.3285-1.6664s-.5377-1.0087-.9413-1.4133c-.4035-.4046-.8828-.7256-1.4104-.9446s-1.0932-.3318-1.6644-.3318z"/><path d="m15.4566 20.4386c-.0824-.0713-.3019-.1694-.3408-.3155-.0468-.1739-.0067-.4906.1114-.5709.5859-.3902.9513-.9142 1.2031-1.5609.0512-.1304.3631-.2497.5247-.2174.0924.0329.1757.0872.2431.1585s.1169.1576.1445.2518c.1181.669-.9669 2.1073-1.6431 2.2299-.0435.01-.0891.0111-.2429.0245z"/><path d="m17.4414 16.5811c0 .359-.1627.5853-.5459.5742-.3832-.0112-.5057-.2899-.5146-.6244-.0089-.3613.2228-.5976.557-.5787.3876.0223.4968.2832.5035.6289z"/><path d="m23.8309 25.0813c.8177-.8385 1.5819-1.6223 2.3461-2.4039.1114-.1115.2139-.2229.3241-.3222.2585-.2453.5481-.2943.8043-.0301.2563.2643.1905.524-.0512.766-1.0115 1.0109-2.0234 2.0214-3.0356 3.0315-.2607.2598-.557.2431-.8088 0-.6227-.6032-1.2332-1.2197-1.8392-1.8396-.2351-.2386-.2729-.523-.0201-.766.2529-.2431.5325-.2074.7709.029.4857.4805.9592.9733 1.5095 1.5353z"/></g></svg>