<svg xmlns="http://www.w3.org/2000/svg" xmlns:xlink="http://www.w3.org/1999/xlink" width="35" height="35" viewBox="0 0 35 35">
    <defs>
        <circle id="dzbxlgliea" cx="17.5" cy="17.5" r="17.5"/>
    </defs>
    <g fill="none" fill-rule="evenodd">
        <g>
            <g>
                <g transform="translate(-846 -744) translate(826 504) translate(20 240)">
                    <mask id="5twuzl0fcb" fill="#fff">
                        <use xlink:href="#dzbxlgliea"/>
                    </mask>
                    <use fill="#E8E8E8" xlink:href="#dzbxlgliea"/>
                    <g fill-rule="nonzero" mask="url(#5twuzl0fcb)">
                        <path fill="#1BD741" d="M0 0H35V35H0z"/>
                        <g fill="#FFF">
                            <path d="M.75 22.75l1.54-5.466C1.3 15.602.779 13.689.779 11.724.778 5.673 5.707.75 11.764.75c6.058 0 10.986 4.923 10.986 10.974s-4.928 10.974-10.986 10.974c-1.887 0-3.736-.483-5.37-1.4L.75 22.75zm5.932-3.448l.336.206c1.426.869 3.067 1.328 4.746 1.328 5.03 0 9.122-4.087 9.122-9.112s-4.092-9.112-9.122-9.112-9.122 4.087-9.122 9.112c0 1.75.498 3.45 1.44 4.917l.227.352-.888 3.148 3.26-.839z" transform="translate(6 6)"/>
                            <path d="M9.184 6.789L8.48 6.75c-.221-.011-.438.06-.604.202-.341.288-.886.845-1.053 1.571-.25 1.083.136 2.408 1.134 3.734.998 1.326 2.858 3.447 6.147 4.352 1.06.292 1.894.096 2.537-.305.51-.318.861-.827.988-1.403l.112-.51c.036-.163-.049-.328-.204-.397l-2.375-1.066c-.154-.07-.337-.026-.44.105l-.933 1.177c-.07.09-.192.125-.3.087-.639-.218-2.778-1.09-3.952-3.293-.05-.096-.038-.211.034-.293l.891-1.004c.091-.103.114-.247.06-.371L9.499 7.003c-.055-.124-.177-.207-.315-.214z" transform="translate(6 6)"/>
                        </g>
                    </g>
                </g>
            </g>
        </g>
    </g>
</svg>
