<svg width="118" height="28" fill="none" xmlns="http://www.w3.org/2000/svg"><path d="M7.882 9.16V1.74H4.046l-.07 1.736c-.028.653-.07 1.274-.126 1.862a10.676 10.676 0 0 1-.238 1.582c-.103.476-.247.873-.434 1.19-.187.317-.415.527-.686.63l-1.96-.28c.355.019.644-.103.868-.364.233-.261.415-.625.546-1.092.13-.467.229-1.013.294-1.638.065-.635.112-1.32.14-2.058L2.492.2h7.182v8.96H7.882ZM.196 12.086.21 8.46h10.878v3.626h-1.68V10H1.89v2.086H.196Zm17.95-1.946c-.765 0-1.47-.126-2.114-.378a5.172 5.172 0 0 1-1.68-1.05 4.855 4.855 0 0 1-1.106-1.596 5.11 5.11 0 0 1-.392-2.016c0-.728.131-1.395.393-2.002a4.669 4.669 0 0 1 1.105-1.596 5.054 5.054 0 0 1 1.68-1.064 5.713 5.713 0 0 1 2.1-.378c.766 0 1.466.126 2.1.378a5.054 5.054 0 0 1 1.68 1.064c.477.448.845.98 1.107 1.596.26.607.392 1.274.392 2.002 0 .728-.131 1.4-.393 2.016a4.669 4.669 0 0 1-1.105 1.596 5.172 5.172 0 0 1-1.68 1.05 5.604 5.604 0 0 1-2.087.378Zm-.014-1.596a3.66 3.66 0 0 0 1.372-.252c.42-.168.784-.406 1.092-.714.308-.317.546-.681.715-1.092.177-.42.265-.882.265-1.386 0-.504-.088-.961-.265-1.372a3.213 3.213 0 0 0-.715-1.092 3.115 3.115 0 0 0-1.091-.728 3.66 3.66 0 0 0-1.372-.252 3.66 3.66 0 0 0-1.372.252c-.411.168-.775.41-1.092.728-.309.308-.551.672-.729 1.092-.167.41-.252.868-.252 1.372 0 .495.085.952.252 1.372.178.42.42.789.729 1.106.307.308.671.546 1.091.714.42.168.878.252 1.372.252Zm8.1 1.456V.2h7.63v1.498h-5.839v2.408h2.899c1.175 0 2.067.247 2.674.742.616.485.924 1.195.924 2.128 0 .961-.341 1.708-1.023 2.24-.672.523-1.623.784-2.855.784h-4.41Zm1.791-1.4h2.52c.7 0 1.233-.135 1.596-.406.364-.27.546-.663.546-1.176 0-1.008-.714-1.512-2.142-1.512h-2.52V8.6Zm9.284 1.4V.2h4.032c.868 0 1.61.14 2.226.42.626.28 1.106.681 1.442 1.204.336.523.504 1.143.504 1.862 0 .719-.168 1.34-.504 1.862-.336.523-.816.924-1.442 1.204-.616.28-1.358.42-2.226.42h-3.024l.812-.854V10h-1.82Zm1.82-3.486-.812-.882h2.94c.803 0 1.405-.168 1.806-.504.41-.345.616-.826.616-1.442 0-.625-.205-1.106-.616-1.442-.401-.336-1.003-.504-1.806-.504h-2.94l.812-.896v5.67Zm13.587 3.626c-.765 0-1.47-.126-2.114-.378a5.172 5.172 0 0 1-1.68-1.05 4.855 4.855 0 0 1-1.105-1.596 5.11 5.11 0 0 1-.392-2.016c0-.728.13-1.395.392-2.002a4.669 4.669 0 0 1 1.105-1.596A5.054 5.054 0 0 1 50.6.438 5.713 5.713 0 0 1 52.7.06c.766 0 1.466.126 2.1.378a5.054 5.054 0 0 1 1.68 1.064c.477.448.845.98 1.107 1.596.26.607.391 1.274.391 2.002 0 .728-.13 1.4-.392 2.016a4.669 4.669 0 0 1-1.105 1.596 5.172 5.172 0 0 1-1.68 1.05 5.604 5.604 0 0 1-2.087.378ZM52.7 8.544a3.66 3.66 0 0 0 1.372-.252c.42-.168.784-.406 1.092-.714.308-.317.547-.681.715-1.092.177-.42.266-.882.266-1.386 0-.504-.09-.961-.267-1.372a3.213 3.213 0 0 0-.714-1.092 3.115 3.115 0 0 0-1.092-.728 3.66 3.66 0 0 0-1.372-.252 3.66 3.66 0 0 0-1.372.252c-.41.168-.774.41-1.092.728-.307.308-.55.672-.727 1.092-.169.41-.252.868-.252 1.372 0 .495.084.952.252 1.372.177.42.42.789.727 1.106.309.308.672.546 1.093.714.42.168.877.252 1.371.252ZM60.8 10V.2h6.65l-.014 1.54h-5.279l.42-.434.015 8.694H60.8Zm12.399.14c-.766 0-1.47-.126-2.114-.378a5.172 5.172 0 0 1-1.68-1.05 4.856 4.856 0 0 1-1.106-1.596 5.11 5.11 0 0 1-.392-2.016c0-.728.13-1.395.392-2.002a4.67 4.67 0 0 1 1.106-1.596 5.054 5.054 0 0 1 1.68-1.064 5.713 5.713 0 0 1 2.1-.378c.765 0 1.465.126 2.1.378a5.054 5.054 0 0 1 1.68 1.064c.476.448.844.98 1.106 1.596.261.607.392 1.274.392 2.002 0 .728-.131 1.4-.392 2.016a4.669 4.669 0 0 1-1.106 1.596 5.172 5.172 0 0 1-1.68 1.05 5.603 5.603 0 0 1-2.086.378Zm-.014-1.596a3.66 3.66 0 0 0 1.372-.252c.42-.168.784-.406 1.092-.714.308-.317.546-.681.714-1.092.177-.42.266-.882.266-1.386 0-.504-.089-.961-.266-1.372a3.213 3.213 0 0 0-.714-1.092 3.115 3.115 0 0 0-1.092-.728 3.66 3.66 0 0 0-1.372-.252c-.495 0-.952.084-1.372.252-.411.168-.775.41-1.092.728-.308.308-.551.672-.728 1.092-.168.41-.252.868-.252 1.372 0 .495.084.952.252 1.372.177.42.42.789.728 1.106.308.308.672.546 1.092.714.42.168.877.252 1.372.252Zm19.259.616V1.74h-3.836l-.07 1.736c-.028.653-.07 1.274-.126 1.862a10.68 10.68 0 0 1-.238 1.582c-.103.476-.248.873-.434 1.19-.187.317-.416.527-.686.63l-1.96-.28c.354.019.644-.103.868-.364.233-.261.415-.625.546-1.092.13-.467.228-1.013.294-1.638.065-.635.112-1.32.14-2.058L87.054.2h7.182v8.96h-1.792Zm-7.686 2.926.014-3.626H95.65v3.626h-1.68V10h-7.518v2.086h-1.694ZM105.046.2h1.82V10h-1.82V.2ZM99.978 10h-1.82V.2h1.82V10Zm5.208-4.2h-5.362V4.246h5.362V5.8Zm10.922 4.2V6.864l.448.406h-2.87c-.821 0-1.531-.135-2.128-.406-.588-.28-1.041-.677-1.358-1.19-.317-.523-.476-1.148-.476-1.876 0-.756.168-1.4.504-1.932a3.184 3.184 0 0 1 1.428-1.232c.616-.29 1.339-.434 2.17-.434h4.074V10h-1.792Zm-6.356 0 2.422-3.5h1.834L111.67 10h-1.918Zm6.356-3.724v-5.04l.448.504h-2.674c-.747 0-1.321.173-1.722.518-.392.336-.588.84-.588 1.512 0 .644.187 1.143.56 1.498.383.345.943.518 1.68.518h2.744l-.448.49Z" fill="#040F2A"/><path d="M8.26 27.014c-.103-.448-.2-.915-.294-1.4l-.28-1.484-.252-1.498-.238-1.442a45.095 45.095 0 0 1-1.176 3.066c-.43.999-.868 2.007-1.316 3.024a54.878 54.878 0 0 0-.574-1.568c-.177-.495-.35-.98-.518-1.456a53.128 53.128 0 0 1-.49-1.456 39.405 39.405 0 0 1-.476-1.61L1.316 27H.252v-.07c.075-.13.135-.252.182-.364.056-.112.117-.28.182-.504l.266-.952.462-1.694c.196-.728.448-1.638.756-2.73s.7-2.44 1.176-4.046c.345 1.167.7 2.324 1.064 3.472a98.228 98.228 0 0 0 1.162 3.416l2.786-6.874c.261 1.53.537 3.047.826 4.55a77.525 77.525 0 0 0 1.036 4.48c.028.103.065.215.112.336.047.121.098.243.154.364.056.121.117.233.182.336.065.093.126.168.182.224v.07H8.26ZM13.228 27v-9.8h1.792v6.958l5.264-6.958h1.694V27h-1.792v-6.944L14.922 27h-1.694Zm15.932-.828.504-1.14c.36.248.752.44 1.176.576.432.128.86.196 1.284.204.424.008.808-.04 1.152-.144.352-.104.632-.26.84-.468.208-.208.312-.468.312-.78 0-.376-.156-.656-.468-.84-.304-.192-.72-.288-1.248-.288h-1.956v-1.224h1.836c.472 0 .836-.096 1.092-.288a.915.915 0 0 0 .396-.78.91.91 0 0 0-.264-.672c-.168-.176-.4-.308-.696-.396a3.132 3.132 0 0 0-.984-.12c-.36 0-.736.056-1.128.168-.392.104-.764.26-1.116.468l-.492-1.26a6.106 6.106 0 0 1 3.348-.684 4.376 4.376 0 0 1 1.464.372c.44.2.792.464 1.056.792.264.32.396.7.396 1.14 0 .4-.108.756-.324 1.068a2.05 2.05 0 0 1-.864.708c-.368.168-.796.252-1.284.252l.06-.384c.552 0 1.032.096 1.44.288.416.184.736.44.96.768.232.328.348.708.348 1.14 0 .408-.104.772-.312 1.092a2.626 2.626 0 0 1-.852.792c-.36.208-.772.364-1.236.468a5.851 5.851 0 0 1-1.464.108 6.441 6.441 0 0 1-1.536-.264 5.61 5.61 0 0 1-1.44-.672Z" fill="#005BBB"/><path d="m50.184 17.172-.294.644c-.084.196-.178.42-.28.672-.093.252-.206.541-.336.868l-.448 1.218c-.168.485-.373 1.069-.616 1.75-.233.672-.514 1.475-.84 2.408a6.812 6.812 0 0 1-.406.966c-.15.299-.322.57-.518.812a2.37 2.37 0 0 1-.63.56c-.224.14-.472.21-.742.21-.616 0-1.092-.229-1.428-.686-.336-.457-.57-1.06-.7-1.806l1.036-1.61a11.55 11.55 0 0 0-.056.378c-.01.14-.014.29-.014.448 0 .28.019.579.056.896.046.308.112.593.196.854.093.261.215.48.364.658.15.168.331.252.546.252.233 0 .453-.112.658-.336.215-.224.42-.532.616-.924l-2.716-6.384a6.013 6.013 0 0 0-.532-.91 3.203 3.203 0 0 0-.364-.476 1.264 1.264 0 0 0-.378-.294v-.14h2.66l2.352 5.53c.159-.513.308-1.036.448-1.568.15-.541.29-1.06.42-1.554.13-.495.257-.947.378-1.358.121-.42.238-.77.35-1.05l1.218-.028ZM58.97 27l-3.318-4.774 1.47-.91L61.029 27H58.97Zm-6.482 0v-9.8h1.792V27h-1.792Zm1.245-4.13v-1.568h3.304v1.568h-3.303Zm3.556-.56-1.666-.224L58.97 17.2h1.933l-3.612 5.11ZM63.06 27v-9.8h4.032c.868 0 1.61.14 2.226.42.625.28 1.106.681 1.442 1.204.336.523.504 1.143.504 1.862 0 .719-.168 1.34-.504 1.862-.336.523-.817.924-1.442 1.204-.616.28-1.358.42-2.226.42h-3.024l.812-.854V27h-1.82Zm1.82-3.486-.812-.882h2.94c.802 0 1.404-.168 1.806-.504.41-.345.616-.826.616-1.442 0-.625-.206-1.106-.616-1.442-.402-.336-1.004-.504-1.806-.504h-2.94l.812-.896v5.67ZM72.04 27l4.41-9.8h1.792l4.424 9.8h-1.904l-3.794-8.834h.728L73.917 27h-1.876Zm2.03-2.268.49-1.428h5.292l.49 1.428h-6.272ZM84.91 27v-9.8h1.82V27h-1.82Zm2.268-10.752a.876.876 0 0 1-.602-.224.833.833 0 0 1-.238-.616c0-.252.079-.457.238-.616a.846.846 0 0 1 .602-.238c.233 0 .434.08.602.238a.81.81 0 0 1 .252.616.81.81 0 0 1-.252.616.876.876 0 0 1-.602.224Zm-2.716 0a.876.876 0 0 1-.602-.224.833.833 0 0 1-.238-.616c0-.252.079-.457.238-.616a.846.846 0 0 1 .602-.238c.233 0 .434.08.602.238a.81.81 0 0 1 .252.616.81.81 0 0 1-.252.616.876.876 0 0 1-.602.224Zm12.657.952h1.82V27h-1.82v-9.8ZM92.05 27h-1.82v-9.8h1.82V27Zm5.208-4.2h-5.362v-1.554h5.362V22.8Zm5.238 4.2v-9.8h1.792v6.958l5.264-6.958h1.694V27h-1.792v-6.944L104.19 27h-1.694Z" fill="#F2AD5A"/></svg>