<svg height="31" viewBox="0 0 136 31" width="136" xmlns="http://www.w3.org/2000/svg"><g fill="none"><g fill="#f75803" transform="translate(60.555 .839064)"><path d="m11.406 29.8809361c-6.29 0-11.406-4.996-11.406-11.138s5.117-11.13999997 11.406-11.13999997c6.29 0 11.406 4.99799997 11.406 11.13999997s-5.117 11.138-11.406 11.138zm0-20.65199997c-5.371 0-9.742 4.26799997-9.742 9.51399997s4.37 9.514 9.742 9.514c5.371 0 9.742-4.268 9.742-9.514s-4.37-9.51399997-9.742-9.51399997z"/><path d="m11.295 14.2359361c.16-.669-.712-1.442-1.949-1.727s-2.371.027-2.533.696c-.161.67.711 1.443 1.949 1.727 1.237.285 2.371-.027 2.532-.696zm4.474 3.002c.701-.06 1.18-1.11 1.07-2.347s-.769-2.191-1.47-2.131-1.18 1.11-1.07 2.347.769 2.191 1.47 2.131zm-9.013 2.81c.636-1.075.657-2.225.048-2.569-.61-.343-1.62.25-2.255 1.325-.636 1.075-.657 2.225-.047 2.569.61.343 1.619-.25 2.254-1.325zm9.889 2.636c1.208-.385 2.01-1.227 1.792-1.88-.218-.654-1.374-.871-2.583-.486s-2.011 1.227-1.793 1.88c.218.654 1.375.871 2.583.486zm-2.712-3.556c.12-.677-.797-1.399-2.05-1.611-1.252-.213-2.365.163-2.485.84-.12.678.797 1.4 2.049 1.612 1.252.213 2.366-.164 2.486-.84zm-2.342 6.83c.546-.434.338-1.566-.464-2.529s-1.895-1.392-2.441-.958-.339 1.566.464 2.529c.802.963 1.895 1.392 2.44.958zm30.792 3.923c-6.29 0-11.407-4.997-11.407-11.14 0-6.141 5.117-11.13899997 11.407-11.13899997 6.289 0 11.406 4.99799997 11.406 11.13999997s-5.117 11.139-11.406 11.139zm0-20.65199997c-5.372 0-9.742 4.26799997-9.742 9.51399997 0 5.245 4.37 9.514 9.742 9.514 5.371 0 9.741-4.268 9.741-9.514s-4.37-9.51399997-9.741-9.51399997z"/><path d="m39.184 15.1079361c.112-1.236-.366-2.288-1.067-2.348-.7-.06-1.36.893-1.472 2.13-.111 1.236.366 2.288 1.068 2.348.701.06 1.36-.893 1.471-2.13zm5.851-.159c1.209-.385 2.011-1.227 1.793-1.88-.218-.654-1.375-.872-2.583-.487-1.209.385-2.012 1.227-1.793 1.88.218.654 1.374.872 2.583.487zm-5.643 7.547c.312-.617-.358-1.562-1.498-2.113-1.14-.55-2.316-.497-2.628.12-.312.616.359 1.562 1.498 2.112 1.14.55 2.316.497 2.628-.12zm9.582-1.042c.635-.296.707-1.444.161-2.565-.547-1.121-1.505-1.79-2.141-1.494-.635.295-.707 1.444-.161 2.564.547 1.121 1.506 1.79 2.141 1.495zm-6.645-1.515c1.222-.344 2.054-1.158 1.859-1.818-.194-.66-1.343-.918-2.564-.574-1.222.343-2.054 1.157-1.86 1.818.195.66 1.343.917 2.565.574zm2.182 4.927c.789-.973.98-2.108.428-2.535s-1.639.017-2.427.99c-.789.974-.981 2.11-.429 2.536s1.639-.017 2.428-.99zm-5.603-20.82399997c1.3122294-.24481555 2.5901297-.64705531 3.806-1.198l-.604-1.262c-4.334 1.976-8.741 1.198-8.783 1.19v1.405c.082.015.935.173 2.306.173.375 0 .788-.013 1.229-.044-.275.536-.448 1.129-.558 1.696h-15.325c-.1113032-.27516502-.2094147-.5554837-.294-.84-.09-.307-.144-.677-.203-1.07-.166-1.127-.374-2.53-1.612-3.382-1.134-.781-2.923-.916-5.468-.413-3.438.678-5.439 2.113-5.222 3.745.27 2.046 3.67 3.092 9.239 2.778v-1.403c-5.715.322-7.739-.908-7.825-1.553-.074-.565 1.145-1.621 4.091-2.203 2.11-.417 3.578-.354 4.364.187.736.506.875 1.447 1.022 2.443.062.42.127.856.243 1.252 1.615 5.54399997 9.563 12.59299997 9.901 12.88999997l.956-1.035c-.07-.06-5.936-5.264-8.526-10.00199997h14.495c-.027.556-.006.965.003 1.093h1.442c-.064-.97.043-3.681 1.323-4.447z"/></g><path d="m136 17.243v12.552h-1.919v-12.392c0-4.854-2.413-7.407-6.475-7.407-4.714 0-7.583 3.253-7.583 8.358v11.441h-1.919v-21.48h1.835v4.654c1.341-3.003 4.136-4.81402417 7.928-4.81402417 4.872-.00997583 8.133 3.08302417 8.133 9.08802417zm-77.147-9.088-9.176 21.64h-1.987l-9.147-21.64h2.062l8.098 19.362 8.173-19.362zm-22.546 8.012v13.63h-1.798v-3.827c-1.241 2.474-3.642 3.996-7.055 3.996-4.39 0-7.056-2.474-7.056-6.14 0-3.254 1.88-6.008 7.32-6.008h6.718v-1.732c0-3.996-1.99-6.14-5.823-6.14-2.702 0-5.139 1.112-6.754 2.725l-.94-1.482c1.953-1.893 4.8-3.04502743 7.849-3.04502743 4.837-.00997257 7.539 2.71402743 7.539 8.02202743zm-1.871 7.29v-4.035h-6.681c-4.053 0-5.476 1.852-5.476 4.326 0 2.804 1.99 4.526 5.44 4.526 3.303 0 5.585-1.722 6.717-4.817zm-27.186-5.22-5.298 5.135v6.423h-1.952v-29.795h1.952v20.804l13.01-12.624h2.493l-8.765 8.74 9.627 12.876h-2.416l-8.652-11.559z" fill="#027979"/></g></svg>